{
.appVersion = "3112";
classes = (
{
automatic = 1;
code = "A Aacute Abreve Abreveacute Abrevedotbelow Abrevegrave Abrevehookabove Abrevetilde Acaron Acircumflex Acircumflexacute Acircumflexdotbelow Acircumflexgrave Acircumflexhookabove Acircumflextilde Adblgrave Adieresis Adotbelow Agrave Ahookabove Ainvertedbreve Amacron Aogonek Aring Aringacute Atilde AE AEacute B C Cacute Ccaron Ccedilla Ccircumflex Cdotaccent D DZcaron Eth Dcaron Dcroat Dzcaron E Eacute Ebreve Ecaron Ecircumflex Ecircumflexacute Ecircumflexdotbelow Ecircumflexgrave Ecircumflexhookabove Ecircumflextilde Edblgrave Edieresis Edotaccent Edotbelow Egrave Ehookabove Einvertedbreve Emacron Eogonek Etilde F G Gbreve Gcaron Gcircumflex Gcommaaccent Gdotaccent H Hbar Hcircumflex I IJ Iacute Ibreve Icaron Icircumflex Idblgrave Idieresis Idotaccent Idotbelow Igrave Ihookabove Iinvertedbreve Imacron Iogonek Itilde J Jacute Jcircumflex K Kcommaaccent L LJ Lacute Lcaron Lcommaaccent Ldot Lj Lslash M N NJ Nacute Ncaron Ncommaaccent Eng Nhookleft Nj Ntilde O Oacute Obreve Ocaron Ocircumflex Ocircumflexacute Ocircumflexdotbelow Ocircumflexgrave Ocircumflexhookabove Ocircumflextilde Odblgrave Odieresis Odieresismacron Odotaccentmacron Odotbelow Ograve Ohookabove Ohorn Ohornacute Ohorndotbelow Ohorngrave Ohornhookabove Ohorntilde Ohungarumlaut Oinvertedbreve Omacron Oogonek Oslash Oslashacute Otilde Otildemacron OE P Thorn Q R Racute Rcaron Rcommaaccent Rdblgrave Rinvertedbreve S Sacute Saltillo Scaron Scedilla Scircumflex Scommaaccent Germandbls Schwa T Tbar Tcaron Tcedilla Tcommaaccent U Uacute Ubreve Ucaron Ucircumflex Udblgrave Udieresis Udieresisacute Udieresiscaron Udieresisgrave Udieresismacron Udotbelow Ugrave Uhookabove Uhorn Uhornacute Uhorndotbelow Uhorngrave Uhornhookabove Uhorntilde Uhungarumlaut Uinvertedbreve Umacron Uogonek Uring Utilde V W Wacute Wcircumflex Wdieresis Wgrave X Y Yacute Ycircumflex Ydieresis Ydotbelow Ygrave Yhookabove Ymacron Ytilde Z Zacute Zcaron Zdotaccent";
name = Uppercase;

glyphs = (
{
color = 6;
glyphname = A;
layers = (
{
anchors = (
{
name = bottom;
position = "{349, 0}";
},
{
name = ogonek;
position = "{667, 0}";
},
{
name = top;
position = "{354, 704}";
}
);
layerId = UUID0;
paths = (
{
closed = 1;
nodes = (
"229 0 OFFCURVE",
"262 16 OFFCURVE",
"276 33 CURVE",
"276 44 OFFCURVE",
"272 52 OFFCURVE",
"269 55 CURVE",
"126 67 LINE",
"134 69 OFFCURVE",
"162 85 OFFCURVE",
"177 143 CURVE SMOOTH",
"215 287 LINE",
"468 287 LINE",
"505 116 LINE SMOOTH",
"516 64 OFFCURVE",
"505 64 OFFCURVE",
"467 64 CURVE SMOOTH",
"438 64 LINE",
"434 60 OFFCURVE",
"428 50 OFFCURVE",
"428 39 CURVE",
"456 29 OFFCURVE",
"605 0 OFFCURVE",
"630 0 CURVE SMOOTH",
"652 0 OFFCURVE",
"683 17 OFFCURVE",
"700 34 CURVE",
"700 45 OFFCURVE",
"696 53 OFFCURVE",
"693 56 CURVE",
"634 61 LINE SMOOTH",
"618 62 OFFCURVE",
"610 70 OFFCURVE",
"607 86 CURVE SMOOTH",
"478 661 LINE",
"453 686 OFFCURVE",
"399 720 OFFCURVE",
"373 720 CURVE SMOOTH",
"346 720 OFFCURVE",
"267 670 OFFCURVE",
"245 646 CURVE",
"134 240 LINE SMOOTH",
"94 95 OFFCURVE",
"61 58 OFFCURVE",
"28 58 CURVE SMOOTH",
"20 58 LINE",
"16 54 OFFCURVE",
"10 45 OFFCURVE",
"10 34 CURVE",
"55 20 OFFCURVE",
"187 0 OFFCURVE",
"207 0 CURVE SMOOTH"
);
},
{
closed = 1;
nodes = (
"314 656 LINE",
"340 653 OFFCURVE",
"370 641 OFFCURVE",
"396 620 CURVE",
"454 352 LINE",
"419 346 OFFCURVE",
"322 340 OFFCURVE",
"229 340 CURVE"
);
}
);
width = 708;
},
{
anchors = (
{
name = bottom;
position = "{352, 0}";
},
{
name = ogonek;
position = "{701, 0}";
},
{
name = top;
position = "{373, 704}";
}
);
layerId = "C4D96FDC-31F2-4CF4-BEA5-4CCE99FECD99";
paths = (
{
closed = 1;
nodes = (
"226 0 OFFCURVE",
"279 19 OFFCURVE",
"292 35 CURVE",
"292 48 OFFCURVE",
"286 61 OFFCURVE",
"282 67 CURVE",
"155 77 LINE",
"166 79 OFFCURVE",
"186 113 OFFCURVE",
"193 142 CURVE SMOOTH",
"229 280 LINE",
"451 280 LINE",
"480 147 LINE SMOOTH",
"490 101 OFFCURVE",
"478 77 OFFCURVE",
"443 73 CURVE SMOOTH",
"424 71 LINE",
"420 65 OFFCURVE",
"415 50 OFFCURVE",
"415 35 CURVE",
"443 25 OFFCURVE",
"635 0 OFFCURVE",
"658 0 CURVE SMOOTH",
"683 0 OFFCURVE",
"729 18 OFFCURVE",
"746 35 CURVE",
"746 52 OFFCURVE",
"741 64 OFFCURVE",
"738 69 CURVE",
"681 78 LINE SMOOTH",
"668 80 OFFCURVE",
"660 81 OFFCURVE",
"655 103 CURVE SMOOTH",
"524 661 LINE",
"486 693 OFFCURVE",
"403 720 OFFCURVE",
"377 720 CURVE SMOOTH",
"350 720 OFFCURVE",
"261 669 OFFCURVE",
"239 645 CURVE",
"129 242 LINE SMOOTH",
"84 77 OFFCURVE",
"57 77 OFFCURVE",
"32 74 CURVE SMOOTH",
"8 71 LINE",
"4 65 OFFCURVE",
"-1 51 OFFCURVE",
"-1 35 CURVE",
"44 21 OFFCURVE",
"184 0 OFFCURVE",
"202 0 CURVE SMOOTH"
);
},
{
closed = 1;
nodes = (
"313 621 LINE",
"339 618 OFFCURVE",
"363 609 OFFCURVE",
"385 590 CURVE",
"433 363 LINE",
"399 357 OFFCURVE",
"337 352 OFFCURVE",
"245 352 CURVE"
);
}
);
width = 745;
},
{
anchors = (
{
name = bottom;
position = "{341, 0}";
},
{
name = ogonek;
position = "{651, 0}";
},
{
name = top;
position = "{350, 709}";
}
);
layerId = "65D1C757-52A4-41AF-B6F1-0B1906938095";
paths = (
{
closed = 1;
nodes = (
"167 0 OFFCURVE",
"201 11 OFFCURVE",
"221 24 CURVE",
"221 35 OFFCURVE",
"218 39 OFFCURVE",
"215 41 CURVE",
"124 48 LINE",
"134 56 OFFCURVE",
"152 82 OFFCURVE",
"162 123 CURVE SMOOTH",
"205 289 LINE",
"476 289 LINE",
"524 93 LINE SMOOTH",
"537 41 OFFCURVE",
"526 41 OFFCURVE",
"488 41 CURVE SMOOTH",
"477 41 LINE",
"474 38 OFFCURVE",
"470 33 OFFCURVE",
"470 23 CURVE",
"498 15 OFFCURVE",
"585 0 OFFCURVE",
"610 0 CURVE SMOOTH",
"624 0 OFFCURVE",
"654 12 OFFCURVE",
"669 24 CURVE",
"669 28 OFFCURVE",
"666 38 OFFCURVE",
"663 40 CURVE",
"613 45 LINE SMOOTH",
"593 47 OFFCURVE",
"590 54 OFFCURVE",
"587 70 CURVE SMOOTH",
"435 684 LINE",
"418 700 OFFCURVE",
"368 725 OFFCURVE",
"353 725 CURVE SMOOTH",
"336 725 OFFCURVE",
"286 699 OFFCURVE",
"263 675 CURVE",
"124 155 LINE SMOOTH",
"105 84 OFFCURVE",
"74 43 OFFCURVE",
"47 43 CURVE SMOOTH",
"31 43 LINE",
"27 40 OFFCURVE",
"21 32 OFFCURVE",
"21 24 CURVE",
"66 12 OFFCURVE",
"131 0 OFFCURVE",
"151 0 CURVE SMOOTH"
);
},
{
closed = 1;
nodes = (
"306 679 LINE",
"335 678 OFFCURVE",
"368 661 OFFCURVE",
"390 645 CURVE",
"465 334 LINE",
"401 330 OFFCURVE",
"305 326 OFFCURVE",
"214 324 CURVE"
);
}
);
width = 700;
},
{
anchors = (
{
name = bottom;
position = "{308, 0}";
},
{
name = ogonek;
position = "{579, 0}";
},
{
name = top;
position = "{313, 704}";
}
);
layerId = "891D9FC5-7784-4CE6-B01A-BC8B0C8DC68C";
paths = (
{
closed = 1;
nodes = (
"174 0 OFFCURVE",
"198 11 OFFCURVE",
"216 29 CURVE",
"216 38 OFFCURVE",
"212 44 OFFCURVE",
"210 46 CURVE",
"97 54 LINE",
"110 61 OFFCURVE",
"131 86 OFFCURVE",
"142 131 CURVE SMOOTH",
"180 288 LINE",
"432 288 LINE",
"473 98 LINE SMOOTH",
"484 49 OFFCURVE",
"476 49 OFFCURVE",
"441 49 CURVE SMOOTH",
"418 49 LINE",
"414 43 OFFCURVE",
"410 33 OFFCURVE",
"410 26 CURVE",
"434 19 OFFCURVE",
"538 0 OFFCURVE",
"566 0 CURVE SMOOTH",
"585 0 OFFCURVE",
"611 17 OFFCURVE",
"623 29 CURVE",
"621 42 OFFCURVE",
"619 42 OFFCURVE",
"616 45 CURVE",
"567 49 LINE SMOOTH",
"548 51 OFFCURVE",
"549 57 OFFCURVE",
"545 75 CURVE SMOOTH",
"412 670 LINE",
"391 690 OFFCURVE",
"348 720 OFFCURVE",
"325 720 CURVE SMOOTH",
"307 720 OFFCURVE",
"241 687 OFFCURVE",
"223 665 CURVE",
"103 194 LINE",
"81 104 OFFCURVE",
"50 47 OFFCURVE",
"20 47 CURVE SMOOTH",
"14 47 LINE",
"9 44 OFFCURVE",
"4 33 OFFCURVE",
"4 24 CURVE",
"41 13 OFFCURVE",
"140 0 OFFCURVE",
"158 0 CURVE SMOOTH"
);
},
{
closed = 1;
nodes = (
"275 672 LINE",
"301 668 OFFCURVE",
"328 655 OFFCURVE",
"356 635 CURVE",
"421 339 LINE",
"374 334 OFFCURVE",
"263 330 OFFCURVE",
"191 328 CURVE"
);
}
);
userData = {
RMXScaler = {
weight = 3;
width = 92;
};
};
width = 624;
},
{
anchors = (
{
name = bottom;
position = "{391, 0}";
},
{
name = ogonek;
position = "{734, 0}";
},
{
name = top;
position = "{398, 704}";
}
);
layerId = "FC63F3C5-4BD2-445A-988E-6411A2DDD46F";
paths = (
{
closed = 1;
nodes = (
"268 0 OFFCURVE",
"307 16 OFFCURVE",
"323 33 CURVE",
"323 46 OFFCURVE",
"317 55 OFFCURVE",
"316 59 CURVE",
"163 71 LINE",
"186 76 OFFCURVE",
"204 102 OFFCURVE",
"217 144 CURVE SMOOTH",
"257 286 LINE",
"514 286 LINE",
"550 123 LINE SMOOTH",
"563 65 OFFCURVE",
"543 66 OFFCURVE",
"511 66 CURVE SMOOTH",
"477 66 LINE",
"475 65 OFFCURVE",
"466 54 OFFCURVE",
"466 41 CURVE",
"498 30 OFFCURVE",
"663 0 OFFCURVE",
"694 0 CURVE SMOOTH",
"720 0 OFFCURVE",
"757 20 OFFCURVE",
"773 34 CURVE",
"771 55 OFFCURVE",
"767 55 OFFCURVE",
"763 60 CURVE",
"700 64 LINE SMOOTH",
"680 65 OFFCURVE",
"677 76 OFFCURVE",
"673 89 CURVE SMOOTH",
"538 661 LINE",
"509 688 OFFCURVE",
"445 720 OFFCURVE",
"418 720 CURVE SMOOTH",
"388 720 OFFCURVE",
"298 667 OFFCURVE",
"275 644 CURVE",
"161 247 LINE SMOOTH",
"119 101 OFFCURVE",
"83 63 OFFCURVE",
"48 63 CURVE SMOOTH",
"39 63 LINE",
"33 57 OFFCURVE",
"27 46 OFFCURVE",
"27 34 CURVE",
"78 20 OFFCURVE",
"228 0 OFFCURVE",
"246 0 CURVE SMOOTH"
);
},
{
closed = 1;
nodes = (
"354 649 LINE",
"381 644 OFFCURVE",
"409 633 OFFCURVE",
"439 613 CURVE",
"497 356 LINE",
"462 350 OFFCURVE",
"377 344 OFFCURVE",
"273 344 CURVE"
);
}
);
userData = {
RMXScaler = {
adjustSpace = 5;
weight = 8;
};
};
width = 795;
},
{
anchors = (
{
name = bottom;
position = "{400, 0}";
},
{
name = ogonek;
position = "{767, 0}";
},
{
name = top;
position = "{419, 704}";
}
);
layerId = "B67CA61C-C7DB-4511-8D93-FE28BE810A6B";
paths = (
{
closed = 1;
nodes = (
"289 0 OFFCURVE",
"345 19 OFFCURVE",
"359 36 CURVE",
"359 52 OFFCURVE",
"349 67 OFFCURVE",
"347 71 CURVE",
"189 83 LINE",
"201 84 OFFCURVE",
"227 121 OFFCURVE",
"236 149 CURVE SMOOTH",
"274 281 LINE",
"498 281 LINE",
"528 157 LINE SMOOTH",
"544 89 OFFCURVE",
"504 81 OFFCURVE",
"487 79 CURVE SMOOTH",
"455 76 LINE",
"455 74 OFFCURVE",
"444 59 OFFCURVE",
"444 39 CURVE",
"477 27 OFFCURVE",
"706 0 OFFCURVE",
"723 0 CURVE SMOOTH",
"747 0 OFFCURVE",
"800 19 OFFCURVE",
"817 37 CURVE",
"816 64 OFFCURVE",
"812 64 OFFCURVE",
"807 73 CURVE",
"744 84 LINE SMOOTH",
"728 87 OFFCURVE",
"717 91 OFFCURVE",
"713 107 CURVE SMOOTH",
"590 660 LINE",
"547 693 OFFCURVE",
"462 720 OFFCURVE",
"432 720 CURVE SMOOTH",
"396 720 OFFCURVE",
"289 660 OFFCURVE",
"268 637 CURVE",
"164 263 LINE SMOOTH",
"109 66 OFFCURVE",
"75 91 OFFCURVE",
"49 81 CURVE SMOOTH",
"30 74 LINE",
"25 70 OFFCURVE",
"20 55 OFFCURVE",
"20 37 CURVE",
"70 23 OFFCURVE",
"250 0 OFFCURVE",
"266 0 CURVE SMOOTH"
);
},
{
closed = 1;
nodes = (
"360 614 LINE",
"386 610 OFFCURVE",
"409 600 OFFCURVE",
"433 584 CURVE",
"479 368 LINE",
"456 363 OFFCURVE",
"401 361 OFFCURVE",
"293 356 CURVE"
);
}
);
userData = {
RMXScaler = {
adjustSpace = 5;
weight = 5;
};
};
width = 832;
}
);
leftKerningGroup = A;
rightKerningGroup = A;
unicode = 0041;
userData = {
RMXScaler = {
source = A;
};
};
},
{
color = 6;
glyphname = AE;
layers = (
{
anchors = (
{
name = bottom;
position = "{467, 0}";
},
{
name = top;
position = "{507, 704}";
}
);
layerId = UUID0;
paths = (
{
closed = 1;
nodes = (
"229 0 OFFCURVE",
"262 16 OFFCURVE",
"276 33 CURVE",
"276 44 OFFCURVE",
"272 52 OFFCURVE",
"269 55 CURVE",
"126 67 LINE",
"135 69 OFFCURVE",
"162 86 OFFCURVE",
"177 143 CURVE SMOOTH",
"215 284 LINE",
"465 310 LINE",
"503 133 LINE SMOOTH",
"515 79 OFFCURVE",
"491 68 OFFCURVE",
"453 62 CURVE SMOOTH",
"424 58 LINE",
"420 54 OFFCURVE",
"414 45 OFFCURVE",
"414 34 CURVE",
"491 19 OFFCURVE",
"710 0 OFFCURVE",
"809 0 CURVE SMOOTH",
"829 0 OFFCURVE",
"873 29 OFFCURVE",
"890 46 CURVE",
"896 85 OFFCURVE",
"903 158 OFFCURVE",
"903 216 CURVE",
"896 223 OFFCURVE",
"878 232 OFFCURVE",
"855 232 CURVE",
"805 69 LINE",
"578 69 LINE",
"590 77 OFFCURVE",
"603 103 OFFCURVE",
"594 147 CURVE SMOOTH",
"557 320 LINE",
"763 343 LINE",
"768 354 OFFCURVE",
"775 380 OFFCURVE",
"776 409 CURVE",
"767 417 LINE",
"723 405 OFFCURVE",
"630 389 OFFCURVE",
"542 381 CURVE",
"496 597 LINE SMOOTH",
"486 642 OFFCURVE",
"486 654 OFFCURVE",
"556 654 CURVE SMOOTH",
"628 654 OFFCURVE",
"708 644 OFFCURVE",
"748 637 CURVE",
"772 500 LINE",
"778 496 OFFCURVE",
"796 490 OFFCURVE",
"822 490 CURVE",
"831 515 OFFCURVE",
"846 575 OFFCURVE",
"850 649 CURVE",
"830 671 OFFCURVE",
"789 694 OFFCURVE",
"755 704 CURVE",
"370 704 LINE SMOOTH",
"343 704 OFFCURVE",
"264 654 OFFCURVE",
"242 630 CURVE",
"134 240 LINE SMOOTH",
"94 95 OFFCURVE",
"61 58 OFFCURVE",
"28 58 CURVE SMOOTH",
"20 58 LINE",
"16 54 OFFCURVE",
"10 45 OFFCURVE",
"10 34 CURVE",
"55 20 OFFCURVE",
"187 0 OFFCURVE",
"207 0 CURVE SMOOTH"
);
},
{
closed = 1;
nodes = (
"307 627 LINE",
"317 634 OFFCURVE",
"345 644 OFFCURVE",
"393 644 CURVE",
"451 368 LINE",
"380 358 OFFCURVE",
"299 349 OFFCURVE",
"229 341 CURVE"
);
}
);
width = 933;
},
{
anchors = (
{
name = bottom;
position = "{465, 0}";
},
{
name = top;
position = "{505, 709}";
}
);
layerId = "65D1C757-52A4-41AF-B6F1-0B1906938095";
paths = (
{
closed = 1;
nodes = (
"167 0 OFFCURVE",
"201 11 OFFCURVE",
"221 24 CURVE",
"221 35 OFFCURVE",
"218 39 OFFCURVE",
"215 41 CURVE",
"124 48 LINE",
"134 56 OFFCURVE",
"151 83 OFFCURVE",
"162 123 CURVE SMOOTH",
"206 296 LINE",
"473 320 LINE",
"522 94 LINE SMOOTH",
"530 57 OFFCURVE",
"521 41 OFFCURVE",
"486 41 CURVE SMOOTH",
"475 41 LINE",
"473 39 OFFCURVE",
"468 33 OFFCURVE",
"468 23 CURVE",
"545 8 OFFCURVE",
"747 0 OFFCURVE",
"816 0 CURVE",
"836 5 OFFCURVE",
"867 19 OFFCURVE",
"884 34 CURVE",
"889 103 OFFCURVE",
"890 164 OFFCURVE",
"890 188 CURVE",
"886 192 OFFCURVE",
"876 197 OFFCURVE",
"863 197 CURVE",
"820 49 LINE",
"560 49 LINE",
"580 61 OFFCURVE",
"577 98 OFFCURVE",
"566 148 CURVE SMOOTH",
"526 329 LINE",
"750 354 LINE",
"757 369 OFFCURVE",
"759 387 OFFCURVE",
"759 395 CURVE",
"753 402 LINE",
"672 387 OFFCURVE",
"588 378 OFFCURVE",
"517 371 CURVE",
"465 613 LINE SMOOTH",
"453 669 OFFCURVE",
"460 675 OFFCURVE",
"550 675 CURVE SMOOTH",
"583 675 OFFCURVE",
"713 669 OFFCURVE",
"765 663 CURVE",
"784 520 LINE",
"788 517 OFFCURVE",
"800 514 OFFCURVE",
"812 514 CURVE",
"820 545 OFFCURVE",
"832 612 OFFCURVE",
"836 675 CURVE",
"821 688 OFFCURVE",
"798 699 OFFCURVE",
"772 709 CURVE",
"370 709 LINE SMOOTH",
"347 709 OFFCURVE",
"274 665 OFFCURVE",
"254 641 CURVE",
"124 155 LINE SMOOTH",
"107 91 OFFCURVE",
"81 43 OFFCURVE",
"47 43 CURVE SMOOTH",
"31 43 LINE",
"27 40 OFFCURVE",
"21 32 OFFCURVE",
"21 24 CURVE",
"66 12 OFFCURVE",
"131 0 OFFCURVE",
"151 0 CURVE SMOOTH"
);
},
{
closed = 1;
nodes = (
"294 631 LINE",
"316 645 OFFCURVE",
"353 663 OFFCURVE",
"398 663 CURVE",
"464 362 LINE",
"360 349 OFFCURVE",
"314 345 OFFCURVE",
"218 335 CURVE"
);
}
);
width = 925;
},
{
anchors = (
{
name = bottom;
position = "{483, 0}";
},
{
name = top;
position = "{533, 704}";
}
);
layerId = "C4D96FDC-31F2-4CF4-BEA5-4CCE99FECD99";
paths = (
{
closed = 1;
nodes = (
"226 0 OFFCURVE",
"279 19 OFFCURVE",
"292 35 CURVE",
"292 48 OFFCURVE",
"286 61 OFFCURVE",
"282 67 CURVE",
"155 77 LINE",
"166 79 OFFCURVE",
"184 110 OFFCURVE",
"193 142 CURVE SMOOTH",
"228 280 LINE",
"448 296 LINE",
"480 147 LINE SMOOTH",
"492 91 OFFCURVE",
"481 77 OFFCURVE",
"444 73 CURVE SMOOTH",
"425 71 LINE",
"421 65 OFFCURVE",
"416 53 OFFCURVE",
"416 35 CURVE",
"445 26 OFFCURVE",
"757 0 OFFCURVE",
"867 0 CURVE SMOOTH",
"881 0 OFFCURVE",
"918 29 OFFCURVE",
"929 46 CURVE",
"933 86 OFFCURVE",
"938 164 OFFCURVE",
"938 249 CURVE",
"924 257 OFFCURVE",
"889 268 OFFCURVE",
"852 268 CURVE",
"791 83 LINE",
"640 83 LINE",
"654 106 OFFCURVE",
"648 139 OFFCURVE",
"639 177 CURVE SMOOTH",
"609 306 LINE",
"793 318 LINE",
"797 329 OFFCURVE",
"802 367 OFFCURVE",
"804 399 CURVE",
"790 415 LINE",
"780 412 OFFCURVE",
"699 399 OFFCURVE",
"589 387 CURVE",
"550 558 LINE SMOOTH",
"534 627 OFFCURVE",
"540 635 OFFCURVE",
"602 635 CURVE SMOOTH",
"688 635 OFFCURVE",
"744 621 OFFCURVE",
"757 613 CURVE",
"784 467 LINE",
"801 460 OFFCURVE",
"838 452 OFFCURVE",
"867 452 CURVE",
"877 486 OFFCURVE",
"893 560 OFFCURVE",
"898 642 CURVE",
"882 666 OFFCURVE",
"849 692 OFFCURVE",
"822 704 CURVE",
"346 704 LINE SMOOTH",
"316 704 OFFCURVE",
"256 665 OFFCURVE",
"239 647 CURVE",
"129 242 LINE SMOOTH",
"88 91 OFFCURVE",
"64 81 OFFCURVE",
"32 75 CURVE SMOOTH",
"8 71 LINE",
"4 65 OFFCURVE",
"-1 52 OFFCURVE",
"-1 35 CURVE",
"44 21 OFFCURVE",
"184 0 OFFCURVE",
"202 0 CURVE SMOOTH"
);
},
{
closed = 1;
nodes = (
"310 613 LINE",
"333 620 OFFCURVE",
"355 622 OFFCURVE",
"377 620 CURVE",
"430 370 LINE",
"362 360 OFFCURVE",
"324 358 OFFCURVE",
"245 351 CURVE"
);
}
);
width = 963;
},
{
anchors = (
{
name = bottom;
position = "{438, 0}";
},
{
name = top;
position = "{476, 704}";
}
);
layerId = "891D9FC5-7784-4CE6-B01A-BC8B0C8DC68C";
paths = (
{
closed = 1;
nodes = (
"169 0 OFFCURVE",
"202 14 OFFCURVE",
"218 27 CURVE",
"218 33 OFFCURVE",
"215 43 OFFCURVE",
"212 45 CURVE",
"108 54 LINE",
"117 60 OFFCURVE",
"137 82 OFFCURVE",
"149 128 CURVE SMOOTH",
"189 291 LINE",
"441 315 LINE",
"486 106 LINE SMOOTH",
"496 59 OFFCURVE",
"476 47 OFFCURVE",
"446 47 CURVE SMOOTH",
"430 47 LINE",
"428 44 OFFCURVE",
"423 35 OFFCURVE",
"423 26 CURVE",
"497 11 OFFCURVE",
"702 0 OFFCURVE",
"775 0 CURVE",
"792 3 OFFCURVE",
"827 22 OFFCURVE",
"844 38 CURVE",
"849 97 OFFCURVE",
"851 164 OFFCURVE",
"851 196 CURVE",
"846 202 OFFCURVE",
"831 207 OFFCURVE",
"819 207 CURVE",
"774 54 LINE",
"535 54 LINE",
"552 66 OFFCURVE",
"553 98 OFFCURVE",
"543 147 CURVE SMOOTH",
"506 325 LINE",
"717 348 LINE",
"722 361 OFFCURVE",
"726 381 OFFCURVE",
"726 397 CURVE",
"719 405 LINE",
"658 392 OFFCURVE",
"583 381 OFFCURVE",
"495 372 CURVE",
"446 605 LINE SMOOTH",
"436 653 OFFCURVE",
"433 666 OFFCURVE",
"521 666 CURVE SMOOTH",
"568 666 OFFCURVE",
"677 658 OFFCURVE",
"721 652 CURVE",
"741 512 LINE",
"746 508 OFFCURVE",
"760 504 OFFCURVE",
"776 504 CURVE",
"783 533 OFFCURVE",
"795 591 OFFCURVE",
"800 664 CURVE",
"785 679 OFFCURVE",
"755 694 OFFCURVE",
"729 704 CURVE",
"344 704 LINE SMOOTH",
"320 704 OFFCURVE",
"249 659 OFFCURVE",
"229 635 CURVE",
"109 180 LINE SMOOTH",
"79 65 OFFCURVE",
"50 48 OFFCURVE",
"27 48 CURVE SMOOTH",
"14 48 LINE",
"10 45 OFFCURVE",
"4 36 OFFCURVE",
"4 27 CURVE",
"52 13 OFFCURVE",
"132 0 OFFCURVE",
"150 0 CURVE SMOOTH"
);
},
{
closed = 1;
nodes = (
"275 627 LINE",
"291 637 OFFCURVE",
"325 654 OFFCURVE",
"370 654 CURVE",
"431 362 LINE",
"323 348 OFFCURVE",
"295 346 OFFCURVE",
"201 336 CURVE"
);
}
);
width = 888;
},
{
anchors = (
{
name = bottom;
position = "{512, 0}";
},
{
name = top;
position = "{558, 704}";
}
);
layerId = "FC63F3C5-4BD2-445A-988E-6411A2DDD46F";
paths = (
{
closed = 1;
nodes = (
"247 0 OFFCURVE",
"288 16 OFFCURVE",
"304 33 CURVE",
"304 46 OFFCURVE",
"299 54 OFFCURVE",
"295 58 CURVE",
"159 69 LINE",
"168 72 OFFCURVE",
"192 92 OFFCURVE",
"207 142 CURVE SMOOTH",
"247 283 LINE",
"502 306 LINE",
"541 135 LINE SMOOTH",
"554 77 OFFCURVE",
"527 71 OFFCURVE",
"495 65 CURVE SMOOTH",
"471 61 LINE",
"467 57 OFFCURVE",
"461 46 OFFCURVE",
"461 34 CURVE",
"531 20 OFFCURVE",
"781 0 OFFCURVE",
"877 0 CURVE SMOOTH",
"898 0 OFFCURVE",
"946 29 OFFCURVE",
"963 46 CURVE",
"969 85 OFFCURVE",
"975 168 OFFCURVE",
"975 224 CURVE",
"964 233 OFFCURVE",
"941 241 OFFCURVE",
"916 241 CURVE",
"861 72 LINE",
"641 72 LINE",
"654 84 OFFCURVE",
"660 111 OFFCURVE",
"650 156 CURVE SMOOTH",
"613 316 LINE",
"826 336 LINE",
"831 347 OFFCURVE",
"836 376 OFFCURVE",
"838 405 CURVE",
"828 416 LINE",
"785 406 OFFCURVE",
"704 393 OFFCURVE",
"597 382 CURVE",
"550 586 LINE SMOOTH",
"537 643 OFFCURVE",
"544 649 OFFCURVE",
"614 649 CURVE SMOOTH",
"686 649 OFFCURVE",
"773 638 OFFCURVE",
"809 631 CURVE",
"834 490 LINE",
"845 485 OFFCURVE",
"869 480 OFFCURVE",
"893 480 CURVE",
"902 507 OFFCURVE",
"917 569 OFFCURVE",
"922 648 CURVE",
"902 670 OFFCURVE",
"859 693 OFFCURVE",
"825 704 CURVE",
"399 704 LINE SMOOTH",
"372 704 OFFCURVE",
"294 658 OFFCURVE",
"273 636 CURVE",
"157 236 LINE SMOOTH",
"111 76 OFFCURVE",
"79 63 OFFCURVE",
"51 63 CURVE SMOOTH",
"37 63 LINE",
"33 57 OFFCURVE",
"27 45 OFFCURVE",
"27 34 CURVE",
"74 20 OFFCURVE",
"205 0 OFFCURVE",
"225 0 CURVE SMOOTH"
);
},
{
closed = 1;
nodes = (
"339 623 LINE",
"356 630 OFFCURVE",
"386 637 OFFCURVE",
"426 637 CURVE",
"486 368 LINE",
"387 354 OFFCURVE",
"340 352 OFFCURVE",
"262 344 CURVE"
);
}
);
width = 1015;
},
{
anchors = (
{
name = bottom;
position = "{531, 0}";
},
{
name = top;
position = "{588, 704}";
}
);
layerId = "B67CA61C-C7DB-4511-8D93-FE28BE810A6B";
paths = (
{
closed = 1;
nodes = (
"232 0 OFFCURVE",
"294 17 OFFCURVE",
"311 33 CURVE",
"311 45 OFFCURVE",
"305 60 OFFCURVE",
"300 67 CURVE",
"190 74 LINE",
"202 78 OFFCURVE",
"218 121 OFFCURVE",
"222 134 CURVE SMOOTH",
"260 283 LINE",
"491 294 LINE",
"526 138 LINE SMOOTH",
"535 97 OFFCURVE",
"539 71 OFFCURVE",
"495 71 CURVE SMOOTH",
"485 71 LINE",
"481 63 OFFCURVE",
"477 49 OFFCURVE",
"477 32 CURVE",
"492 23 OFFCURVE",
"871 0 OFFCURVE",
"940 0 CURVE SMOOTH",
"952 0 OFFCURVE",
"995 27 OFFCURVE",
"1005 42 CURVE",
"1008 92 OFFCURVE",
"1010 176 OFFCURVE",
"1010 251 CURVE",
"995 258 OFFCURVE",
"959 269 OFFCURVE",
"917 269 CURVE",
"852 81 LINE",
"703 81 LINE",
"717 106 OFFCURVE",
"707 135 OFFCURVE",
"693 188 CURVE SMOOTH",
"663 303 LINE",
"857 312 LINE",
"861 324 OFFCURVE",
"866 360 OFFCURVE",
"866 388 CURVE",
"851 408 LINE",
"838 407 OFFCURVE",
"761 398 OFFCURVE",
"643 384 CURVE",
"602 548 LINE SMOOTH",
"585 618 OFFCURVE",
"581 635 OFFCURVE",
"663 635 CURVE SMOOTH",
"744 635 OFFCURVE",
"812 620 OFFCURVE",
"823 611 CURVE",
"852 460 LINE",
"873 453 OFFCURVE",
"907 445 OFFCURVE",
"939 445 CURVE",
"949 483 OFFCURVE",
"965 558 OFFCURVE",
"971 648 CURVE",
"956 669 OFFCURVE",
"923 693 OFFCURVE",
"897 704 CURVE",
"376 705 LINE SMOOTH",
"346 705 OFFCURVE",
"292 673 OFFCURVE",
"276 656 CURVE",
"149 212 LINE SMOOTH",
"111 78 OFFCURVE",
"89 79 OFFCURVE",
"61 75 CURVE SMOOTH",
"29 71 LINE",
"25 64 OFFCURVE",
"20 50 OFFCURVE",
"20 32 CURVE",
"67 19 OFFCURVE",
"188 0 OFFCURVE",
"211 0 CURVE SMOOTH"
);
},
{
closed = 1;
nodes = (
"342 608 LINE",
"377 617 OFFCURVE",
"400 619 OFFCURVE",
"414 616 CURVE",
"474 368 LINE",
"431 362 OFFCURVE",
"361 357 OFFCURVE",
"278 352 CURVE"
);
}
);
width = 1046;
}
);
leftKerningGroup = A;
leftMetricsKey = A;
rightKerningGroup = E;
unicode = 00C6;
},
{
color = 6;
glyphname = B;
layers = (
{
anchors = (
{
name = bottom;
position = "{328, 0}";
},
{
name = top;
position = "{328, 704}";
}
);
layerId = UUID0;
paths = (
{
closed = 1;
nodes = (
"481 7 OFFCURVE",
"567 64 OFFCURVE",
"582 95 CURVE",
"593 130 OFFCURVE",
"600 173 OFFCURVE",
"600 215 CURVE SMOOTH",
"600 251 OFFCURVE",
"595 286 OFFCURVE",
"582 314 CURVE",
"558 330 OFFCURVE",
"505 353 OFFCURVE",
"444 359 CURVE",
"445 363 LINE",
"480 368 OFFCURVE",
"518 382 OFFCURVE",
"536 391 CURVE",
"561 414 OFFCURVE",
"576 488 OFFCURVE",
"576 550 CURVE SMOOTH",
"576 578 OFFCURVE",
"572 603 OFFCURVE",
"565 620 CURVE",
"533 658 OFFCURVE",
"483 689 OFFCURVE",
"432 704 CURVE",
"104 704 LINE SMOOTH",
"92 704 OFFCURVE",
"54 685 OFFCURVE",
"43 671 CURVE",
"45 662 OFFCURVE",
"51 656 OFFCURVE",
"55 653 CURVE",
"153 653 LINE",
"145 647 OFFCURVE",
"134 620 OFFCURVE",
"134 571 CURVE SMOOTH",
"134 163 LINE SMOOTH",
"134 90 OFFCURVE",
"132 69 OFFCURVE",
"83 62 CURVE SMOOTH",
"54 58 LINE",
"50 54 OFFCURVE",
"44 45 OFFCURVE",
"44 34 CURVE",
"123 19 OFFCURVE",
"322 0 OFFCURVE",
"424 0 CURVE"
);
},
{
closed = 1;
nodes = (
"216 79 OFFCURVE",
"226 104 OFFCURVE",
"226 138 CURVE SMOOTH",
"226 334 LINE",
"325 334 LINE SMOOTH",
"435 334 OFFCURVE",
"473 295 OFFCURVE",
"495 277 CURVE",
"500 253 OFFCURVE",
"503 225 OFFCURVE",
"503 198 CURVE SMOOTH",
"503 146 OFFCURVE",
"493 91 OFFCURVE",
"469 69 CURVE",
"208 69 LINE"
);
},
{
closed = 1;
nodes = (
"226 572 LINE SMOOTH",
"226 620 OFFCURVE",
"256 654 OFFCURVE",
"304 654 CURVE SMOOTH",
"357 654 OFFCURVE",
"423 647 OFFCURVE",
"454 633 CURVE",
"475 612 OFFCURVE",
"483 569 OFFCURVE",
"483 525 CURVE SMOOTH",
"483 476 OFFCURVE",
"473 431 OFFCURVE",
"452 400 CURVE",
"398 394 OFFCURVE",
"324 387 OFFCURVE",
"226 386 CURVE"
);
}
);
width = 650;
},
{
anchors = (
{
name = bottom;
position = "{341, 0}";
},
{
name = top;
position = "{341, 704}";
}
);
layerId = "C4D96FDC-31F2-4CF4-BEA5-4CCE99FECD99";
paths = (
{
closed = 1;
nodes = (
"512 0 OFFCURVE",
"596 55 OFFCURVE",
"620 89 CURVE",
"631 124 OFFCURVE",
"638 173 OFFCURVE",
"638 215 CURVE SMOOTH",
"638 247 OFFCURVE",
"633 286 OFFCURVE",
"620 314 CURVE",
"599 330 OFFCURVE",
"546 353 OFFCURVE",
"486 359 CURVE",
"487 363 LINE",
"522 368 OFFCURVE",
"552 381 OFFCURVE",
"571 391 CURVE",
"594 412 OFFCURVE",
"611 491 OFFCURVE",
"611 555 CURVE SMOOTH",
"611 576 OFFCURVE",
"609 601 OFFCURVE",
"604 619 CURVE",
"574 652 OFFCURVE",
"501 694 OFFCURVE",
"445 704 CURVE",
"92 704 LINE",
"80 704 OFFCURVE",
"42 685 OFFCURVE",
"31 671 CURVE",
"32 655 OFFCURVE",
"39 641 OFFCURVE",
"43 637 CURVE",
"135 637 LINE",
"123 624 OFFCURVE",
"117 595 OFFCURVE",
"117 557 CURVE SMOOTH",
"117 180 LINE SMOOTH",
"117 107 OFFCURVE",
"106 80 OFFCURVE",
"70 75 CURVE SMOOTH",
"41 71 LINE",
"37 65 OFFCURVE",
"32 51 OFFCURVE",
"32 35 CURVE",
"130 15 OFFCURVE",
"406 0 OFFCURVE",
"466 0 CURVE SMOOTH"
);
},
{
closed = 1;
nodes = (
"269 92 OFFCURVE",
"279 117 OFFCURVE",
"279 152 CURVE SMOOTH",
"279 327 LINE",
"335 327 LINE SMOOTH",
"379 327 OFFCURVE",
"441 307 OFFCURVE",
"462 289 CURVE",
"470 267 OFFCURVE",
"474 236 OFFCURVE",
"474 206 CURVE SMOOTH",
"474 159 OFFCURVE",
"464 108 OFFCURVE",
"442 83 CURVE",
"261 83 LINE"
);
},
{
closed = 1;
nodes = (
"279 558 LINE",
"279 605 OFFCURVE",
"292 632 OFFCURVE",
"336 632 CURVE SMOOTH",
"356 632 OFFCURVE",
"402 627 OFFCURVE",
"428 613 CURVE",
"449 592 OFFCURVE",
"455 565 OFFCURVE",
"455 525 CURVE SMOOTH",
"455 477 OFFCURVE",
"445 436 OFFCURVE",
"424 405 CURVE",
"383 397 OFFCURVE",
"321 396 OFFCURVE",
"279 394 CURVE"
);
}
);
width = 677;
},
{
anchors = (
{
name = bottom;
position = "{304, 0}";
},
{
name = top;
position = "{304, 709}";
}
);
layerId = "65D1C757-52A4-41AF-B6F1-0B1906938095";
paths = (
{
closed = 1;
nodes = (
"436 7 OFFCURVE",
"480 32 OFFCURVE",
"503 54 CURVE",
"524 94 OFFCURVE",
"539 165 OFFCURVE",
"539 226 CURVE SMOOTH",
"539 265 OFFCURVE",
"534 296 OFFCURVE",
"521 320 CURVE",
"505 333 OFFCURVE",
"460 354 OFFCURVE",
"403 364 CURVE",
"404 367 LINE",
"429 373 OFFCURVE",
"457 383 OFFCURVE",
"474 398 CURVE",
"498 429 OFFCURVE",
"513 492 OFFCURVE",
"513 551 CURVE SMOOTH",
"513 588 OFFCURVE",
"505 633 OFFCURVE",
"487 665 CURVE",
"469 679 OFFCURVE",
"420 703 OFFCURVE",
"395 709 CURVE",
"102 709 LINE SMOOTH",
"92 709 OFFCURVE",
"60 694 OFFCURVE",
"52 687 CURVE",
"53 679 OFFCURVE",
"55 673 OFFCURVE",
"59 670 CURVE",
"131 670 LINE",
"125 662 OFFCURVE",
"118 635 OFFCURVE",
"118 599 CURVE SMOOTH",
"118 116 LINE SMOOTH",
"118 60 OFFCURVE",
"104 48 OFFCURVE",
"80 45 CURVE SMOOTH",
"57 42 LINE",
"54 38 OFFCURVE",
"50 30 OFFCURVE",
"50 23 CURVE",
"132 12 OFFCURVE",
"330 0 OFFCURVE",
"401 0 CURVE"
);
},
{
closed = 1;
nodes = (
"167 57 OFFCURVE",
"173 78 OFFCURVE",
"173 104 CURVE SMOOTH",
"173 352 LINE",
"277 352 LINE SMOOTH",
"363 352 OFFCURVE",
"426 324 OFFCURVE",
"464 295 CURVE",
"473 278 OFFCURVE",
"478 242 OFFCURVE",
"478 210 CURVE SMOOTH",
"478 150 OFFCURVE",
"464 74 OFFCURVE",
"433 49 CURVE",
"161 49 LINE"
);
},
{
closed = 1;
nodes = (
"173 604 LINE SMOOTH",
"173 653 OFFCURVE",
"184 674 OFFCURVE",
"234 674 CURVE SMOOTH",
"298 674 OFFCURVE",
"371 669 OFFCURVE",
"421 663 CURVE",
"445 633 OFFCURVE",
"457 582 OFFCURVE",
"457 533 CURVE SMOOTH",
"457 484 OFFCURVE",
"445 431 OFFCURVE",
"420 401 CURVE",
"355 389 OFFCURVE",
"287 389 OFFCURVE",
"173 387 CURVE"
);
}
);
width = 603;
},
{
anchors = (
{
name = bottom;
position = "{306, 0}";
},
{
name = top;
position = "{306, 704}";
}
);
layerId = "891D9FC5-7784-4CE6-B01A-BC8B0C8DC68C";
paths = (
{
closed = 1;
nodes = (
"440 7 OFFCURVE",
"495 40 OFFCURVE",
"515 66 CURVE",
"533 104 OFFCURVE",
"544 171 OFFCURVE",
"544 221 CURVE SMOOTH",
"544 257 OFFCURVE",
"540 291 OFFCURVE",
"528 318 CURVE",
"510 330 OFFCURVE",
"464 352 OFFCURVE",
"407 360 CURVE",
"408 364 LINE",
"436 370 OFFCURVE",
"465 382 OFFCURVE",
"482 395 CURVE",
"505 422 OFFCURVE",
"519 490 OFFCURVE",
"519 548 CURVE SMOOTH",
"519 581 OFFCURVE",
"514 618 OFFCURVE",
"499 649 CURVE",
"478 670 OFFCURVE",
"427 696 OFFCURVE",
"397 704 CURVE",
"104 704 LINE SMOOTH",
"94 704 OFFCURVE",
"60 688 OFFCURVE",
"52 678 CURVE",
"52 675 OFFCURVE",
"56 664 OFFCURVE",
"60 661 CURVE",
"137 661 LINE",
"131 654 OFFCURVE",
"123 630 OFFCURVE",
"123 587 CURVE",
"123 130 LINE SMOOTH",
"123 72 OFFCURVE",
"114 54 OFFCURVE",
"82 50 CURVE SMOOTH",
"59 47 LINE",
"56 43 OFFCURVE",
"51 35 OFFCURVE",
"51 26 CURVE",
"132 13 OFFCURVE",
"335 0 OFFCURVE",
"400 0 CURVE"
);
},
{
closed = 1;
nodes = (
"181 62 OFFCURVE",
"189 84 OFFCURVE",
"189 114 CURVE",
"189 344 LINE",
"287 344 LINE SMOOTH",
"371 344 OFFCURVE",
"427 317 OFFCURVE",
"462 289 CURVE",
"469 270 OFFCURVE",
"473 237 OFFCURVE",
"473 205 CURVE SMOOTH",
"473 149 OFFCURVE",
"461 79 OFFCURVE",
"433 54 CURVE",
"176 54 LINE"
);
},
{
closed = 1;
nodes = (
"189 592 LINE SMOOTH",
"189 637 OFFCURVE",
"203 665 OFFCURVE",
"253 665 CURVE SMOOTH",
"309 665 OFFCURVE",
"380 659 OFFCURVE",
"421 650 CURVE",
"444 622 OFFCURVE",
"453 573 OFFCURVE",
"453 529 CURVE SMOOTH",
"453 481 OFFCURVE",
"443 430 OFFCURVE",
"420 399 CURVE",
"360 392 OFFCURVE",
"299 391 OFFCURVE",
"189 390 CURVE"
);
}
);
width = 606;
},
{
anchors = (
{
name = bottom;
position = "{354, 0}";
},
{
name = top;
position = "{354, 704}";
}
);
layerId = "FC63F3C5-4BD2-445A-988E-6411A2DDD46F";
paths = (
{
closed = 1;
nodes = (
"518 5 OFFCURVE",
"600 60 OFFCURVE",
"620 91 CURVE",
"633 126 OFFCURVE",
"642 171 OFFCURVE",
"642 215 CURVE SMOOTH",
"642 248 OFFCURVE",
"637 286 OFFCURVE",
"623 314 CURVE",
"600 330 OFFCURVE",
"545 352 OFFCURVE",
"483 359 CURVE",
"484 363 LINE",
"518 368 OFFCURVE",
"555 382 OFFCURVE",
"574 391 CURVE",
"597 412 OFFCURVE",
"613 487 OFFCURVE",
"613 552 CURVE SMOOTH",
"613 579 OFFCURVE",
"609 604 OFFCURVE",
"601 622 CURVE",
"572 656 OFFCURVE",
"513 690 OFFCURVE",
"462 704 CURVE",
"116 704 LINE SMOOTH",
"103 704 OFFCURVE",
"64 685 OFFCURVE",
"53 671 CURVE",
"55 657 OFFCURVE",
"62 653 OFFCURVE",
"65 648 CURVE",
"162 648 LINE",
"150 640 OFFCURVE",
"143 604 OFFCURVE",
"143 568 CURVE SMOOTH",
"143 166 LINE SMOOTH",
"143 86 OFFCURVE",
"132 70 OFFCURVE",
"93 65 CURVE SMOOTH",
"64 61 LINE",
"59 56 OFFCURVE",
"54 45 OFFCURVE",
"54 34 CURVE",
"142 18 OFFCURVE",
"376 0 OFFCURVE",
"465 0 CURVE"
);
},
{
closed = 1;
nodes = (
"245 82 OFFCURVE",
"255 108 OFFCURVE",
"255 140 CURVE SMOOTH",
"255 333 LINE",
"346 333 LINE SMOOTH",
"438 333 OFFCURVE",
"490 300 OFFCURVE",
"515 281 CURVE",
"522 257 OFFCURVE",
"526 227 OFFCURVE",
"526 201 CURVE SMOOTH",
"526 152 OFFCURVE",
"515 96 OFFCURVE",
"489 72 CURVE",
"237 72 LINE"
);
},
{
closed = 1;
nodes = (
"255 569 LINE SMOOTH",
"255 616 OFFCURVE",
"279 648 OFFCURVE",
"328 648 CURVE SMOOTH",
"372 648 OFFCURVE",
"439 642 OFFCURVE",
"474 628 CURVE",
"496 607 OFFCURVE",
"505 567 OFFCURVE",
"505 525 CURVE SMOOTH",
"505 479 OFFCURVE",
"494 434 OFFCURVE",
"471 403 CURVE",
"402 395 OFFCURVE",
"337 392 OFFCURVE",
"255 390 CURVE"
);
}
);
width = 703;
},
{
anchors = (
{
name = bottom;
position = "{364, 0}";
},
{
name = top;
position = "{364, 704}";
}
);
layerId = "B67CA61C-C7DB-4511-8D93-FE28BE810A6B";
paths = (
{
closed = 1;
nodes = (
"543 -3 OFFCURVE",
"616 37 OFFCURVE",
"644 66 CURVE",
"659 103 OFFCURVE",
"669 172 OFFCURVE",
"669 218 CURVE SMOOTH",
"669 254 OFFCURVE",
"663 290 OFFCURVE",
"650 316 CURVE",
"632 330 OFFCURVE",
"581 353 OFFCURVE",
"518 360 CURVE",
"519 363 LINE",
"551 369 OFFCURVE",
"579 382 OFFCURVE",
"594 393 CURVE",
"617 413 OFFCURVE",
"637 484 OFFCURVE",
"637 556 CURVE SMOOTH",
"637 583 OFFCURVE",
"634 610 OFFCURVE",
"626 633 CURVE",
"597 658 OFFCURVE",
"516 700 OFFCURVE",
"467 704 CURVE",
"103 704 LINE",
"91 704 OFFCURVE",
"53 686 OFFCURVE",
"43 675 CURVE",
"43 658 OFFCURVE",
"50 641 OFFCURVE",
"54 635 CURVE",
"140 635 LINE",
"129 623 OFFCURVE",
"124 594 OFFCURVE",
"124 561 CURVE SMOOTH",
"124 169 LINE SMOOTH",
"124 111 OFFCURVE",
"109 77 OFFCURVE",
"80 74 CURVE SMOOTH",
"51 71 LINE",
"48 65 OFFCURVE",
"43 48 OFFCURVE",
"43 32 CURVE",
"170 14 OFFCURVE",
"463 1 OFFCURVE",
"508 -1 CURVE SMOOTH"
);
},
{
closed = 1;
nodes = (
"290 89 OFFCURVE",
"299 114 OFFCURVE",
"299 144 CURVE SMOOTH",
"299 330 LINE",
"348 330 LINE SMOOTH",
"368 330 OFFCURVE",
"450 321 OFFCURVE",
"475 300 CURVE",
"486 281 OFFCURVE",
"491 248 OFFCURVE",
"491 214 CURVE SMOOTH",
"491 163 OFFCURVE",
"479 109 OFFCURVE",
"455 81 CURVE",
"283 81 LINE"
);
},
{
closed = 1;
nodes = (
"299 564 LINE SMOOTH",
"299 608 OFFCURVE",
"301 629 OFFCURVE",
"346 629 CURVE SMOOTH",
"357 629 OFFCURVE",
"404 627 OFFCURVE",
"441 615 CURVE",
"464 591 OFFCURVE",
"471 566 OFFCURVE",
"471 527 CURVE SMOOTH",
"471 479 OFFCURVE",
"460 437 OFFCURVE",
"437 406 CURVE",
"394 400 OFFCURVE",
"320 399 OFFCURVE",
"299 399 CURVE"
);
}
);
width = 722;
}
);
leftKerningGroup = H;
leftMetricsKey = H;
rightKerningGroup = B;
unicode = 0042;
},
{
color = 6;
glyphname = C;
layers = (
{
anchors = (
{
name = bottom;
position = "{341, 0}";
},
{
name = top;
position = "{346, 704}";
}
);
layerId = UUID0;
paths = (
{
closed = 1;
nodes = (
"450 0 OFFCURVE",
"525 39 OFFCURVE",
"563 64 CURVE",
"568 106 OFFCURVE",
"574 177 OFFCURVE",
"574 218 CURVE",
"565 224 OFFCURVE",
"544 233 OFFCURVE",
"522 233 CURVE",
"476 80 LINE",
"450 73 OFFCURVE",
"405 69 OFFCURVE",
"361 69 CURVE SMOOTH",
"311 69 OFFCURVE",
"216 113 OFFCURVE",
"188 143 CURVE",
"167 183 OFFCURVE",
"154 261 OFFCURVE",
"154 355 CURVE SMOOTH",
"154 451 OFFCURVE",
"168 552 OFFCURVE",
"191 611 CURVE",
"236 633 OFFCURVE",
"311 651 OFFCURVE",
"355 651 CURVE SMOOTH",
"387 651 OFFCURVE",
"457 631 OFFCURVE",
"480 620 CURVE",
"499 500 LINE",
"505 496 OFFCURVE",
"522 490 OFFCURVE",
"549 490 CURVE",
"557 515 OFFCURVE",
"570 578 OFFCURVE",
"575 658 CURVE",
"533 688 OFFCURVE",
"450 720 OFFCURVE",
"370 720 CURVE SMOOTH",
"270 720 OFFCURVE",
"154 658 OFFCURVE",
"100 608 CURVE",
"79 560 OFFCURVE",
"57 434 OFFCURVE",
"57 316 CURVE SMOOTH",
"57 218 OFFCURVE",
"73 136 OFFCURVE",
"106 98 CURVE SMOOTH",
"144 55 OFFCURVE",
"276 0 OFFCURVE",
"341 0 CURVE SMOOTH"
);
}
);
width = 632;
},
{
anchors = (
{
name = bottom;
position = "{352, 0}";
},
{
name = top;
position = "{352, 704}";
}
);
layerId = "C4D96FDC-31F2-4CF4-BEA5-4CCE99FECD99";
paths = (
{
closed = 1;
nodes = (
"460 0 OFFCURVE",
"558 53 OFFCURVE",
"589 83 CURVE",
"595 128 OFFCURVE",
"602 205 OFFCURVE",
"602 259 CURVE",
"583 267 OFFCURVE",
"546 278 OFFCURVE",
"511 278 CURVE",
"445 108 LINE",
"435 103 OFFCURVE",
"390 100 OFFCURVE",
"374 100 CURVE SMOOTH",
"331 100 OFFCURVE",
"255 142 OFFCURVE",
"245 156 CURVE",
"229 198 OFFCURVE",
"217 292 OFFCURVE",
"217 375 CURVE SMOOTH",
"217 455 OFFCURVE",
"231 564 OFFCURVE",
"246 611 CURVE",
"275 620 OFFCURVE",
"335 626 OFFCURVE",
"370 626 CURVE SMOOTH",
"391 626 OFFCURVE",
"434 613 OFFCURVE",
"454 602 CURVE",
"486 464 LINE",
"499 460 OFFCURVE",
"536 452 OFFCURVE",
"581 452 CURVE",
"591 491 OFFCURVE",
"606 560 OFFCURVE",
"606 648 CURVE",
"558 690 OFFCURVE",
"462 720 OFFCURVE",
"387 720 CURVE SMOOTH",
"311 720 OFFCURVE",
"149 660 OFFCURVE",
"85 596 CURVE",
"68 553 OFFCURVE",
"47 430 OFFCURVE",
"47 320 CURVE SMOOTH",
"47 234 OFFCURVE",
"60 153 OFFCURVE",
"89 113 CURVE",
"111 89 OFFCURVE",
"230 0 OFFCURVE",
"340 0 CURVE"
);
}
);
width = 645;
},
{
anchors = (
{
name = bottom;
position = "{336, 0}";
},
{
name = top;
position = "{331, 709}";
}
);
layerId = "65D1C757-52A4-41AF-B6F1-0B1906938095";
paths = (
{
closed = 1;
nodes = (
"407 0 OFFCURVE",
"492 34 OFFCURVE",
"530 59 CURVE",
"536 86 OFFCURVE",
"546 146 OFFCURVE",
"550 200 CURVE",
"547 203 OFFCURVE",
"531 209 OFFCURVE",
"520 209 CURVE",
"480 75 LINE",
"451 64 OFFCURVE",
"392 48 OFFCURVE",
"351 48 CURVE SMOOTH",
"289 48 OFFCURVE",
"189 93 OFFCURVE",
"157 130 CURVE",
"135 171 OFFCURVE",
"119 262 OFFCURVE",
"119 357 CURVE SMOOTH",
"119 458 OFFCURVE",
"129 565 OFFCURVE",
"155 619 CURVE",
"199 644 OFFCURVE",
"301 677 OFFCURVE",
"349 677 CURVE SMOOTH",
"389 677 OFFCURVE",
"457 658 OFFCURVE",
"486 639 CURVE",
"498 521 LINE",
"503 518 OFFCURVE",
"516 514 OFFCURVE",
"530 513 CURVE",
"537 548 OFFCURVE",
"547 610 OFFCURVE",
"549 663 CURVE",
"509 693 OFFCURVE",
"423 725 OFFCURVE",
"369 725 CURVE SMOOTH",
"290 725 OFFCURVE",
"153 664 OFFCURVE",
"102 626 CURVE",
"81 578 OFFCURVE",
"60 464 OFFCURVE",
"60 339 CURVE SMOOTH",
"60 236 OFFCURVE",
"81 142 OFFCURVE",
"111 95 CURVE",
"149 53 OFFCURVE",
"258 0 OFFCURVE",
"328 0 CURVE SMOOTH"
);
}
);
width = 602;
},
{
anchors = (
{
name = bottom;
position = "{331, 0}";
},
{
name = top;
position = "{329, 704}";
}
);
layerId = "891D9FC5-7784-4CE6-B01A-BC8B0C8DC68C";
paths = (
{
closed = 1;
nodes = (
"408 0 OFFCURVE",
"488 34 OFFCURVE",
"527 60 CURVE",
"535 112 OFFCURVE",
"541 161 OFFCURVE",
"543 206 CURVE",
"536 210 OFFCURVE",
"522 216 OFFCURVE",
"507 216 CURVE",
"466 77 LINE",
"439 67 OFFCURVE",
"385 55 OFFCURVE",
"347 55 CURVE SMOOTH",
"289 55 OFFCURVE",
"195 100 OFFCURVE",
"166 133 CURVE",
"145 174 OFFCURVE",
"131 264 OFFCURVE",
"131 355 CURVE SMOOTH",
"131 449 OFFCURVE",
"141 552 OFFCURVE",
"166 610 CURVE",
"209 635 OFFCURVE",
"299 665 OFFCURVE",
"344 665 CURVE SMOOTH",
"378 665 OFFCURVE",
"445 647 OFFCURVE",
"471 630 CURVE",
"485 512 LINE",
"490 509 OFFCURVE",
"501 505 OFFCURVE",
"523 503 CURVE",
"529 534 OFFCURVE",
"539 593 OFFCURVE",
"543 658 CURVE",
"504 688 OFFCURVE",
"422 720 OFFCURVE",
"361 720 CURVE SMOOTH",
"277 720 OFFCURVE",
"151 661 OFFCURVE",
"101 623 CURVE",
"81 572 OFFCURVE",
"61 454 OFFCURVE",
"61 331 CURVE SMOOTH",
"61 234 OFFCURVE",
"79 140 OFFCURVE",
"109 95 CURVE",
"145 54 OFFCURVE",
"258 0 OFFCURVE",
"325 0 CURVE SMOOTH"
);
}
);
width = 599;
},
{
anchors = (
{
name = bottom;
position = "{372, 0}";
},
{
name = top;
position = "{374, 704}";
}
);
layerId = "FC63F3C5-4BD2-445A-988E-6411A2DDD46F";
paths = (
{
closed = 1;
nodes = (
"478 0 OFFCURVE",
"567 40 OFFCURVE",
"605 65 CURVE",
"610 109 OFFCURVE",
"617 180 OFFCURVE",
"618 230 CURVE",
"606 236 OFFCURVE",
"582 246 OFFCURVE",
"555 246 CURVE",
"501 94 LINE",
"479 84 OFFCURVE",
"428 78 OFFCURVE",
"392 78 CURVE SMOOTH",
"341 78 OFFCURVE",
"245 121 OFFCURVE",
"220 146 CURVE",
"199 189 OFFCURVE",
"186 273 OFFCURVE",
"186 361 CURVE SMOOTH",
"186 446 OFFCURVE",
"199 550 OFFCURVE",
"223 606 CURVE",
"264 627 OFFCURVE",
"343 644 OFFCURVE",
"387 644 CURVE SMOOTH",
"418 644 OFFCURVE",
"479 628 OFFCURVE",
"508 615 CURVE",
"531 490 LINE",
"540 486 OFFCURVE",
"559 480 OFFCURVE",
"594 479 CURVE",
"602 507 OFFCURVE",
"616 572 OFFCURVE",
"620 655 CURVE",
"576 687 OFFCURVE",
"486 720 OFFCURVE",
"404 720 CURVE SMOOTH",
"309 720 OFFCURVE",
"172 662 OFFCURVE",
"111 610 CURVE",
"91 563 OFFCURVE",
"68 438 OFFCURVE",
"68 318 CURVE SMOOTH",
"68 221 OFFCURVE",
"86 138 OFFCURVE",
"118 102 CURVE SMOOTH",
"148 68 OFFCURVE",
"283 0 OFFCURVE",
"367 0 CURVE SMOOTH"
);
}
);
width = 684;
},
{
anchors = (
{
name = bottom;
position = "{382, 0}";
},
{
name = top;
position = "{377, 704}";
}
);
layerId = "B67CA61C-C7DB-4511-8D93-FE28BE810A6B";
paths = (
{
closed = 1;
nodes = (
"482 0 OFFCURVE",
"594 54 OFFCURVE",
"624 84 CURVE",
"631 124 OFFCURVE",
"639 206 OFFCURVE",
"642 268 CURVE",
"620 276 OFFCURVE",
"583 287 OFFCURVE",
"543 287 CURVE",
"471 122 LINE",
"462 114 OFFCURVE",
"408 105 OFFCURVE",
"403 105 CURVE SMOOTH",
"356 105 OFFCURVE",
"279 146 OFFCURVE",
"272 156 CURVE",
"256 199 OFFCURVE",
"243 306 OFFCURVE",
"243 384 CURVE SMOOTH",
"243 453 OFFCURVE",
"256 570 OFFCURVE",
"271 608 CURVE",
"294 614 OFFCURVE",
"363 624 OFFCURVE",
"400 624 CURVE SMOOTH",
"419 624 OFFCURVE",
"460 615 OFFCURVE",
"482 601 CURVE",
"517 457 LINE",
"537 452 OFFCURVE",
"569 446 OFFCURVE",
"622 444 CURVE",
"633 490 OFFCURVE",
"648 567 OFFCURVE",
"646 644 CURVE",
"595 690 OFFCURVE",
"493 720 OFFCURVE",
"421 720 CURVE SMOOTH",
"353 720 OFFCURVE",
"167 664 OFFCURVE",
"96 601 CURVE",
"80 562 OFFCURVE",
"58 442 OFFCURVE",
"58 329 CURVE SMOOTH",
"58 243 OFFCURVE",
"74 158 OFFCURVE",
"100 117 CURVE",
"119 102 OFFCURVE",
"231 0 OFFCURVE",
"363 0 CURVE"
);
}
);
width = 691;
}
);
leftKerningGroup = O;
leftMetricsKey = O;
rightKerningGroup = C;
unicode = 0043;
},
{
color = 6;
glyphname = D;
layers = (
{
anchors = (
{
name = bottom;
position = "{362, 0}";
},
{
name = center;
position = "{362, 352}";
},
{
name = top;
position = "{362, 704}";
}
);
layerId = UUID0;
paths = (
{
closed = 1;
nodes = (
"509 18 OFFCURVE",
"573 61 OFFCURVE",
"610 103 CURVE",
"640 161 OFFCURVE",
"662 266 OFFCURVE",
"662 387 CURVE SMOOTH",
"662 470 OFFCURVE",
"652 553 OFFCURVE",
"625 614 CURVE",
"593 652 OFFCURVE",
"531 689 OFFCURVE",
"478 704 CURVE",
"104 704 LINE SMOOTH",
"92 704 OFFCURVE",
"54 685 OFFCURVE",
"43 671 CURVE",
"44 662 OFFCURVE",
"51 656 OFFCURVE",
"55 653 CURVE",
"153 653 LINE",
"145 647 OFFCURVE",
"134 620 OFFCURVE",
"134 571 CURVE SMOOTH",
"134 163 LINE SMOOTH",
"134 90 OFFCURVE",
"132 69 OFFCURVE",
"83 62 CURVE SMOOTH",
"54 58 LINE",
"50 54 OFFCURVE",
"44 45 OFFCURVE",
"44 34 CURVE",
"124 19 OFFCURVE",
"350 0 OFFCURVE",
"454 0 CURVE"
);
},
{
closed = 1;
nodes = (
"216 79 OFFCURVE",
"226 104 OFFCURVE",
"226 138 CURVE SMOOTH",
"226 572 LINE",
"226 620 OFFCURVE",
"236 654 OFFCURVE",
"284 654 CURVE SMOOTH",
"368 654 OFFCURVE",
"473 641 OFFCURVE",
"505 633 CURVE",
"551 585 OFFCURVE",
"564 495 OFFCURVE",
"564 352 CURVE SMOOTH",
"564 218 OFFCURVE",
"535 101 OFFCURVE",
"494 69 CURVE",
"208 69 LINE"
);
}
);
width = 719;
},
{
anchors = (
{
name = bottom;
position = "{373, 0}";
},
{
name = center;
position = "{373, 352}";
},
{
name = top;
position = "{373, 704}";
}
);
layerId = "C4D96FDC-31F2-4CF4-BEA5-4CCE99FECD99";
paths = (
{
closed = 1;
nodes = (
"467 0 OFFCURVE",
"582 50 OFFCURVE",
"632 99 CURVE",
"658 150 OFFCURVE",
"682 265 OFFCURVE",
"682 382 CURVE SMOOTH",
"682 468 OFFCURVE",
"669 552 OFFCURVE",
"629 624 CURVE",
"607 648 OFFCURVE",
"496 704 OFFCURVE",
"471 704 CURVE SMOOTH",
"92 704 LINE",
"80 704 OFFCURVE",
"42 685 OFFCURVE",
"31 671 CURVE",
"32 655 OFFCURVE",
"39 641 OFFCURVE",
"43 637 CURVE",
"135 637 LINE",
"134 635 OFFCURVE",
"117 621 OFFCURVE",
"117 557 CURVE SMOOTH",
"117 180 LINE SMOOTH",
"117 107 OFFCURVE",
"106 80 OFFCURVE",
"70 75 CURVE SMOOTH",
"41 71 LINE",
"37 65 OFFCURVE",
"32 51 OFFCURVE",
"32 35 CURVE",
"67 28 OFFCURVE",
"340 0 OFFCURVE",
"429 0 CURVE SMOOTH"
);
},
{
closed = 1;
nodes = (
"269 92 OFFCURVE",
"279 117 OFFCURVE",
"279 152 CURVE SMOOTH",
"279 554 LINE",
"279 605 OFFCURVE",
"290 632 OFFCURVE",
"341 632 CURVE SMOOTH",
"392 632 OFFCURVE",
"426 625 OFFCURVE",
"459 616 CURVE",
"499 578 OFFCURVE",
"518 468 OFFCURVE",
"518 358 CURVE SMOOTH",
"518 248 OFFCURVE",
"500 131 OFFCURVE",
"467 83 CURVE",
"261 83 LINE"
);
}
);
width = 729;
},
{
anchors = (
{
name = bottom;
position = "{335, 0}";
},
{
name = center;
position = "{335, 355}";
},
{
name = top;
position = "{335, 709}";
}
);
layerId = "65D1C757-52A4-41AF-B6F1-0B1906938095";
paths = (
{
closed = 1;
nodes = (
"458 8 OFFCURVE",
"515 43 OFFCURVE",
"544 77 CURVE",
"580 140 OFFCURVE",
"604 256 OFFCURVE",
"604 379 CURVE SMOOTH",
"604 478 OFFCURVE",
"590 575 OFFCURVE",
"547 647 CURVE",
"519 673 OFFCURVE",
"468 700 OFFCURVE",
"430 709 CURVE",
"102 709 LINE",
"92 709 OFFCURVE",
"60 694 OFFCURVE",
"52 687 CURVE",
"53 677 OFFCURVE",
"56 674 OFFCURVE",
"59 670 CURVE",
"131 670 LINE",
"125 662 OFFCURVE",
"118 636 OFFCURVE",
"118 599 CURVE SMOOTH",
"118 116 LINE SMOOTH",
"118 60 OFFCURVE",
"104 48 OFFCURVE",
"80 45 CURVE SMOOTH",
"57 42 LINE",
"54 38 OFFCURVE",
"50 30 OFFCURVE",
"50 23 CURVE",
"133 12 OFFCURVE",
"352 0 OFFCURVE",
"424 0 CURVE"
);
},
{
closed = 1;
nodes = (
"167 57 OFFCURVE",
"173 78 OFFCURVE",
"173 104 CURVE SMOOTH",
"173 604 LINE",
"173 658 OFFCURVE",
"185 674 OFFCURVE",
"225 674 CURVE SMOOTH",
"314 674 OFFCURVE",
"414 669 OFFCURVE",
"458 658 CURVE",
"519 621 OFFCURVE",
"544 498 OFFCURVE",
"544 367 CURVE SMOOTH",
"544 244 OFFCURVE",
"519 97 OFFCURVE",
"455 49 CURVE",
"161 49 LINE"
);
}
);
width = 664;
},
{
anchors = (
{
name = bottom;
position = "{336, 0}";
},
{
name = center;
position = "{336, 352}";
},
{
name = top;
position = "{336, 704}";
}
);
layerId = "891D9FC5-7784-4CE6-B01A-BC8B0C8DC68C";
paths = (
{
closed = 1;
nodes = (
"465 10 OFFCURVE",
"520 46 OFFCURVE",
"550 79 CURVE",
"583 141 OFFCURVE",
"606 256 OFFCURVE",
"606 380 CURVE SMOOTH",
"606 473 OFFCURVE",
"594 569 OFFCURVE",
"556 639 CURVE",
"529 667 OFFCURVE",
"477 694 OFFCURVE",
"439 704 CURVE",
"104 704 LINE",
"94 704 OFFCURVE",
"60 688 OFFCURVE",
"52 678 CURVE",
"52 676 OFFCURVE",
"56 664 OFFCURVE",
"60 661 CURVE",
"137 661 LINE",
"132 654 OFFCURVE",
"123 631 OFFCURVE",
"123 587 CURVE SMOOTH",
"123 130 LINE SMOOTH",
"123 72 OFFCURVE",
"114 54 OFFCURVE",
"82 50 CURVE SMOOTH",
"59 47 LINE",
"56 43 OFFCURVE",
"51 35 OFFCURVE",
"51 26 CURVE",
"129 14 OFFCURVE",
"351 0 OFFCURVE",
"427 0 CURVE"
);
},
{
closed = 1;
nodes = (
"181 62 OFFCURVE",
"189 84 OFFCURVE",
"189 114 CURVE SMOOTH",
"189 592 LINE",
"189 643 OFFCURVE",
"200 665 OFFCURVE",
"241 665 CURVE SMOOTH",
"323 665 OFFCURVE",
"424 657 OFFCURVE",
"460 648 CURVE",
"516 606 OFFCURVE",
"535 489 OFFCURVE",
"535 360 CURVE SMOOTH",
"535 246 OFFCURVE",
"513 101 OFFCURVE",
"455 54 CURVE",
"176 54 LINE"
);
}
);
width = 667;
},
{
anchors = (
{
name = bottom;
position = "{391, 0}";
},
{
name = center;
position = "{391, 352}";
},
{
name = top;
position = "{391, 704}";
}
);
layerId = "FC63F3C5-4BD2-445A-988E-6411A2DDD46F";
paths = (
{
closed = 1;
nodes = (
"530 11 OFFCURVE",
"610 54 OFFCURVE",
"650 95 CURVE",
"681 152 OFFCURVE",
"705 263 OFFCURVE",
"705 385 CURVE SMOOTH",
"705 465 OFFCURVE",
"695 554 OFFCURVE",
"658 624 CURVE",
"630 654 OFFCURVE",
"555 694 OFFCURVE",
"511 704 CURVE",
"116 704 LINE SMOOTH",
"103 704 OFFCURVE",
"64 685 OFFCURVE",
"53 671 CURVE",
"54 662 OFFCURVE",
"60 653 OFFCURVE",
"65 648 CURVE",
"162 648 LINE",
"157 645 OFFCURVE",
"143 623 OFFCURVE",
"143 568 CURVE SMOOTH",
"143 166 LINE SMOOTH",
"143 86 OFFCURVE",
"132 70 OFFCURVE",
"93 65 CURVE SMOOTH",
"64 61 LINE",
"59 56 OFFCURVE",
"54 45 OFFCURVE",
"54 34 CURVE",
"130 21 OFFCURVE",
"384 1 OFFCURVE",
"483 0 CURVE"
);
},
{
closed = 1;
nodes = (
"245 82 OFFCURVE",
"255 108 OFFCURVE",
"255 140 CURVE SMOOTH",
"255 568 LINE",
"255 616 OFFCURVE",
"266 648 OFFCURVE",
"316 648 CURVE SMOOTH",
"392 648 OFFCURVE",
"483 638 OFFCURVE",
"522 629 CURVE",
"573 583 OFFCURVE",
"588 479 OFFCURVE",
"588 354 CURVE SMOOTH",
"588 230 OFFCURVE",
"562 110 OFFCURVE",
"517 72 CURVE",
"237 72 LINE"
);
}
);
width = 773;
},
{
anchors = (
{
name = bottom;
position = "{398, 0}";
},
{
name = center;
position = "{398, 352}";
},
{
name = top;
position = "{398, 704}";
}
);
layerId = "B67CA61C-C7DB-4511-8D93-FE28BE810A6B";
paths = (
{
closed = 1;
nodes = (
"485 -7 OFFCURVE",
"609 37 OFFCURVE",
"661 84 CURVE",
"687 130 OFFCURVE",
"716 252 OFFCURVE",
"716 376 CURVE SMOOTH",
"716 473 OFFCURVE",
"699 562 OFFCURVE",
"648 644 CURVE",
"630 658 OFFCURVE",
"508 708 OFFCURVE",
"496 708 CURVE SMOOTH",
"103 708 LINE",
"91 704 OFFCURVE",
"52 687 OFFCURVE",
"43 675 CURVE",
"44 661 OFFCURVE",
"50 642 OFFCURVE",
"54 635 CURVE",
"140 635 LINE",
"141 634 OFFCURVE",
"124 626 OFFCURVE",
"124 561 CURVE SMOOTH",
"124 169 LINE SMOOTH",
"124 111 OFFCURVE",
"109 77 OFFCURVE",
"80 74 CURVE SMOOTH",
"51 71 LINE",
"48 65 OFFCURVE",
"43 48 OFFCURVE",
"43 32 CURVE",
"72 29 OFFCURVE",
"368 6 OFFCURVE",
"451 -3 CURVE SMOOTH"
);
},
{
closed = 1;
nodes = (
"290 89 OFFCURVE",
"299 114 OFFCURVE",
"299 144 CURVE SMOOTH",
"299 558 LINE",
"299 613 OFFCURVE",
"312 629 OFFCURVE",
"363 629 CURVE SMOOTH",
"407 629 OFFCURVE",
"429 628 OFFCURVE",
"467 618 CURVE",
"514 586 OFFCURVE",
"539 455 OFFCURVE",
"539 364 CURVE SMOOTH",
"539 266 OFFCURVE",
"524 141 OFFCURVE",
"483 81 CURVE",
"283 81 LINE"
);
}
);
width = 774;
}
);
leftKerningGroup = H;
leftMetricsKey = H;
rightKerningGroup = O;
rightMetricsKey = O;
unicode = 0044;
},
{
color = 3;
glyphname = Eth;
layers = (
{
components = (
{
name = D;
}
);
layerId = UUID0;
paths = (
{
closed = 1;
nodes = (
"431 325 LINE",
"435 334 OFFCURVE",
"441 358 OFFCURVE",
"442 387 CURVE",
"433 395 LINE",
"375 388 OFFCURVE",
"303 382 OFFCURVE",
"226 382 CURVE",
"134 377 LINE",
"57 375 LINE",
"52 372 OFFCURVE",
"46 358 OFFCURVE",
"46 327 CURVE",
"134 327 LINE",
"226 325 LINE"
);
}
);
width = 719;
},
{
components = (
{
name = D;
}
);
layerId = "65D1C757-52A4-41AF-B6F1-0B1906938095";
paths = (
{
closed = 1;
nodes = (
"392 341 LINE",
"396 348 OFFCURVE",
"402 363 OFFCURVE",
"404 380 CURVE",
"398 387 LINE",
"341 382 OFFCURVE",
"276 378 OFFCURVE",
"174 375 CURVE",
"123 374 LINE",
"62 374 LINE",
"58 370 OFFCURVE",
"54 360 OFFCURVE",
"54 340 CURVE",
"123 340 LINE",
"174 341 LINE"
);
}
);
width = 664;
},
{
components = (
{
name = D;
}
);
layerId = "C4D96FDC-31F2-4CF4-BEA5-4CCE99FECD99";
paths = (
{
closed = 1;
nodes = (
"456 319 LINE",
"460 330 OFFCURVE",
"466 355 OFFCURVE",
"467 384 CURVE",
"453 400 LINE",
"399 393 OFFCURVE",
"344 388 OFFCURVE",
"277 387 CURVE",
"121 381 LINE",
"45 381 LINE",
"39 370 OFFCURVE",
"34 341 OFFCURVE",
"34 313 CURVE",
"121 313 LINE",
"277 319 LINE"
);
}
);
width = 729;
},
{
components = (
{
name = D;
}
);
layerId = "891D9FC5-7784-4CE6-B01A-BC8B0C8DC68C";
paths = (
{
closed = 1;
nodes = (
"392 341 LINE",
"396 348 OFFCURVE",
"402 363 OFFCURVE",
"404 380 CURVE",
"398 387 LINE",
"341 382 OFFCURVE",
"276 378 OFFCURVE",
"174 375 CURVE",
"123 374 LINE",
"62 374 LINE",
"58 370 OFFCURVE",
"54 360 OFFCURVE",
"54 340 CURVE",
"123 340 LINE",
"174 341 LINE"
);
}
);
width = 667;
},
{
components = (
{
name = D;
transform = "{1, 0, 0, 1, 7, 0}";
}
);
layerId = "FC63F3C5-4BD2-445A-988E-6411A2DDD46F";
paths = (
{
closed = 1;
nodes = (
"438 325 LINE",
"442 334 OFFCURVE",
"448 358 OFFCURVE",
"449 387 CURVE",
"440 395 LINE",
"382 388 OFFCURVE",
"310 382 OFFCURVE",
"233 382 CURVE",
"141 377 LINE",
"64 375 LINE",
"59 372 OFFCURVE",
"53 358 OFFCURVE",
"53 327 CURVE",
"141 327 LINE",
"233 325 LINE"
);
}
);
width = 780;
},
{
components = (
{
name = D;
transform = "{1, 0, 0, 1, 9, 0}";
}
);
layerId = "B67CA61C-C7DB-4511-8D93-FE28BE810A6B";
paths = (
{
closed = 1;
nodes = (
"465 319 LINE",
"469 330 OFFCURVE",
"475 355 OFFCURVE",
"476 384 CURVE",
"462 400 LINE",
"408 393 OFFCURVE",
"353 388 OFFCURVE",
"286 387 CURVE",
"130 381 LINE",
"54 381 LINE",
"48 370 OFFCURVE",
"43 341 OFFCURVE",
"43 313 CURVE",
"130 313 LINE",
"286 319 LINE"
);
}
);
width = 783;
}
);
leftKerningGroup = H;
leftMetricsKey = H;
rightKerningGroup = O;
rightMetricsKey = O;
unicode = 00D0;
},
{
color = 6;
glyphname = E;
layers = (
{
anchors = (
{
name = bottom;
position = "{319, 0}";
},
{
name = ogonek;
position = "{564, 0}";
},
{
name = top;
position = "{339, 704}";
},
{
name = topleft;
position = "{104, 704}";
}
);
layerId = UUID0;
paths = (
{
closed = 1;
nodes = (
"509 0 OFFCURVE",
"553 29 OFFCURVE",
"570 46 CURVE",
"576 85 OFFCURVE",
"583 158 OFFCURVE",
"583 216 CURVE",
"576 223 OFFCURVE",
"558 232 OFFCURVE",
"535 232 CURVE",
"485 69 LINE",
"208 69 LINE",
"216 79 OFFCURVE",
"226 104 OFFCURVE",
"226 138 CURVE SMOOTH",
"226 334 LINE",
"439 334 LINE",
"443 343 OFFCURVE",
"449 367 OFFCURVE",
"450 396 CURVE",
"441 404 LINE",
"383 397 OFFCURVE",
"303 391 OFFCURVE",
"226 391 CURVE",
"226 572 LINE SMOOTH",
"226 620 OFFCURVE",
"236 654 OFFCURVE",
"284 654 CURVE SMOOTH",
"356 654 OFFCURVE",
"437 644 OFFCURVE",
"478 637 CURVE",
"502 500 LINE",
"508 496 OFFCURVE",
"526 490 OFFCURVE",
"552 490 CURVE",
"561 515 OFFCURVE",
"576 575 OFFCURVE",
"580 649 CURVE",
"560 671 OFFCURVE",
"519 694 OFFCURVE",
"485 704 CURVE",
"104 704 LINE SMOOTH",
"92 704 OFFCURVE",
"54 685 OFFCURVE",
"43 671 CURVE",
"44 662 OFFCURVE",
"51 656 OFFCURVE",
"55 653 CURVE",
"153 653 LINE",
"145 647 OFFCURVE",
"134 620 OFFCURVE",
"134 571 CURVE SMOOTH",
"134 163 LINE SMOOTH",
"134 90 OFFCURVE",
"132 69 OFFCURVE",
"83 62 CURVE SMOOTH",
"54 58 LINE",
"50 54 OFFCURVE",
"44 45 OFFCURVE",
"44 34 CURVE",
"123 19 OFFCURVE",
"387 0 OFFCURVE",
"489 0 CURVE SMOOTH"
);
}
);
width = 643;
},
{
anchors = (
{
name = bottom;
position = "{333, 0}";
},
{
name = ogonek;
position = "{589, 0}";
},
{
name = top;
position = "{353, 704}";
},
{
name = topleft;
position = "{92, 704}";
}
);
layerId = "C4D96FDC-31F2-4CF4-BEA5-4CCE99FECD99";
paths = (
{
closed = 1;
nodes = (
"567 0 OFFCURVE",
"603 29 OFFCURVE",
"614 46 CURVE",
"622 86 OFFCURVE",
"634 167 OFFCURVE",
"634 249 CURVE",
"619 257 OFFCURVE",
"585 268 OFFCURVE",
"547 268 CURVE",
"475 83 LINE",
"261 83 LINE",
"269 92 OFFCURVE",
"279 117 OFFCURVE",
"279 152 CURVE SMOOTH",
"279 327 LINE",
"467 327 LINE",
"471 338 OFFCURVE",
"476 367 OFFCURVE",
"478 393 CURVE",
"463 409 LINE",
"405 402 OFFCURVE",
"356 398 OFFCURVE",
"279 396 CURVE",
"279 556 LINE SMOOTH",
"279 594 OFFCURVE",
"286 632 OFFCURVE",
"335 632 CURVE SMOOTH",
"421 632 OFFCURVE",
"472 621 OFFCURVE",
"485 613 CURVE",
"513 467 LINE",
"528 461 OFFCURVE",
"562 452 OFFCURVE",
"595 452 CURVE",
"604 483 OFFCURVE",
"621 553 OFFCURVE",
"626 642 CURVE",
"618 666 OFFCURVE",
"599 692 OFFCURVE",
"584 704 CURVE",
"92 704 LINE SMOOTH",
"81 704 OFFCURVE",
"42 685 OFFCURVE",
"31 671 CURVE",
"32 655 OFFCURVE",
"39 641 OFFCURVE",
"43 637 CURVE",
"135 637 LINE",
"134 635 OFFCURVE",
"117 621 OFFCURVE",
"117 557 CURVE SMOOTH",
"117 180 LINE SMOOTH",
"117 107 OFFCURVE",
"106 80 OFFCURVE",
"70 75 CURVE SMOOTH",
"41 71 LINE",
"37 65 OFFCURVE",
"32 51 OFFCURVE",
"32 35 CURVE",
"129 18 OFFCURVE",
"456 0 OFFCURVE",
"554 0 CURVE SMOOTH"
);
}
);
width = 678;
},
{
anchors = (
{
name = bottom;
position = "{281, 0}";
},
{
name = ogonek;
position = "{522, 0}";
},
{
name = top;
position = "{301, 709}";
},
{
name = topleft;
position = "{102, 709}";
}
);
layerId = "65D1C757-52A4-41AF-B6F1-0B1906938095";
paths = (
{
closed = 1;
nodes = (
"459 4 OFFCURVE",
"492 19 OFFCURVE",
"509 34 CURVE",
"514 103 OFFCURVE",
"515 164 OFFCURVE",
"515 188 CURVE",
"512 191 OFFCURVE",
"500 197 OFFCURVE",
"488 197 CURVE",
"445 49 LINE",
"161 49 LINE",
"167 57 OFFCURVE",
"173 78 OFFCURVE",
"173 104 CURVE SMOOTH",
"173 352 LINE",
"392 352 LINE",
"396 359 OFFCURVE",
"401 372 OFFCURVE",
"404 392 CURVE",
"398 399 LINE",
"340 394 OFFCURVE",
"273 390 OFFCURVE",
"173 387 CURVE",
"173 604 LINE SMOOTH",
"173 652 OFFCURVE",
"182 674 OFFCURVE",
"233 674 CURVE SMOOTH",
"295 674 OFFCURVE",
"387 669 OFFCURVE",
"438 663 CURVE",
"457 520 LINE",
"461 517 OFFCURVE",
"473 514 OFFCURVE",
"485 514 CURVE",
"493 545 OFFCURVE",
"505 610 OFFCURVE",
"509 675 CURVE",
"494 688 OFFCURVE",
"469 700 OFFCURVE",
"445 709 CURVE",
"102 709 LINE SMOOTH",
"92 709 OFFCURVE",
"60 694 OFFCURVE",
"52 687 CURVE",
"53 677 OFFCURVE",
"56 674 OFFCURVE",
"59 670 CURVE",
"131 670 LINE",
"125 662 OFFCURVE",
"118 636 OFFCURVE",
"118 599 CURVE SMOOTH",
"118 116 LINE SMOOTH",
"118 60 OFFCURVE",
"104 48 OFFCURVE",
"80 45 CURVE SMOOTH",
"57 42 LINE",
"54 38 OFFCURVE",
"50 30 OFFCURVE",
"50 23 CURVE",
"132 12 OFFCURVE",
"370 0 OFFCURVE",
"442 0 CURVE"
);
}
);
width = 561;
},
{
anchors = (
{
name = bottom;
position = "{288, 0}";
},
{
name = ogonek;
position = "{522, 0}";
},
{
name = top;
position = "{307, 704}";
},
{
name = topleft;
position = "{104, 704}";
}
);
layerId = "891D9FC5-7784-4CE6-B01A-BC8B0C8DC68C";
paths = (
{
closed = 1;
nodes = (
"465 4 OFFCURVE",
"497 21 OFFCURVE",
"516 38 CURVE",
"521 102 OFFCURVE",
"524 163 OFFCURVE",
"524 196 CURVE",
"519 200 OFFCURVE",
"506 207 OFFCURVE",
"491 207 CURVE",
"446 54 LINE",
"176 54 LINE",
"181 62 OFFCURVE",
"189 84 OFFCURVE",
"189 114 CURVE SMOOTH",
"189 341 LINE",
"399 341 LINE",
"402 349 OFFCURVE",
"407 370 OFFCURVE",
"410 391 CURVE",
"403 399 LINE",
"344 394 OFFCURVE",
"277 391 OFFCURVE",
"189 389 CURVE",
"189 592 LINE SMOOTH",
"189 632 OFFCURVE",
"194 665 OFFCURVE",
"246 665 CURVE SMOOTH",
"313 665 OFFCURVE",
"395 658 OFFCURVE",
"440 652 CURVE",
"460 512 LINE",
"464 508 OFFCURVE",
"478 504 OFFCURVE",
"494 504 CURVE",
"502 533 OFFCURVE",
"514 595 OFFCURVE",
"518 664 CURVE",
"503 679 OFFCURVE",
"478 694 OFFCURVE",
"447 704 CURVE",
"104 704 LINE SMOOTH",
"94 704 OFFCURVE",
"60 688 OFFCURVE",
"52 679 CURVE",
"53 668 OFFCURVE",
"58 664 OFFCURVE",
"60 661 CURVE",
"137 661 LINE",
"132 654 OFFCURVE",
"123 633 OFFCURVE",
"123 587 CURVE SMOOTH",
"123 130 LINE SMOOTH",
"123 71 OFFCURVE",
"114 54 OFFCURVE",
"82 50 CURVE SMOOTH",
"59 47 LINE",
"56 43 OFFCURVE",
"51 35 OFFCURVE",
"51 27 CURVE",
"138 13 OFFCURVE",
"373 0 OFFCURVE",
"447 0 CURVE"
);
}
);
width = 577;
},
{
anchors = (
{
name = bottom;
position = "{343, 0}";
},
{
name = ogonek;
position = "{603, 0}";
},
{
name = top;
position = "{364, 704}";
},
{
name = topleft;
position = "{116, 704}";
}
);
layerId = "FC63F3C5-4BD2-445A-988E-6411A2DDD46F";
paths = (
{
closed = 1;
nodes = (
"549 0 OFFCURVE",
"595 28 OFFCURVE",
"612 46 CURVE",
"619 86 OFFCURVE",
"626 164 OFFCURVE",
"626 224 CURVE",
"619 231 OFFCURVE",
"595 241 OFFCURVE",
"568 241 CURVE",
"510 72 LINE",
"237 72 LINE",
"245 82 OFFCURVE",
"255 108 OFFCURVE",
"255 140 CURVE SMOOTH",
"255 329 LINE",
"472 329 LINE",
"476 339 OFFCURVE",
"481 365 OFFCURVE",
"484 394 CURVE",
"473 405 LINE",
"418 399 OFFCURVE",
"346 393 OFFCURVE",
"255 392 CURVE",
"255 568 LINE SMOOTH",
"255 608 OFFCURVE",
"263 648 OFFCURVE",
"316 648 CURVE SMOOTH",
"394 648 OFFCURVE",
"470 638 OFFCURVE",
"508 631 CURVE",
"533 490 LINE",
"543 486 OFFCURVE",
"565 480 OFFCURVE",
"592 480 CURVE",
"601 507 OFFCURVE",
"616 568 OFFCURVE",
"622 648 CURVE",
"601 670 OFFCURVE",
"563 692 OFFCURVE",
"527 704 CURVE",
"116 704 LINE SMOOTH",
"103 704 OFFCURVE",
"64 685 OFFCURVE",
"53 671 CURVE",
"54 662 OFFCURVE",
"60 653 OFFCURVE",
"65 648 CURVE",
"162 648 LINE",
"157 645 OFFCURVE",
"143 623 OFFCURVE",
"143 568 CURVE SMOOTH",
"143 166 LINE SMOOTH",
"143 86 OFFCURVE",
"132 70 OFFCURVE",
"93 65 CURVE SMOOTH",
"64 61 LINE",
"59 56 OFFCURVE",
"54 45 OFFCURVE",
"54 34 CURVE",
"135 19 OFFCURVE",
"429 0 OFFCURVE",
"530 0 CURVE SMOOTH"
);
}
);
width = 692;
},
{
anchors = (
{
name = bottom;
position = "{350, 0}";
},
{
name = ogonek;
position = "{621, 0}";
},
{
name = top;
position = "{371, 704}";
},
{
name = topleft;
position = "{103, 704}";
}
);
layerId = "B67CA61C-C7DB-4511-8D93-FE28BE810A6B";
paths = (
{
closed = 1;
nodes = (
"593 0 OFFCURVE",
"636 27 OFFCURVE",
"645 42 CURVE",
"654 90 OFFCURVE",
"665 175 OFFCURVE",
"665 251 CURVE",
"651 258 OFFCURVE",
"610 269 OFFCURVE",
"571 269 CURVE",
"492 81 LINE",
"283 81 LINE",
"290 89 OFFCURVE",
"299 114 OFFCURVE",
"299 144 CURVE SMOOTH",
"299 324 LINE",
"491 324 LINE",
"497 341 OFFCURVE",
"500 358 OFFCURVE",
"503 390 CURVE",
"488 409 LINE",
"419 401 OFFCURVE",
"377 399 OFFCURVE",
"299 396 CURVE",
"299 561 LINE SMOOTH",
"299 601 OFFCURVE",
"309 629 OFFCURVE",
"358 629 CURVE SMOOTH",
"450 629 OFFCURVE",
"496 620 OFFCURVE",
"508 611 CURVE",
"536 460 LINE",
"559 452 OFFCURVE",
"595 445 OFFCURVE",
"623 445 CURVE",
"633 484 OFFCURVE",
"649 557 OFFCURVE",
"656 648 CURVE",
"640 670 OFFCURVE",
"607 693 OFFCURVE",
"583 704 CURVE",
"103 704 LINE SMOOTH",
"92 704 OFFCURVE",
"54 687 OFFCURVE",
"43 675 CURVE",
"44 658 OFFCURVE",
"50 641 OFFCURVE",
"54 635 CURVE",
"140 635 LINE",
"141 634 OFFCURVE",
"124 626 OFFCURVE",
"124 561 CURVE SMOOTH",
"124 169 LINE SMOOTH",
"124 111 OFFCURVE",
"109 77 OFFCURVE",
"80 74 CURVE SMOOTH",
"51 71 LINE",
"48 65 OFFCURVE",
"43 48 OFFCURVE",
"43 32 CURVE",
"137 15 OFFCURVE",
"516 0 OFFCURVE",
"582 0 CURVE SMOOTH"
);
}
);
width = 712;
}
);
leftKerningGroup = H;
leftMetricsKey = H;
rightKerningGroup = E;
unicode = 0045;
},
{
color = 6;
glyphname = F;
layers = (
{
anchors = (
{
name = bottom;
position = "{298, 0}";
},
{
name = top;
position = "{298, 704}";
}
);
layerId = UUID0;
paths = (
{
closed = 1;
nodes = (
"267 0 OFFCURVE",
"302 16 OFFCURVE",
"321 34 CURVE",
"321 45 OFFCURVE",
"317 53 OFFCURVE",
"314 56 CURVE",
"208 67 LINE",
"216 76 OFFCURVE",
"226 101 OFFCURVE",
"226 135 CURVE SMOOTH",
"226 324 LINE",
"449 324 LINE",
"453 333 OFFCURVE",
"459 357 OFFCURVE",
"460 386 CURVE",
"451 394 LINE",
"393 387 OFFCURVE",
"303 381 OFFCURVE",
"226 381 CURVE",
"226 572 LINE SMOOTH",
"226 620 OFFCURVE",
"236 654 OFFCURVE",
"284 654 CURVE SMOOTH",
"356 654 OFFCURVE",
"433 645 OFFCURVE",
"471 638 CURVE",
"495 500 LINE",
"501 496 OFFCURVE",
"519 490 OFFCURVE",
"545 490 CURVE",
"554 515 OFFCURVE",
"569 575 OFFCURVE",
"573 649 CURVE",
"553 671 OFFCURVE",
"512 694 OFFCURVE",
"478 704 CURVE",
"104 704 LINE SMOOTH",
"92 704 OFFCURVE",
"54 685 OFFCURVE",
"43 671 CURVE",
"44 662 OFFCURVE",
"51 656 OFFCURVE",
"55 653 CURVE",
"153 653 LINE",
"145 647 OFFCURVE",
"134 620 OFFCURVE",
"134 571 CURVE SMOOTH",
"134 164 LINE SMOOTH",
"134 92 OFFCURVE",
"132 69 OFFCURVE",
"83 62 CURVE SMOOTH",
"54 58 LINE",
"50 54 OFFCURVE",
"44 45 OFFCURVE",
"44 34 CURVE",
"72 24 OFFCURVE",
"217 0 OFFCURVE",
"242 0 CURVE SMOOTH"
);
}
);
width = 595;
},
{
anchors = (
{
name = bottom;
position = "{309, 0}";
},
{
name = top;
position = "{309, 704}";
}
);
layerId = "C4D96FDC-31F2-4CF4-BEA5-4CCE99FECD99";
paths = (
{
closed = 1;
nodes = (
"309 0 OFFCURVE",
"355 17 OFFCURVE",
"374 35 CURVE",
"374 50 OFFCURVE",
"369 64 OFFCURVE",
"366 69 CURVE",
"261 83 LINE",
"268 91 OFFCURVE",
"279 115 OFFCURVE",
"279 152 CURVE SMOOTH",
"279 317 LINE",
"461 317 LINE",
"465 328 OFFCURVE",
"471 354 OFFCURVE",
"472 383 CURVE",
"458 399 LINE",
"399 392 OFFCURVE",
"356 388 OFFCURVE",
"279 386 CURVE",
"279 552 LINE SMOOTH",
"279 606 OFFCURVE",
"291 632 OFFCURVE",
"338 632 CURVE SMOOTH",
"424 632 OFFCURVE",
"467 621 OFFCURVE",
"475 613 CURVE",
"503 467 LINE",
"521 460 OFFCURVE",
"553 452 OFFCURVE",
"585 452 CURVE",
"595 485 OFFCURVE",
"611 559 OFFCURVE",
"616 642 CURVE",
"599 668 OFFCURVE",
"566 693 OFFCURVE",
"542 704 CURVE",
"92 704 LINE SMOOTH",
"81 704 OFFCURVE",
"42 685 OFFCURVE",
"31 671 CURVE",
"32 655 OFFCURVE",
"39 641 OFFCURVE",
"43 637 CURVE",
"135 637 LINE",
"134 635 OFFCURVE",
"117 621 OFFCURVE",
"117 557 CURVE",
"117 180 LINE SMOOTH",
"117 107 OFFCURVE",
"106 80 OFFCURVE",
"70 75 CURVE SMOOTH",
"41 71 LINE",
"37 65 OFFCURVE",
"32 50 OFFCURVE",
"32 35 CURVE",
"60 25 OFFCURVE",
"263 0 OFFCURVE",
"285 0 CURVE SMOOTH"
);
}
);
width = 618;
},
{
anchors = (
{
name = bottom;
position = "{267, 0}";
},
{
name = top;
position = "{267, 709}";
}
);
layerId = "65D1C757-52A4-41AF-B6F1-0B1906938095";
paths = (
{
closed = 1;
nodes = (
"197 0 OFFCURVE",
"224 9 OFFCURVE",
"246 23 CURVE",
"245 30 OFFCURVE",
"242 36 OFFCURVE",
"240 40 CURVE",
"160 48 LINE",
"165 54 OFFCURVE",
"173 75 OFFCURVE",
"173 104 CURVE SMOOTH",
"173 342 LINE",
"393 342 LINE",
"397 349 OFFCURVE",
"401 363 OFFCURVE",
"405 382 CURVE",
"399 389 LINE",
"342 384 OFFCURVE",
"279 380 OFFCURVE",
"173 377 CURVE",
"173 605 LINE SMOOTH",
"173 652 OFFCURVE",
"182 674 OFFCURVE",
"233 674 CURVE SMOOTH",
"297 674 OFFCURVE",
"377 669 OFFCURVE",
"428 663 CURVE",
"447 520 LINE",
"452 517 OFFCURVE",
"462 514 OFFCURVE",
"475 514 CURVE",
"482 540 OFFCURVE",
"495 604 OFFCURVE",
"499 675 CURVE",
"485 688 OFFCURVE",
"456 701 OFFCURVE",
"435 709 CURVE",
"102 709 LINE SMOOTH",
"92 709 OFFCURVE",
"60 694 OFFCURVE",
"52 687 CURVE",
"53 677 OFFCURVE",
"56 674 OFFCURVE",
"59 670 CURVE",
"131 670 LINE",
"125 662 OFFCURVE",
"118 636 OFFCURVE",
"118 599 CURVE SMOOTH",
"118 116 LINE SMOOTH",
"118 60 OFFCURVE",
"104 46 OFFCURVE",
"80 43 CURVE SMOOTH",
"57 40 LINE",
"54 37 OFFCURVE",
"50 30 OFFCURVE",
"50 23 CURVE",
"78 14 OFFCURVE",
"156 0 OFFCURVE",
"177 0 CURVE SMOOTH"
);
}
);
width = 533;
},
{
anchors = (
{
name = bottom;
position = "{272, 0}";
},
{
name = top;
position = "{272, 704}";
}
);
layerId = "891D9FC5-7784-4CE6-B01A-BC8B0C8DC68C";
paths = (
{
closed = 1;
nodes = (
"217 0 OFFCURVE",
"246 11 OFFCURVE",
"265 26 CURVE",
"265 34 OFFCURVE",
"262 42 OFFCURVE",
"259 45 CURVE",
"175 53 LINE",
"181 61 OFFCURVE",
"189 84 OFFCURVE",
"189 113 CURVE SMOOTH",
"189 331 LINE",
"401 331 LINE",
"406 339 OFFCURVE",
"410 360 OFFCURVE",
"413 381 CURVE",
"406 389 LINE",
"347 384 OFFCURVE",
"278 381 OFFCURVE",
"189 379 CURVE",
"189 592 LINE SMOOTH",
"189 637 OFFCURVE",
"197 665 OFFCURVE",
"246 665 CURVE SMOOTH",
"306 665 OFFCURVE",
"384 659 OFFCURVE",
"431 652 CURVE",
"451 512 LINE",
"456 508 OFFCURVE",
"469 504 OFFCURVE",
"486 504 CURVE",
"493 533 OFFCURVE",
"505 591 OFFCURVE",
"510 664 CURVE",
"495 679 OFFCURVE",
"465 694 OFFCURVE",
"439 704 CURVE",
"104 704 LINE SMOOTH",
"94 704 OFFCURVE",
"60 688 OFFCURVE",
"52 678 CURVE",
"52 676 OFFCURVE",
"56 664 OFFCURVE",
"60 661 CURVE",
"137 661 LINE",
"132 654 OFFCURVE",
"123 631 OFFCURVE",
"123 587 CURVE SMOOTH",
"123 130 LINE SMOOTH",
"123 66 OFFCURVE",
"111 53 OFFCURVE",
"83 49 CURVE SMOOTH",
"59 46 LINE",
"56 42 OFFCURVE",
"51 35 OFFCURVE",
"51 26 CURVE",
"81 16 OFFCURVE",
"177 0 OFFCURVE",
"196 0 CURVE SMOOTH"
);
}
);
width = 544;
},
{
anchors = (
{
name = bottom;
position = "{321, 0}";
},
{
name = top;
position = "{321, 704}";
}
);
layerId = "FC63F3C5-4BD2-445A-988E-6411A2DDD46F";
paths = (
{
closed = 1;
nodes = (
"294 0 OFFCURVE",
"333 18 OFFCURVE",
"351 34 CURVE",
"351 45 OFFCURVE",
"347 55 OFFCURVE",
"343 59 CURVE",
"237 71 LINE",
"245 80 OFFCURVE",
"255 106 OFFCURVE",
"255 139 CURVE SMOOTH",
"255 319 LINE",
"476 319 LINE",
"480 329 OFFCURVE",
"486 350 OFFCURVE",
"488 384 CURVE",
"478 395 LINE",
"420 389 OFFCURVE",
"346 383 OFFCURVE",
"255 382 CURVE",
"255 567 LINE SMOOTH",
"255 610 OFFCURVE",
"263 648 OFFCURVE",
"316 648 CURVE SMOOTH",
"392 648 OFFCURVE",
"464 639 OFFCURVE",
"499 631 CURVE",
"524 490 LINE",
"535 485 OFFCURVE",
"560 480 OFFCURVE",
"584 480 CURVE",
"593 507 OFFCURVE",
"608 574 OFFCURVE",
"613 648 CURVE",
"593 670 OFFCURVE",
"554 692 OFFCURVE",
"518 704 CURVE",
"116 704 LINE SMOOTH",
"103 704 OFFCURVE",
"64 685 OFFCURVE",
"53 671 CURVE",
"54 662 OFFCURVE",
"60 653 OFFCURVE",
"65 648 CURVE",
"162 648 LINE",
"157 645 OFFCURVE",
"143 623 OFFCURVE",
"143 568 CURVE SMOOTH",
"143 167 LINE SMOOTH",
"143 78 OFFCURVE",
"128 70 OFFCURVE",
"93 65 CURVE SMOOTH",
"64 61 LINE",
"59 56 OFFCURVE",
"54 45 OFFCURVE",
"54 34 CURVE",
"83 24 OFFCURVE",
"242 0 OFFCURVE",
"267 0 CURVE SMOOTH"
);
}
);
width = 642;
},
{
anchors = (
{
name = bottom;
position = "{328, 0}";
},
{
name = top;
position = "{328, 704}";
}
);
layerId = "B67CA61C-C7DB-4511-8D93-FE28BE810A6B";
paths = (
{
closed = 1;
nodes = (
"323 0 OFFCURVE",
"370 15 OFFCURVE",
"391 32 CURVE",
"390 51 OFFCURVE",
"384 62 OFFCURVE",
"382 69 CURVE",
"282 83 LINE",
"290 91 OFFCURVE",
"299 115 OFFCURVE",
"299 147 CURVE SMOOTH",
"299 314 LINE",
"478 314 LINE",
"482 327 OFFCURVE",
"487 352 OFFCURVE",
"490 380 CURVE",
"474 399 LINE",
"417 392 OFFCURVE",
"381 390 OFFCURVE",
"299 386 CURVE",
"299 555 LINE SMOOTH",
"299 610 OFFCURVE",
"309 629 OFFCURVE",
"362 629 CURVE SMOOTH",
"452 629 OFFCURVE",
"491 619 OFFCURVE",
"495 610 CURVE",
"524 460 LINE",
"542 453 OFFCURVE",
"582 445 OFFCURVE",
"611 445 CURVE",
"621 484 OFFCURVE",
"637 563 OFFCURVE",
"643 648 CURVE",
"624 673 OFFCURVE",
"594 693 OFFCURVE",
"571 704 CURVE",
"103 704 LINE SMOOTH",
"92 704 OFFCURVE",
"53 686 OFFCURVE",
"43 675 CURVE",
"44 661 OFFCURVE",
"50 642 OFFCURVE",
"54 635 CURVE",
"140 635 LINE",
"141 634 OFFCURVE",
"124 626 OFFCURVE",
"124 561 CURVE",
"124 169 LINE SMOOTH",
"124 101 OFFCURVE",
"104 77 OFFCURVE",
"80 74 CURVE SMOOTH",
"51 70 LINE",
"47 63 OFFCURVE",
"43 45 OFFCURVE",
"43 32 CURVE",
"73 22 OFFCURVE",
"274 0 OFFCURVE",
"298 0 CURVE SMOOTH"
);
}
);
width = 654;
}
);
leftKerningGroup = H;
leftMetricsKey = H;
rightKerningGroup = F;
unicode = 0046;
},
{
color = 6;
glyphname = G;
layers = (
{
anchors = (
{
name = bottom;
position = "{341, 0}";
},
{
name = top;
position = "{351, 704}";
}
);
layerId = UUID0;
paths = (
{
closed = 1;
nodes = (
"451 0 OFFCURVE",
"553 41 OFFCURVE",
"591 66 CURVE",
"591 120 LINE SMOOTH",
"591 216 OFFCURVE",
"600 310 OFFCURVE",
"606 354 CURVE",
"597 362 LINE",
"538 355 OFFCURVE",
"453 349 OFFCURVE",
"376 349 CURVE",
"370 340 OFFCURVE",
"361 317 OFFCURVE",
"361 291 CURVE",
"514 291 LINE",
"509 274 OFFCURVE",
"502 233 OFFCURVE",
"502 186 CURVE SMOOTH",
"502 90 LINE",
"469 80 OFFCURVE",
"422 69 OFFCURVE",
"356 69 CURVE SMOOTH",
"314 69 OFFCURVE",
"217 112 OFFCURVE",
"188 143 CURVE",
"167 183 OFFCURVE",
"154 261 OFFCURVE",
"154 355 CURVE SMOOTH",
"154 451 OFFCURVE",
"168 551 OFFCURVE",
"191 610 CURVE",
"232 633 OFFCURVE",
"313 651 OFFCURVE",
"355 651 CURVE SMOOTH",
"387 651 OFFCURVE",
"457 631 OFFCURVE",
"480 620 CURVE",
"499 500 LINE",
"505 496 OFFCURVE",
"522 490 OFFCURVE",
"549 490 CURVE",
"557 515 OFFCURVE",
"570 578 OFFCURVE",
"575 658 CURVE",
"533 688 OFFCURVE",
"450 720 OFFCURVE",
"370 720 CURVE SMOOTH",
"270 720 OFFCURVE",
"154 658 OFFCURVE",
"100 608 CURVE",
"79 560 OFFCURVE",
"57 434 OFFCURVE",
"57 316 CURVE SMOOTH",
"57 218 OFFCURVE",
"73 136 OFFCURVE",
"106 98 CURVE SMOOTH",
"144 55 OFFCURVE",
"275 0 OFFCURVE",
"342 0 CURVE SMOOTH"
);
}
);
width = 676;
},
{
anchors = (
{
name = bottom;
position = "{352, 0}";
},
{
name = top;
position = "{363, 704}";
}
);
layerId = "C4D96FDC-31F2-4CF4-BEA5-4CCE99FECD99";
paths = (
{
closed = 1;
nodes = (
"449 0 OFFCURVE",
"586 42 OFFCURVE",
"629 69 CURVE",
"629 182 LINE SMOOTH",
"629 258 OFFCURVE",
"639 325 OFFCURVE",
"648 356 CURVE",
"636 369 LINE",
"574 362 OFFCURVE",
"453 356 OFFCURVE",
"382 356 CURVE",
"376 341 OFFCURVE",
"367 308 OFFCURVE",
"367 283 CURVE",
"496 283 LINE",
"492 270 OFFCURVE",
"486 243 OFFCURVE",
"486 210 CURVE SMOOTH",
"486 112 LINE",
"462 106 OFFCURVE",
"416 100 OFFCURVE",
"376 100 CURVE SMOOTH",
"334 100 OFFCURVE",
"256 141 OFFCURVE",
"245 156 CURVE",
"229 198 OFFCURVE",
"217 292 OFFCURVE",
"217 375 CURVE SMOOTH",
"217 455 OFFCURVE",
"231 564 OFFCURVE",
"246 611 CURVE",
"275 620 OFFCURVE",
"347 626 OFFCURVE",
"381 626 CURVE SMOOTH",
"401 626 OFFCURVE",
"441 612 OFFCURVE",
"457 602 CURVE",
"494 464 LINE",
"510 459 OFFCURVE",
"549 452 OFFCURVE",
"589 452 CURVE",
"600 491 OFFCURVE",
"615 564 OFFCURVE",
"615 648 CURVE",
"566 690 OFFCURVE",
"465 720 OFFCURVE",
"389 720 CURVE SMOOTH",
"313 720 OFFCURVE",
"149 660 OFFCURVE",
"85 596 CURVE",
"68 553 OFFCURVE",
"47 430 OFFCURVE",
"47 320 CURVE SMOOTH",
"47 234 OFFCURVE",
"60 153 OFFCURVE",
"89 113 CURVE",
"111 89 OFFCURVE",
"232 0 OFFCURVE",
"342 0 CURVE SMOOTH"
);
}
);
width = 713;
},
{
anchors = (
{
name = bottom;
position = "{336, 0}";
},
{
name = top;
position = "{336, 709}";
}
);
layerId = "65D1C757-52A4-41AF-B6F1-0B1906938095";
paths = (
{
closed = 1;
nodes = (
"406 0 OFFCURVE",
"521 36 OFFCURVE",
"562 62 CURVE",
"562 165 LINE",
"562 264 OFFCURVE",
"571 332 OFFCURVE",
"577 354 CURVE",
"568 362 LINE",
"509 355 OFFCURVE",
"439 350 OFFCURVE",
"371 350 CURVE",
"364 343 OFFCURVE",
"359 327 OFFCURVE",
"359 311 CURVE",
"517 311 LINE",
"512 299 OFFCURVE",
"505 262 OFFCURVE",
"505 207 CURVE SMOOTH",
"505 78 LINE",
"476 66 OFFCURVE",
"389 48 OFFCURVE",
"351 48 CURVE SMOOTH",
"289 48 OFFCURVE",
"189 93 OFFCURVE",
"157 130 CURVE",
"135 171 OFFCURVE",
"119 262 OFFCURVE",
"119 357 CURVE SMOOTH",
"119 457 OFFCURVE",
"129 565 OFFCURVE",
"155 619 CURVE",
"199 644 OFFCURVE",
"301 677 OFFCURVE",
"349 677 CURVE SMOOTH",
"389 677 OFFCURVE",
"457 658 OFFCURVE",
"486 639 CURVE",
"498 521 LINE",
"503 518 OFFCURVE",
"516 514 OFFCURVE",
"530 513 CURVE",
"537 548 OFFCURVE",
"547 610 OFFCURVE",
"549 663 CURVE",
"509 693 OFFCURVE",
"423 725 OFFCURVE",
"369 725 CURVE SMOOTH",
"290 725 OFFCURVE",
"153 664 OFFCURVE",
"102 626 CURVE",
"81 578 OFFCURVE",
"60 464 OFFCURVE",
"60 339 CURVE SMOOTH",
"60 236 OFFCURVE",
"81 142 OFFCURVE",
"111 95 CURVE",
"149 53 OFFCURVE",
"258 0 OFFCURVE",
"328 0 CURVE SMOOTH"
);
}
);
width = 652;
},
{
anchors = (
{
name = bottom;
position = "{331, 0}";
},
{
name = top;
position = "{334, 704}";
}
);
layerId = "891D9FC5-7784-4CE6-B01A-BC8B0C8DC68C";
paths = (
{
closed = 1;
nodes = (
"411 0 OFFCURVE",
"519 38 OFFCURVE",
"556 63 CURVE",
"556 152 LINE",
"556 246 OFFCURVE",
"565 326 OFFCURVE",
"571 353 CURVE",
"562 362 LINE",
"507 357 OFFCURVE",
"432 353 OFFCURVE",
"364 353 CURVE",
"359 346 OFFCURVE",
"352 327 OFFCURVE",
"352 304 CURVE",
"502 304 LINE",
"498 292 OFFCURVE",
"490 255 OFFCURVE",
"490 200 CURVE SMOOTH",
"490 82 LINE",
"460 70 OFFCURVE",
"389 55 OFFCURVE",
"345 55 CURVE SMOOTH",
"293 55 OFFCURVE",
"197 98 OFFCURVE",
"166 133 CURVE",
"145 174 OFFCURVE",
"131 264 OFFCURVE",
"131 355 CURVE SMOOTH",
"131 449 OFFCURVE",
"141 552 OFFCURVE",
"166 609 CURVE",
"208 635 OFFCURVE",
"298 665 OFFCURVE",
"343 665 CURVE SMOOTH",
"381 665 OFFCURVE",
"447 646 OFFCURVE",
"471 630 CURVE",
"486 512 LINE",
"492 508 OFFCURVE",
"501 505 OFFCURVE",
"523 503 CURVE",
"530 537 OFFCURVE",
"540 598 OFFCURVE",
"543 658 CURVE",
"503 688 OFFCURVE",
"422 720 OFFCURVE",
"361 720 CURVE SMOOTH",
"278 720 OFFCURVE",
"151 661 OFFCURVE",
"101 623 CURVE",
"81 572 OFFCURVE",
"61 454 OFFCURVE",
"61 331 CURVE SMOOTH",
"61 234 OFFCURVE",
"79 140 OFFCURVE",
"109 95 CURVE",
"146 54 OFFCURVE",
"257 0 OFFCURVE",
"326 0 CURVE SMOOTH"
);
}
);
width = 646;
},
{
anchors = (
{
name = bottom;
position = "{372, 0}";
},
{
name = top;
position = "{380, 704}";
}
);
layerId = "FC63F3C5-4BD2-445A-988E-6411A2DDD46F";
paths = (
{
closed = 1;
nodes = (
"477 0 OFFCURVE",
"597 38 OFFCURVE",
"638 62 CURVE",
"638 142 LINE SMOOTH",
"638 234 OFFCURVE",
"648 320 OFFCURVE",
"655 359 CURVE",
"645 369 LINE",
"585 362 OFFCURVE",
"484 356 OFFCURVE",
"407 356 CURVE",
"400 345 OFFCURVE",
"391 315 OFFCURVE",
"391 290 CURVE",
"545 290 LINE",
"540 273 OFFCURVE",
"533 234 OFFCURVE",
"533 194 CURVE SMOOTH",
"533 101 LINE",
"501 90 OFFCURVE",
"445 78 OFFCURVE",
"390 78 CURVE SMOOTH",
"343 78 OFFCURVE",
"246 120 OFFCURVE",
"220 146 CURVE",
"199 189 OFFCURVE",
"186 273 OFFCURVE",
"186 361 CURVE SMOOTH",
"186 446 OFFCURVE",
"199 549 OFFCURVE",
"223 605 CURVE",
"262 627 OFFCURVE",
"347 644 OFFCURVE",
"391 644 CURVE SMOOTH",
"422 644 OFFCURVE",
"483 627 OFFCURVE",
"508 615 CURVE",
"534 490 LINE",
"542 486 OFFCURVE",
"562 480 OFFCURVE",
"596 479 CURVE",
"605 509 OFFCURVE",
"618 573 OFFCURVE",
"623 655 CURVE",
"574 690 OFFCURVE",
"481 720 OFFCURVE",
"405 720 CURVE SMOOTH",
"309 720 OFFCURVE",
"171 661 OFFCURVE",
"111 610 CURVE",
"91 563 OFFCURVE",
"68 438 OFFCURVE",
"68 318 CURVE SMOOTH",
"68 229 OFFCURVE",
"83 142 OFFCURVE",
"118 102 CURVE SMOOTH",
"150 66 OFFCURVE",
"284 0 OFFCURVE",
"368 0 CURVE SMOOTH"
);
}
);
width = 737;
},
{
anchors = (
{
name = bottom;
position = "{382, 0}";
},
{
name = top;
position = "{389, 704}";
}
);
layerId = "B67CA61C-C7DB-4511-8D93-FE28BE810A6B";
paths = (
{
closed = 1;
nodes = (
"467 0 OFFCURVE",
"624 38 OFFCURVE",
"671 64 CURVE",
"671 224 LINE SMOOTH",
"671 297 OFFCURVE",
"682 343 OFFCURVE",
"692 359 CURVE",
"678 375 LINE",
"619 368 OFFCURVE",
"496 362 OFFCURVE",
"411 362 CURVE",
"405 345 OFFCURVE",
"397 309 OFFCURVE",
"397 286 CURVE",
"526 286 LINE",
"523 278 OFFCURVE",
"517 254 OFFCURVE",
"517 227 CURVE SMOOTH",
"517 121 LINE",
"496 114 OFFCURVE",
"432 105 OFFCURVE",
"408 105 CURVE SMOOTH",
"355 105 OFFCURVE",
"277 148 OFFCURVE",
"272 156 CURVE",
"256 199 OFFCURVE",
"243 306 OFFCURVE",
"243 384 CURVE SMOOTH",
"243 452 OFFCURVE",
"256 569 OFFCURVE",
"271 606 CURVE",
"299 613 OFFCURVE",
"375 624 OFFCURVE",
"416 624 CURVE SMOOTH",
"435 624 OFFCURVE",
"465 615 OFFCURVE",
"486 601 CURVE",
"528 457 LINE",
"545 452 OFFCURVE",
"589 446 OFFCURVE",
"634 444 CURVE",
"644 492 OFFCURVE",
"660 562 OFFCURVE",
"658 644 CURVE",
"605 691 OFFCURVE",
"493 720 OFFCURVE",
"423 720 CURVE SMOOTH",
"356 720 OFFCURVE",
"167 664 OFFCURVE",
"96 601 CURVE",
"80 562 OFFCURVE",
"58 442 OFFCURVE",
"58 329 CURVE SMOOTH",
"58 242 OFFCURVE",
"74 156 OFFCURVE",
"100 114 CURVE",
"119 99 OFFCURVE",
"235 0 OFFCURVE",
"365 0 CURVE SMOOTH"
);
}
);
width = 770;
}
);
leftKerningGroup = O;
leftMetricsKey = O;
rightKerningGroup = G;
unicode = 0047;
},
{
color = 6;
glyphname = H;
layers = (
{
anchors = (
{
name = bottom;
position = "{388, 0}";
},
{
name = center;
position = "{388, 532}";
},
{
name = top;
position = "{388, 704}";
},
{
name = topleft;
position = "{104, 704}";
}
);
layerId = UUID0;
paths = (
{
closed = 1;
nodes = (
"267 0 OFFCURVE",
"302 16 OFFCURVE",
"321 34 CURVE",
"321 45 OFFCURVE",
"317 53 OFFCURVE",
"314 56 CURVE",
"208 67 LINE",
"216 76 OFFCURVE",
"226 101 OFFCURVE",
"226 135 CURVE SMOOTH",
"226 334 LINE",
"546 334 LINE",
"546 164 LINE SMOOTH",
"546 92 OFFCURVE",
"544 69 OFFCURVE",
"495 62 CURVE SMOOTH",
"466 58 LINE",
"462 54 OFFCURVE",
"456 45 OFFCURVE",
"456 34 CURVE",
"484 24 OFFCURVE",
"629 0 OFFCURVE",
"654 0 CURVE SMOOTH",
"679 0 OFFCURVE",
"714 16 OFFCURVE",
"733 34 CURVE",
"733 45 OFFCURVE",
"729 53 OFFCURVE",
"726 56 CURVE",
"620 67 LINE",
"628 76 OFFCURVE",
"638 101 OFFCURVE",
"638 135 CURVE SMOOTH",
"638 572 LINE SMOOTH",
"638 643 OFFCURVE",
"658 648 OFFCURVE",
"690 658 CURVE SMOOTH",
"733 671 LINE",
"733 686 OFFCURVE",
"726 698 OFFCURVE",
"720 704 CURVE",
"516 704 LINE SMOOTH",
"504 704 OFFCURVE",
"466 685 OFFCURVE",
"455 671 CURVE",
"456 662 OFFCURVE",
"463 656 OFFCURVE",
"467 653 CURVE",
"565 653 LINE",
"557 647 OFFCURVE",
"546 620 OFFCURVE",
"546 571 CURVE SMOOTH",
"546 404 LINE",
"475 398 OFFCURVE",
"304 391 OFFCURVE",
"226 391 CURVE",
"226 572 LINE SMOOTH",
"226 643 OFFCURVE",
"246 648 OFFCURVE",
"278 658 CURVE SMOOTH",
"321 671 LINE",
"321 686 OFFCURVE",
"314 698 OFFCURVE",
"308 704 CURVE",
"104 704 LINE SMOOTH",
"92 704 OFFCURVE",
"54 685 OFFCURVE",
"43 671 CURVE",
"45 662 OFFCURVE",
"51 656 OFFCURVE",
"55 653 CURVE",
"153 653 LINE",
"145 647 OFFCURVE",
"134 620 OFFCURVE",
"134 571 CURVE SMOOTH",
"134 164 LINE SMOOTH",
"134 92 OFFCURVE",
"132 69 OFFCURVE",
"83 62 CURVE SMOOTH",
"54 58 LINE",
"50 54 OFFCURVE",
"44 45 OFFCURVE",
"44 34 CURVE",
"72 24 OFFCURVE",
"217 0 OFFCURVE",
"242 0 CURVE SMOOTH"
);
}
);
width = 776;
},
{
anchors = (
{
name = bottom;
position = "{402, 0}";
},
{
name = center;
position = "{402, 532}";
},
{
name = top;
position = "{402, 704}";
},
{
name = topleft;
position = "{92, 704}";
}
);
layerId = "C4D96FDC-31F2-4CF4-BEA5-4CCE99FECD99";
paths = (
{
closed = 1;
nodes = (
"310 0 OFFCURVE",
"344 17 OFFCURVE",
"363 35 CURVE",
"363 52 OFFCURVE",
"358 64 OFFCURVE",
"355 69 CURVE",
"261 83 LINE",
"268 91 OFFCURVE",
"279 115 OFFCURVE",
"279 152 CURVE SMOOTH",
"279 327 LINE",
"520 327 LINE",
"520 180 LINE SMOOTH",
"520 101 OFFCURVE",
"505 79 OFFCURVE",
"473 75 CURVE SMOOTH",
"444 71 LINE",
"440 65 OFFCURVE",
"435 51 OFFCURVE",
"435 35 CURVE",
"463 25 OFFCURVE",
"665 0 OFFCURVE",
"688 0 CURVE SMOOTH",
"712 0 OFFCURVE",
"747 17 OFFCURVE",
"766 35 CURVE",
"766 50 OFFCURVE",
"761 64 OFFCURVE",
"758 69 CURVE",
"664 83 LINE",
"671 91 OFFCURVE",
"682 116 OFFCURVE",
"682 152 CURVE SMOOTH",
"682 556 LINE",
"682 618 OFFCURVE",
"697 632 OFFCURVE",
"729 642 CURVE SMOOTH",
"772 655 LINE",
"772 678 OFFCURVE",
"765 696 OFFCURVE",
"759 704 CURVE",
"495 704 LINE SMOOTH",
"484 704 OFFCURVE",
"445 685 OFFCURVE",
"434 671 CURVE",
"435 655 OFFCURVE",
"441 642 OFFCURVE",
"446 637 CURVE",
"538 637 LINE",
"537 635 OFFCURVE",
"520 622 OFFCURVE",
"520 557 CURVE SMOOTH",
"520 407 LINE",
"472 402 OFFCURVE",
"386 396 OFFCURVE",
"279 396 CURVE",
"279 556 LINE SMOOTH",
"279 625 OFFCURVE",
"300 634 OFFCURVE",
"326 642 CURVE SMOOTH",
"370 655 LINE",
"370 675 OFFCURVE",
"363 696 OFFCURVE",
"357 704 CURVE",
"92 704 LINE SMOOTH",
"81 704 OFFCURVE",
"42 685 OFFCURVE",
"31 671 CURVE",
"32 655 OFFCURVE",
"39 641 OFFCURVE",
"43 637 CURVE",
"135 637 LINE",
"134 635 OFFCURVE",
"117 621 OFFCURVE",
"117 557 CURVE SMOOTH",
"117 180 LINE SMOOTH",
"117 107 OFFCURVE",
"106 80 OFFCURVE",
"70 75 CURVE SMOOTH",
"41 71 LINE",
"37 65 OFFCURVE",
"32 50 OFFCURVE",
"32 35 CURVE",
"60 25 OFFCURVE",
"263 0 OFFCURVE",
"285 0 CURVE SMOOTH"
);
}
);
width = 803;
},
{
anchors = (
{
name = bottom;
position = "{351, 0}";
},
{
name = center;
position = "{351, 536}";
},
{
name = top;
position = "{351, 709}";
},
{
name = topleft;
position = "{102, 709}";
}
);
layerId = "65D1C757-52A4-41AF-B6F1-0B1906938095";
paths = (
{
closed = 1;
nodes = (
"197 0 OFFCURVE",
"224 9 OFFCURVE",
"246 23 CURVE",
"245 30 OFFCURVE",
"242 36 OFFCURVE",
"240 40 CURVE",
"160 48 LINE",
"165 54 OFFCURVE",
"173 75 OFFCURVE",
"173 104 CURVE SMOOTH",
"173 352 LINE",
"521 352 LINE",
"521 116 LINE SMOOTH",
"521 65 OFFCURVE",
"510 47 OFFCURVE",
"483 43 CURVE SMOOTH",
"461 40 LINE",
"458 37 OFFCURVE",
"454 31 OFFCURVE",
"454 23 CURVE",
"482 14 OFFCURVE",
"558 0 OFFCURVE",
"580 0 CURVE SMOOTH",
"602 0 OFFCURVE",
"630 10 OFFCURVE",
"649 23 CURVE",
"648 31 OFFCURVE",
"646 36 OFFCURVE",
"643 40 CURVE",
"564 48 LINE",
"569 55 OFFCURVE",
"576 75 OFFCURVE",
"576 104 CURVE SMOOTH",
"576 584 LINE",
"576 647 OFFCURVE",
"588 662 OFFCURVE",
"615 672 CURVE SMOOTH",
"650 685 LINE",
"649 697 OFFCURVE",
"641 706 OFFCURVE",
"638 709 CURVE",
"505 709 LINE SMOOTH",
"496 709 OFFCURVE",
"464 694 OFFCURVE",
"455 687 CURVE",
"456 680 OFFCURVE",
"460 673 OFFCURVE",
"463 670 CURVE",
"535 670 LINE",
"529 662 OFFCURVE",
"521 637 OFFCURVE",
"521 599 CURVE SMOOTH",
"521 399 LINE",
"447 393 OFFCURVE",
"320 387 OFFCURVE",
"173 387 CURVE",
"173 584 LINE SMOOTH",
"173 645 OFFCURVE",
"183 662 OFFCURVE",
"211 672 CURVE SMOOTH",
"247 685 LINE",
"246 695 OFFCURVE",
"239 705 OFFCURVE",
"234 709 CURVE",
"102 709 LINE SMOOTH",
"92 709 OFFCURVE",
"60 694 OFFCURVE",
"52 687 CURVE",
"53 679 OFFCURVE",
"55 673 OFFCURVE",
"59 670 CURVE",
"131 670 LINE",
"125 662 OFFCURVE",
"118 636 OFFCURVE",
"118 599 CURVE SMOOTH",
"118 116 LINE SMOOTH",
"118 63 OFFCURVE",
"105 46 OFFCURVE",
"80 43 CURVE SMOOTH",
"57 40 LINE",
"54 37 OFFCURVE",
"50 30 OFFCURVE",
"50 23 CURVE",
"78 14 OFFCURVE",
"156 0 OFFCURVE",
"177 0 CURVE SMOOTH"
);
}
);
width = 700;
},
{
anchors = (
{
name = bottom;
position = "{355, 0}";
},
{
name = center;
position = "{355, 532}";
},
{
name = top;
position = "{355, 704}";
},
{
name = topleft;
position = "{104, 704}";
}
);
layerId = "891D9FC5-7784-4CE6-B01A-BC8B0C8DC68C";
paths = (
{
closed = 1;
nodes = (
"216 0 OFFCURVE",
"246 11 OFFCURVE",
"266 27 CURVE",
"265 33 OFFCURVE",
"262 42 OFFCURVE",
"259 45 CURVE",
"175 53 LINE",
"181 61 OFFCURVE",
"189 84 OFFCURVE",
"189 113 CURVE SMOOTH",
"189 344 LINE",
"515 344 LINE",
"515 130 LINE SMOOTH",
"515 73 OFFCURVE",
"507 53 OFFCURVE",
"474 49 CURVE SMOOTH",
"451 46 LINE",
"449 44 OFFCURVE",
"444 36 OFFCURVE",
"444 27 CURVE",
"469 17 OFFCURVE",
"567 0 OFFCURVE",
"588 0 CURVE SMOOTH",
"608 0 OFFCURVE",
"639 11 OFFCURVE",
"658 27 CURVE",
"657 37 OFFCURVE",
"653 42 OFFCURVE",
"652 45 CURVE",
"567 53 LINE",
"573 61 OFFCURVE",
"581 83 OFFCURVE",
"581 113 CURVE SMOOTH",
"581 577 LINE",
"581 632 OFFCURVE",
"588 652 OFFCURVE",
"622 664 CURVE SMOOTH",
"659 677 LINE",
"658 692 OFFCURVE",
"651 698 OFFCURVE",
"647 704 CURVE",
"495 704 LINE SMOOTH",
"486 704 OFFCURVE",
"451 687 OFFCURVE",
"444 679 CURVE",
"445 670 OFFCURVE",
"449 665 OFFCURVE",
"452 661 CURVE",
"530 661 LINE",
"522 653 OFFCURVE",
"515 623 OFFCURVE",
"515 587 CURVE SMOOTH",
"515 399 LINE",
"435 394 OFFCURVE",
"294 390 OFFCURVE",
"189 390 CURVE",
"189 577 LINE SMOOTH",
"189 634 OFFCURVE",
"197 652 OFFCURVE",
"230 664 CURVE SMOOTH",
"266 677 LINE",
"265 691 OFFCURVE",
"259 699 OFFCURVE",
"254 704 CURVE",
"104 704 LINE SMOOTH",
"94 704 OFFCURVE",
"60 688 OFFCURVE",
"52 679 CURVE",
"54 668 OFFCURVE",
"57 666 OFFCURVE",
"60 661 CURVE",
"137 661 LINE",
"132 654 OFFCURVE",
"123 633 OFFCURVE",
"123 587 CURVE SMOOTH",
"123 130 LINE SMOOTH",
"123 64 OFFCURVE",
"111 53 OFFCURVE",
"83 49 CURVE SMOOTH",
"59 46 LINE",
"56 42 OFFCURVE",
"51 35 OFFCURVE",
"51 27 CURVE",
"81 16 OFFCURVE",
"177 0 OFFCURVE",
"196 0 CURVE SMOOTH"
);
}
);
width = 710;
},
{
anchors = (
{
name = bottom;
position = "{416, 0}";
},
{
name = center;
position = "{416, 532}";
},
{
name = top;
position = "{416, 704}";
},
{
name = topleft;
position = "{116, 704}";
}
);
layerId = "FC63F3C5-4BD2-445A-988E-6411A2DDD46F";
paths = (
{
closed = 1;
nodes = (
"291 0 OFFCURVE",
"328 16 OFFCURVE",
"348 34 CURVE",
"348 43 OFFCURVE",
"344 56 OFFCURVE",
"341 59 CURVE",
"237 71 LINE",
"245 80 OFFCURVE",
"255 106 OFFCURVE",
"255 139 CURVE SMOOTH",
"255 332 LINE",
"571 332 LINE",
"571 167 LINE SMOOTH",
"571 78 OFFCURVE",
"556 70 OFFCURVE",
"521 65 CURVE SMOOTH",
"492 61 LINE",
"487 56 OFFCURVE",
"482 44 OFFCURVE",
"482 34 CURVE",
"510 24 OFFCURVE",
"670 0 OFFCURVE",
"695 0 CURVE SMOOTH",
"720 0 OFFCURVE",
"756 16 OFFCURVE",
"776 34 CURVE",
"776 47 OFFCURVE",
"771 57 OFFCURVE",
"769 59 CURVE",
"665 71 LINE",
"674 81 OFFCURVE",
"683 106 OFFCURVE",
"683 139 CURVE SMOOTH",
"683 567 LINE SMOOTH",
"683 627 OFFCURVE",
"695 642 OFFCURVE",
"734 653 CURVE SMOOTH",
"778 666 LINE",
"778 683 OFFCURVE",
"771 697 OFFCURVE",
"765 704 CURVE",
"544 704 LINE SMOOTH",
"532 704 OFFCURVE",
"492 685 OFFCURVE",
"482 671 CURVE",
"482 662 OFFCURVE",
"489 653 OFFCURVE",
"493 648 CURVE",
"590 648 LINE",
"583 643 OFFCURVE",
"571 617 OFFCURVE",
"571 568 CURVE SMOOTH",
"571 405 LINE",
"502 401 OFFCURVE",
"359 396 OFFCURVE",
"255 396 CURVE",
"255 567 LINE SMOOTH",
"255 621 OFFCURVE",
"263 640 OFFCURVE",
"306 653 CURVE SMOOTH",
"350 666 LINE",
"350 682 OFFCURVE",
"343 697 OFFCURVE",
"337 704 CURVE",
"116 704 LINE SMOOTH",
"103 704 OFFCURVE",
"64 685 OFFCURVE",
"53 671 CURVE",
"55 657 OFFCURVE",
"62 653 OFFCURVE",
"65 648 CURVE",
"162 648 LINE",
"156 643 OFFCURVE",
"143 621 OFFCURVE",
"143 568 CURVE SMOOTH",
"143 167 LINE SMOOTH",
"143 78 OFFCURVE",
"128 70 OFFCURVE",
"93 65 CURVE SMOOTH",
"64 61 LINE",
"59 56 OFFCURVE",
"54 45 OFFCURVE",
"54 34 CURVE",
"83 24 OFFCURVE",
"242 0 OFFCURVE",
"267 0 CURVE SMOOTH"
);
}
);
width = 831;
},
{
anchors = (
{
name = bottom;
position = "{423, 0}";
},
{
name = center;
position = "{423, 532}";
},
{
name = top;
position = "{423, 704}";
},
{
name = topleft;
position = "{103, 704}";
}
);
background = {
paths = (
{
closed = 1;
nodes = (
"316 0 OFFCURVE",
"347 15 OFFCURVE",
"368 32 CURVE",
"368 45 OFFCURVE",
"363 62 OFFCURVE",
"360 68 CURVE",
"273 82 LINE",
"281 90 OFFCURVE",
"290 114 OFFCURVE",
"290 146 CURVE SMOOTH",
"290 328 LINE",
"537 328 LINE",
"537 168 LINE SMOOTH",
"537 108 OFFCURVE",
"523 77 OFFCURVE",
"494 73 CURVE SMOOTH",
"465 69 LINE",
"462 64 OFFCURVE",
"457 49 OFFCURVE",
"457 32 CURVE",
"486 22 OFFCURVE",
"682 0 OFFCURVE",
"707 0 CURVE SMOOTH",
"731 0 OFFCURVE",
"764 15 OFFCURVE",
"785 32 CURVE",
"785 48 OFFCURVE",
"779 63 OFFCURVE",
"777 68 CURVE",
"690 82 LINE",
"698 90 OFFCURVE",
"707 115 OFFCURVE",
"707 146 CURVE SMOOTH",
"707 554 LINE",
"707 612 OFFCURVE",
"721 631 OFFCURVE",
"751 640 CURVE SMOOTH",
"793 653 LINE",
"793 676 OFFCURVE",
"786 696 OFFCURVE",
"780 704 CURVE",
"517 704 LINE SMOOTH",
"506 704 OFFCURVE",
"468 687 OFFCURVE",
"457 675 CURVE",
"458 658 OFFCURVE",
"464 643 OFFCURVE",
"468 636 CURVE",
"554 636 LINE",
"554 635 OFFCURVE",
"537 626 OFFCURVE",
"537 562 CURVE SMOOTH",
"537 406 LINE",
"502 402 OFFCURVE",
"398 399 OFFCURVE",
"290 399 CURVE",
"290 554 LINE SMOOTH",
"290 616 OFFCURVE",
"306 631 OFFCURVE",
"334 640 CURVE SMOOTH",
"377 653 LINE",
"376 677 OFFCURVE",
"369 695 OFFCURVE",
"363 704 CURVE",
"99 704 LINE SMOOTH",
"88 704 OFFCURVE",
"50 687 OFFCURVE",
"39 675 CURVE",
"39 658 OFFCURVE",
"46 642 OFFCURVE",
"50 636 CURVE",
"136 636 LINE",
"137 635 OFFCURVE",
"120 626 OFFCURVE",
"120 562 CURVE SMOOTH",
"120 168 LINE SMOOTH",
"120 103 OFFCURVE",
"103 77 OFFCURVE",
"76 73 CURVE SMOOTH",
"47 69 LINE",
"43 62 OFFCURVE",
"39 45 OFFCURVE",
"39 32 CURVE",
"68 22 OFFCURVE",
"266 0 OFFCURVE",
"290 0 CURVE SMOOTH"
);
}
);
};
layerId = "B67CA61C-C7DB-4511-8D93-FE28BE810A6B";
paths = (
{
closed = 1;
nodes = (
"324 0 OFFCURVE",
"355 15 OFFCURVE",
"376 32 CURVE",
"376 45 OFFCURVE",
"371 63 OFFCURVE",
"368 69 CURVE",
"282 83 LINE",
"290 91 OFFCURVE",
"299 115 OFFCURVE",
"299 147 CURVE SMOOTH",
"299 327 LINE",
"540 327 LINE",
"540 169 LINE SMOOTH",
"540 111 OFFCURVE",
"526 78 OFFCURVE",
"497 74 CURVE SMOOTH",
"468 70 LINE",
"465 65 OFFCURVE",
"460 48 OFFCURVE",
"460 32 CURVE",
"489 22 OFFCURVE",
"691 0 OFFCURVE",
"715 0 CURVE SMOOTH",
"739 0 OFFCURVE",
"773 16 OFFCURVE",
"793 32 CURVE",
"793 49 OFFCURVE",
"786 65 OFFCURVE",
"784 69 CURVE",
"698 83 LINE",
"706 91 OFFCURVE",
"715 116 OFFCURVE",
"715 147 CURVE SMOOTH",
"715 553 LINE",
"715 619 OFFCURVE",
"735 632 OFFCURVE",
"759 639 CURVE SMOOTH",
"801 652 LINE",
"801 675 OFFCURVE",
"794 696 OFFCURVE",
"788 704 CURVE",
"520 704 LINE SMOOTH",
"510 704 OFFCURVE",
"473 688 OFFCURVE",
"460 675 CURVE",
"461 658 OFFCURVE",
"468 641 OFFCURVE",
"471 635 CURVE",
"557 635 LINE",
"546 624 OFFCURVE",
"540 597 OFFCURVE",
"540 561 CURVE SMOOTH",
"540 406 LINE",
"505 402 OFFCURVE",
"400 399 OFFCURVE",
"299 399 CURVE",
"299 553 LINE SMOOTH",
"299 624 OFFCURVE",
"321 632 OFFCURVE",
"343 639 CURVE SMOOTH",
"386 652 LINE",
"384 682 OFFCURVE",
"376 696 OFFCURVE",
"372 704 CURVE",
"103 704 LINE SMOOTH",
"92 704 OFFCURVE",
"54 687 OFFCURVE",
"43 675 CURVE",
"43 658 OFFCURVE",
"50 641 OFFCURVE",
"54 635 CURVE",
"140 635 LINE",
"129 619 OFFCURVE",
"124 593 OFFCURVE",
"124 561 CURVE SMOOTH",
"124 169 LINE SMOOTH",
"124 101 OFFCURVE",
"104 77 OFFCURVE",
"80 74 CURVE SMOOTH",
"51 70 LINE",
"47 63 OFFCURVE",
"43 45 OFFCURVE",
"43 32 CURVE",
"72 22 OFFCURVE",
"275 0 OFFCURVE",
"298 0 CURVE SMOOTH"
);
}
);
width = 844;
}
);
leftKerningGroup = H;
rightKerningGroup = H;
unicode = 0048;
},
{
color = 6;
glyphname = I;
layers = (
{
anchors = (
{
name = bottom;
position = "{182, 0}";
},
{
name = ogonek;
position = "{278, 0}";
},
{
name = top;
position = "{182, 704}";
},
{
name = topleft;
position = "{104, 704}";
}
);
layerId = UUID0;
paths = (
{
closed = 1;
nodes = (
"267 0 OFFCURVE",
"302 16 OFFCURVE",
"321 34 CURVE",
"321 45 OFFCURVE",
"317 53 OFFCURVE",
"314 56 CURVE",
"208 67 LINE",
"216 76 OFFCURVE",
"226 101 OFFCURVE",
"226 135 CURVE SMOOTH",
"226 572 LINE",
"226 643 OFFCURVE",
"246 648 OFFCURVE",
"278 658 CURVE SMOOTH",
"321 671 LINE",
"321 686 OFFCURVE",
"314 698 OFFCURVE",
"308 704 CURVE",
"104 704 LINE SMOOTH",
"92 704 OFFCURVE",
"54 685 OFFCURVE",
"43 671 CURVE",
"45 662 OFFCURVE",
"51 656 OFFCURVE",
"55 653 CURVE",
"152 653 LINE",
"150 651 OFFCURVE",
"134 636 OFFCURVE",
"134 574 CURVE SMOOTH",
"134 163 LINE SMOOTH",
"134 90 OFFCURVE",
"132 69 OFFCURVE",
"83 62 CURVE SMOOTH",
"54 58 LINE",
"50 54 OFFCURVE",
"44 45 OFFCURVE",
"44 34 CURVE",
"72 24 OFFCURVE",
"217 0 OFFCURVE",
"242 0 CURVE SMOOTH"
);
}
);
width = 364;
},
{
anchors = (
{
name = bottom;
position = "{201, 0}";
},
{
name = ogonek;
position = "{297, 0}";
},
{
name = top;
position = "{201, 704}";
},
{
name = topleft;
position = "{92, 704}";
}
);
layerId = "C4D96FDC-31F2-4CF4-BEA5-4CCE99FECD99";
paths = (
{
closed = 1;
nodes = (
"310 0 OFFCURVE",
"344 17 OFFCURVE",
"363 35 CURVE",
"363 52 OFFCURVE",
"358 64 OFFCURVE",
"355 69 CURVE",
"261 83 LINE",
"268 91 OFFCURVE",
"279 115 OFFCURVE",
"279 152 CURVE SMOOTH",
"279 556 LINE SMOOTH",
"279 625 OFFCURVE",
"300 634 OFFCURVE",
"326 642 CURVE SMOOTH",
"370 655 LINE",
"370 675 OFFCURVE",
"363 696 OFFCURVE",
"357 704 CURVE",
"92 704 LINE SMOOTH",
"81 704 OFFCURVE",
"42 685 OFFCURVE",
"31 671 CURVE",
"32 655 OFFCURVE",
"39 641 OFFCURVE",
"43 637 CURVE",
"136 637 LINE",
"134 635 OFFCURVE",
"117 621 OFFCURVE",
"117 557 CURVE SMOOTH",
"117 180 LINE SMOOTH",
"117 107 OFFCURVE",
"106 80 OFFCURVE",
"70 75 CURVE SMOOTH",
"41 71 LINE",
"37 65 OFFCURVE",
"32 50 OFFCURVE",
"32 35 CURVE",
"60 25 OFFCURVE",
"263 0 OFFCURVE",
"285 0 CURVE SMOOTH"
);
}
);
width = 401;
},
{
anchors = (
{
name = bottom;
position = "{148, 0}";
},
{
name = ogonek;
position = "{242, 0}";
},
{
name = top;
position = "{148, 709}";
},
{
name = topleft;
position = "{102, 709}";
}
);
layerId = "65D1C757-52A4-41AF-B6F1-0B1906938095";
paths = (
{
closed = 1;
nodes = (
"197 0 OFFCURVE",
"224 9 OFFCURVE",
"246 23 CURVE",
"245 30 OFFCURVE",
"242 36 OFFCURVE",
"240 40 CURVE",
"160 48 LINE",
"165 54 OFFCURVE",
"173 75 OFFCURVE",
"173 104 CURVE SMOOTH",
"173 584 LINE SMOOTH",
"173 645 OFFCURVE",
"183 662 OFFCURVE",
"211 672 CURVE SMOOTH",
"247 685 LINE",
"246 695 OFFCURVE",
"239 705 OFFCURVE",
"234 709 CURVE",
"102 709 LINE SMOOTH",
"92 709 OFFCURVE",
"60 694 OFFCURVE",
"52 687 CURVE",
"53 679 OFFCURVE",
"55 673 OFFCURVE",
"59 670 CURVE",
"131 670 LINE",
"125 661 OFFCURVE",
"118 638 OFFCURVE",
"118 599 CURVE SMOOTH",
"118 116 LINE SMOOTH",
"118 59 OFFCURVE",
"104 46 OFFCURVE",
"80 43 CURVE SMOOTH",
"57 40 LINE",
"54 37 OFFCURVE",
"50 30 OFFCURVE",
"50 23 CURVE",
"78 14 OFFCURVE",
"156 0 OFFCURVE",
"177 0 CURVE SMOOTH"
);
}
);
width = 297;
},
{
anchors = (
{
name = bottom;
position = "{158, 0}";
},
{
name = ogonek;
position = "{250, 0}";
},
{
name = top;
position = "{158, 704}";
},
{
name = topleft;
position = "{104, 704}";
}
);
layerId = "891D9FC5-7784-4CE6-B01A-BC8B0C8DC68C";
paths = (
{
closed = 1;
nodes = (
"216 0 OFFCURVE",
"246 11 OFFCURVE",
"266 27 CURVE",
"265 33 OFFCURVE",
"262 42 OFFCURVE",
"259 45 CURVE",
"175 53 LINE",
"181 61 OFFCURVE",
"189 84 OFFCURVE",
"189 113 CURVE SMOOTH",
"189 577 LINE SMOOTH",
"189 634 OFFCURVE",
"197 652 OFFCURVE",
"230 664 CURVE SMOOTH",
"266 677 LINE",
"265 691 OFFCURVE",
"259 699 OFFCURVE",
"254 704 CURVE",
"104 704 LINE SMOOTH",
"94 704 OFFCURVE",
"60 688 OFFCURVE",
"52 679 CURVE",
"54 668 OFFCURVE",
"57 666 OFFCURVE",
"60 661 CURVE",
"137 661 LINE",
"133 655 OFFCURVE",
"123 634 OFFCURVE",
"123 589 CURVE SMOOTH",
"123 130 LINE SMOOTH",
"123 72 OFFCURVE",
"114 53 OFFCURVE",
"82 49 CURVE SMOOTH",
"59 46 LINE",
"56 42 OFFCURVE",
"51 35 OFFCURVE",
"51 27 CURVE",
"81 16 OFFCURVE",
"177 0 OFFCURVE",
"196 0 CURVE SMOOTH"
);
}
);
width = 317;
},
{
anchors = (
{
name = bottom;
position = "{202, 0}";
},
{
name = ogonek;
position = "{302, 0}";
},
{
name = top;
position = "{202, 704}";
},
{
name = topleft;
position = "{116, 704}";
}
);
layerId = "FC63F3C5-4BD2-445A-988E-6411A2DDD46F";
paths = (
{
closed = 1;
nodes = (
"291 0 OFFCURVE",
"328 16 OFFCURVE",
"348 34 CURVE",
"348 43 OFFCURVE",
"344 56 OFFCURVE",
"341 59 CURVE",
"237 71 LINE",
"245 80 OFFCURVE",
"255 106 OFFCURVE",
"255 139 CURVE SMOOTH",
"255 567 LINE",
"255 621 OFFCURVE",
"263 640 OFFCURVE",
"306 653 CURVE SMOOTH",
"350 666 LINE",
"350 682 OFFCURVE",
"343 697 OFFCURVE",
"337 704 CURVE",
"116 704 LINE SMOOTH",
"103 704 OFFCURVE",
"64 685 OFFCURVE",
"53 671 CURVE",
"55 657 OFFCURVE",
"62 653 OFFCURVE",
"65 648 CURVE",
"162 648 LINE",
"159 646 OFFCURVE",
"143 632 OFFCURVE",
"143 570 CURVE SMOOTH",
"143 166 LINE SMOOTH",
"143 86 OFFCURVE",
"132 70 OFFCURVE",
"93 65 CURVE SMOOTH",
"64 61 LINE",
"59 56 OFFCURVE",
"54 45 OFFCURVE",
"54 34 CURVE",
"83 24 OFFCURVE",
"242 0 OFFCURVE",
"267 0 CURVE SMOOTH"
);
}
);
width = 403;
},
{
anchors = (
{
name = bottom;
position = "{214, 0}";
},
{
name = ogonek;
position = "{314, 0}";
},
{
name = top;
position = "{214, 704}";
},
{
name = topleft;
position = "{103, 704}";
}
);
layerId = "B67CA61C-C7DB-4511-8D93-FE28BE810A6B";
paths = (
{
closed = 1;
nodes = (
"324 0 OFFCURVE",
"355 15 OFFCURVE",
"376 32 CURVE",
"376 45 OFFCURVE",
"371 63 OFFCURVE",
"368 69 CURVE",
"282 83 LINE",
"290 91 OFFCURVE",
"299 115 OFFCURVE",
"299 147 CURVE SMOOTH",
"299 553 LINE SMOOTH",
"299 624 OFFCURVE",
"321 632 OFFCURVE",
"343 639 CURVE SMOOTH",
"386 652 LINE",
"384 682 OFFCURVE",
"376 696 OFFCURVE",
"372 704 CURVE",
"103 704 LINE SMOOTH",
"92 704 OFFCURVE",
"54 687 OFFCURVE",
"43 675 CURVE",
"43 658 OFFCURVE",
"50 641 OFFCURVE",
"54 635 CURVE",
"141 635 LINE",
"138 631 OFFCURVE",
"124 614 OFFCURVE",
"124 559 CURVE SMOOTH",
"124 169 LINE SMOOTH",
"124 111 OFFCURVE",
"109 78 OFFCURVE",
"80 74 CURVE SMOOTH",
"51 70 LINE",
"47 63 OFFCURVE",
"43 45 OFFCURVE",
"43 32 CURVE",
"72 22 OFFCURVE",
"275 0 OFFCURVE",
"298 0 CURVE SMOOTH"
);
}
);
width = 429;
}
);
leftKerningGroup = H;
leftMetricsKey = H;
rightKerningGroup = H;
rightMetricsKey = H;
unicode = 0049;
},
{
color = 6;
glyphname = J;
layers = (
{
anchors = (
{
name = bottom;
position = "{180, 0}";
},
{
name = top;
position = "{180, 704}";
}
);
layerId = UUID0;
paths = (
{
closed = 1;
nodes = (
"103 -200 OFFCURVE",
"199 -98 OFFCURVE",
"226 -30 CURVE",
"226 572 LINE SMOOTH",
"226 643 OFFCURVE",
"246 648 OFFCURVE",
"278 658 CURVE SMOOTH",
"321 671 LINE",
"321 686 OFFCURVE",
"314 698 OFFCURVE",
"308 704 CURVE",
"94 704 LINE SMOOTH",
"82 704 OFFCURVE",
"44 685 OFFCURVE",
"33 671 CURVE",
"34 662 OFFCURVE",
"41 656 OFFCURVE",
"45 653 CURVE",
"153 653 LINE",
"145 647 OFFCURVE",
"134 620 OFFCURVE",
"134 571 CURVE SMOOTH",
"134 -63 LINE",
"100 -92 OFFCURVE",
"46 -129 OFFCURVE",
"-19 -149 CURVE",
"-22 -152 OFFCURVE",
"-26 -159 OFFCURVE",
"-26 -170 CURVE",
"-5 -186 OFFCURVE",
"42 -200 OFFCURVE",
"70 -200 CURVE SMOOTH"
);
}
);
width = 360;
},
{
anchors = (
{
name = bottom;
position = "{191, 0}";
},
{
name = top;
position = "{191, 704}";
}
);
layerId = "C4D96FDC-31F2-4CF4-BEA5-4CCE99FECD99";
paths = (
{
closed = 1;
nodes = (
"100 -201 OFFCURVE",
"244 -82 OFFCURVE",
"280 30 CURVE",
"280 556 LINE SMOOTH",
"280 618 OFFCURVE",
"295 632 OFFCURVE",
"327 642 CURVE SMOOTH",
"370 655 LINE",
"370 677 OFFCURVE",
"363 696 OFFCURVE",
"357 704 CURVE",
"83 704 LINE SMOOTH",
"71 704 OFFCURVE",
"34 686 OFFCURVE",
"21 671 CURVE",
"22 660 OFFCURVE",
"28 642 OFFCURVE",
"33 637 CURVE",
"136 637 LINE",
"134 635 OFFCURVE",
"118 620 OFFCURVE",
"118 557 CURVE SMOOTH",
"118 -31 LINE",
"68 -60 OFFCURVE",
"5 -87 OFFCURVE",
"-78 -110 CURVE",
"-82 -120 OFFCURVE",
"-87 -138 OFFCURVE",
"-87 -155 CURVE",
"-55 -179 OFFCURVE",
"-2 -201 OFFCURVE",
"30 -201 CURVE SMOOTH"
);
}
);
width = 383;
},
{
anchors = (
{
name = bottom;
position = "{146, 0}";
},
{
name = top;
position = "{146, 709}";
}
);
background = {
paths = (
{
closed = 1;
nodes = (
"74 -200 OFFCURVE",
"172 -84 OFFCURVE",
"172 -54 CURVE SMOOTH",
"172 581 LINE SMOOTH",
"172 634 OFFCURVE",
"178 656 OFFCURVE",
"209 668 CURVE SMOOTH",
"244 681 LINE",
"243 693 OFFCURVE",
"236 701 OFFCURVE",
"232 704 CURVE",
"95 704 LINE SMOOTH",
"85 704 OFFCURVE",
"54 690 OFFCURVE",
"46 683 CURVE",
"47 675 OFFCURVE",
"50 669 OFFCURVE",
"53 666 CURVE",
"133 666 LINE",
"127 658 OFFCURVE",
"120 634 OFFCURVE",
"120 597 CURVE SMOOTH",
"120 -66 LINE",
"100 -106 OFFCURVE",
"45 -153 OFFCURVE",
"-26 -165 CURVE",
"-29 -168 OFFCURVE",
"-33 -176 OFFCURVE",
"-33 -185 CURVE",
"-13 -194 OFFCURVE",
"22 -200 OFFCURVE",
"42 -200 CURVE SMOOTH"
);
}
);
};
layerId = "65D1C757-52A4-41AF-B6F1-0B1906938095";
paths = (
{
closed = 1;
nodes = (
"73 -201 OFFCURVE",
"173 -85 OFFCURVE",
"173 -53 CURVE SMOOTH",
"173 584 LINE SMOOTH",
"173 646 OFFCURVE",
"184 662 OFFCURVE",
"212 672 CURVE SMOOTH",
"247 685 LINE",
"246 697 OFFCURVE",
"238 706 OFFCURVE",
"235 709 CURVE",
"92 709 LINE SMOOTH",
"82 709 OFFCURVE",
"51 694 OFFCURVE",
"43 687 CURVE",
"43 679 OFFCURVE",
"47 672 OFFCURVE",
"50 670 CURVE",
"132 670 LINE",
"126 662 OFFCURVE",
"119 638 OFFCURVE",
"119 599 CURVE SMOOTH",
"119 -67 LINE",
"93 -111 OFFCURVE",
"37 -149 OFFCURVE",
"-28 -165 CURVE",
"-31 -168 OFFCURVE",
"-35 -175 OFFCURVE",
"-35 -185 CURVE",
"-16 -194 OFFCURVE",
"19 -201 OFFCURVE",
"42 -201 CURVE SMOOTH"
);
}
);
width = 294;
},
{
anchors = (
{
name = bottom;
position = "{156, 0}";
},
{
name = top;
position = "{156, 704}";
}
);
background = {
paths = (
{
closed = 1;
nodes = (
"74 -200 OFFCURVE",
"172 -84 OFFCURVE",
"172 -54 CURVE SMOOTH",
"172 581 LINE SMOOTH",
"172 634 OFFCURVE",
"178 656 OFFCURVE",
"209 668 CURVE SMOOTH",
"244 681 LINE",
"243 693 OFFCURVE",
"236 701 OFFCURVE",
"232 704 CURVE",
"95 704 LINE SMOOTH",
"85 704 OFFCURVE",
"54 690 OFFCURVE",
"46 683 CURVE",
"47 675 OFFCURVE",
"50 669 OFFCURVE",
"53 666 CURVE",
"133 666 LINE",
"127 658 OFFCURVE",
"120 634 OFFCURVE",
"120 597 CURVE SMOOTH",
"120 -66 LINE",
"100 -106 OFFCURVE",
"45 -153 OFFCURVE",
"-26 -165 CURVE",
"-29 -168 OFFCURVE",
"-33 -176 OFFCURVE",
"-33 -185 CURVE",
"-13 -194 OFFCURVE",
"22 -200 OFFCURVE",
"42 -200 CURVE SMOOTH"
);
}
);
};
layerId = "891D9FC5-7784-4CE6-B01A-BC8B0C8DC68C";
paths = (
{
closed = 1;
nodes = (
"85 -200 OFFCURVE",
"186 -88 OFFCURVE",
"187 -45 CURVE SMOOTH",
"187 577 LINE SMOOTH",
"187 632 OFFCURVE",
"196 652 OFFCURVE",
"230 664 CURVE SMOOTH",
"266 677 LINE",
"266 692 OFFCURVE",
"257 701 OFFCURVE",
"254 704 CURVE",
"94 704 LINE SMOOTH",
"83 704 OFFCURVE",
"51 688 OFFCURVE",
"42 678 CURVE",
"42 676 OFFCURVE",
"46 664 OFFCURVE",
"51 661 CURVE",
"138 661 LINE",
"130 653 OFFCURVE",
"123 623 OFFCURVE",
"123 587 CURVE SMOOTH",
"123 -64 LINE",
"98 -99 OFFCURVE",
"45 -138 OFFCURVE",
"-21 -159 CURVE",
"-25 -162 OFFCURVE",
"-28 -172 OFFCURVE",
"-28 -180 CURVE",
"-7 -192 OFFCURVE",
"32 -200 OFFCURVE",
"53 -200 CURVE SMOOTH"
);
}
);
width = 315;
},
{
anchors = (
{
name = bottom;
position = "{198, 0}";
},
{
name = top;
position = "{198, 704}";
}
);
layerId = "FC63F3C5-4BD2-445A-988E-6411A2DDD46F";
paths = (
{
closed = 1;
nodes = (
"111 -200 OFFCURVE",
"227 -91 OFFCURVE",
"253 -12 CURVE",
"253 567 LINE SMOOTH",
"253 629 OFFCURVE",
"267 642 OFFCURVE",
"304 653 CURVE SMOOTH",
"348 666 LINE",
"348 682 OFFCURVE",
"341 698 OFFCURVE",
"335 704 CURVE",
"103 704 LINE SMOOTH",
"91 704 OFFCURVE",
"52 685 OFFCURVE",
"41 671 CURVE",
"42 661 OFFCURVE",
"48 654 OFFCURVE",
"53 648 CURVE",
"161 648 LINE",
"153 643 OFFCURVE",
"142 618 OFFCURVE",
"142 568 CURVE SMOOTH",
"142 -54 LINE",
"103 -83 OFFCURVE",
"41 -118 OFFCURVE",
"-31 -138 CURVE",
"-35 -143 OFFCURVE",
"-39 -154 OFFCURVE",
"-39 -166 CURVE",
"-15 -183 OFFCURVE",
"34 -200 OFFCURVE",
"65 -200 CURVE SMOOTH"
);
}
);
width = 394;
},
{
anchors = (
{
name = bottom;
position = "{204, 0}";
},
{
name = top;
position = "{204, 704}";
}
);
layerId = "B67CA61C-C7DB-4511-8D93-FE28BE810A6B";
paths = (
{
closed = 1;
nodes = (
"92 -201 OFFCURVE",
"257 -76 OFFCURVE",
"291 45 CURVE",
"291 553 LINE SMOOTH",
"291 616 OFFCURVE",
"309 632 OFFCURVE",
"334 639 CURVE SMOOTH",
"377 652 LINE",
"376 676 OFFCURVE",
"369 694 OFFCURVE",
"363 704 CURVE",
"84 704 LINE SMOOTH",
"72 704 OFFCURVE",
"34 686 OFFCURVE",
"24 675 CURVE",
"25 658 OFFCURVE",
"31 640 OFFCURVE",
"35 635 CURVE",
"132 635 LINE",
"122 628 OFFCURVE",
"115 596 OFFCURVE",
"115 561 CURVE SMOOTH",
"115 -20 LINE",
"61 -57 OFFCURVE",
"-16 -80 OFFCURVE",
"-100 -100 CURVE",
"-104 -111 OFFCURVE",
"-110 -135 OFFCURVE",
"-110 -154 CURVE",
"-78 -176 OFFCURVE",
"-23 -201 OFFCURVE",
"12 -201 CURVE SMOOTH"
);
}
);
width = 401;
}
);
leftKerningGroup = J;
rightKerningGroup = J;
unicode = 004A;
},
{
color = 6;
glyphname = K;
layers = (
{
anchors = (
{
name = bottom;
position = "{331, 0}";
},
{
name = top;
position = "{331, 704}";
}
);
layerId = UUID0;
paths = (
{
closed = 1;
nodes = (
"267 0 OFFCURVE",
"302 16 OFFCURVE",
"321 34 CURVE",
"321 45 OFFCURVE",
"317 53 OFFCURVE",
"314 56 CURVE",
"208 67 LINE",
"216 76 OFFCURVE",
"226 101 OFFCURVE",
"226 135 CURVE SMOOTH",
"226 334 LINE",
"285 334 LINE SMOOTH",
"326 334 OFFCURVE",
"339 324 OFFCURVE",
"360 280 CURVE SMOOTH",
"437 120 LINE SMOOTH",
"482 26 OFFCURVE",
"517 0 OFFCURVE",
"567 0 CURVE SMOOTH",
"597 0 OFFCURVE",
"638 10 OFFCURVE",
"661 35 CURVE",
"661 46 OFFCURVE",
"656 55 OFFCURVE",
"653 59 CURVE",
"634 60 LINE SMOOTH",
"569 63 OFFCURVE",
"540 130 OFFCURVE",
"498 205 CURVE SMOOTH",
"405 370 LINE",
"432 440 OFFCURVE",
"507 624 OFFCURVE",
"614 657 CURVE SMOOTH",
"659 671 LINE",
"659 686 OFFCURVE",
"652 698 OFFCURVE",
"646 704 CURVE",
"498 704 LINE",
"434 652 OFFCURVE",
"358 449 OFFCURVE",
"330 393 CURVE",
"226 389 LINE",
"226 572 LINE SMOOTH",
"226 643 OFFCURVE",
"246 648 OFFCURVE",
"278 658 CURVE SMOOTH",
"321 671 LINE",
"321 686 OFFCURVE",
"314 698 OFFCURVE",
"308 704 CURVE",
"104 704 LINE SMOOTH",
"92 704 OFFCURVE",
"54 685 OFFCURVE",
"43 671 CURVE",
"44 662 OFFCURVE",
"51 656 OFFCURVE",
"55 653 CURVE",
"153 653 LINE",
"145 647 OFFCURVE",
"134 620 OFFCURVE",
"134 571 CURVE SMOOTH",
"134 164 LINE SMOOTH",
"134 92 OFFCURVE",
"132 69 OFFCURVE",
"83 62 CURVE SMOOTH",
"54 58 LINE",
"50 54 OFFCURVE",
"44 45 OFFCURVE",
"44 34 CURVE",
"72 24 OFFCURVE",
"217 0 OFFCURVE",
"242 0 CURVE SMOOTH"
);
}
);
width = 661;
},
{
anchors = (
{
name = bottom;
position = "{372, 0}";
},
{
name = top;
position = "{372, 704}";
}
);
layerId = "C4D96FDC-31F2-4CF4-BEA5-4CCE99FECD99";
paths = (
{
closed = 1;
nodes = (
"310 0 OFFCURVE",
"344 17 OFFCURVE",
"363 35 CURVE",
"363 52 OFFCURVE",
"358 64 OFFCURVE",
"355 69 CURVE",
"261 83 LINE",
"268 91 OFFCURVE",
"279 115 OFFCURVE",
"279 152 CURVE SMOOTH",
"279 327 LINE",
"318 327 LINE SMOOTH",
"344 327 OFFCURVE",
"352 314 OFFCURVE",
"363 291 CURVE SMOOTH",
"462 86 LINE SMOOTH",
"491 26 OFFCURVE",
"533 0 OFFCURVE",
"597 0 CURVE SMOOTH",
"632 0 OFFCURVE",
"705 12 OFFCURVE",
"744 38 CURVE",
"744 61 OFFCURVE",
"735 79 OFFCURVE",
"729 86 CURVE",
"710 86 LINE SMOOTH",
"654 86 OFFCURVE",
"626 111 OFFCURVE",
"599 160 CURVE SMOOTH",
"472 391 LINE",
"515 478 OFFCURVE",
"600 610 OFFCURVE",
"692 641 CURVE SMOOTH",
"740 657 LINE",
"740 680 OFFCURVE",
"731 698 OFFCURVE",
"725 704 CURVE",
"512 704 LINE",
"438 638 OFFCURVE",
"391 479 OFFCURVE",
"373 400 CURVE",
"279 395 LINE",
"279 556 LINE SMOOTH",
"279 625 OFFCURVE",
"300 634 OFFCURVE",
"326 642 CURVE SMOOTH",
"370 655 LINE",
"370 675 OFFCURVE",
"363 696 OFFCURVE",
"357 704 CURVE",
"92 704 LINE SMOOTH",
"81 704 OFFCURVE",
"42 685 OFFCURVE",
"31 671 CURVE",
"32 655 OFFCURVE",
"39 641 OFFCURVE",
"43 637 CURVE",
"135 637 LINE",
"134 635 OFFCURVE",
"117 621 OFFCURVE",
"117 557 CURVE SMOOTH",
"117 180 LINE SMOOTH",
"117 107 OFFCURVE",
"106 80 OFFCURVE",
"70 75 CURVE SMOOTH",
"41 71 LINE",
"37 65 OFFCURVE",
"32 50 OFFCURVE",
"32 35 CURVE",
"60 25 OFFCURVE",
"263 0 OFFCURVE",
"285 0 CURVE SMOOTH"
);
}
);
width = 744;
},
{
anchors = (
{
name = bottom;
position = "{299, 0}";
},
{
name = top;
position = "{299, 709}";
}
);
layerId = "65D1C757-52A4-41AF-B6F1-0B1906938095";
paths = (
{
closed = 1;
nodes = (
"197 0 OFFCURVE",
"224 9 OFFCURVE",
"246 23 CURVE",
"245 30 OFFCURVE",
"242 36 OFFCURVE",
"240 40 CURVE",
"160 48 LINE",
"165 54 OFFCURVE",
"173 75 OFFCURVE",
"173 104 CURVE SMOOTH",
"173 352 LINE",
"254 352 LINE SMOOTH",
"294 352 OFFCURVE",
"307 336 OFFCURVE",
"319 311 CURVE SMOOTH",
"429 80 LINE SMOOTH",
"458 19 OFFCURVE",
"492 0 OFFCURVE",
"519 0 CURVE SMOOTH",
"542 0 OFFCURVE",
"578 15 OFFCURVE",
"598 31 CURVE",
"598 41 OFFCURVE",
"593 47 OFFCURVE",
"590 51 CURVE",
"569 51 LINE SMOOTH",
"509 51 OFFCURVE",
"499 75 OFFCURVE",
"467 137 CURVE SMOOTH",
"343 374 LINE",
"372 447 OFFCURVE",
"454 649 OFFCURVE",
"555 675 CURVE SMOOTH",
"594 685 LINE",
"594 694 OFFCURVE",
"589 704 OFFCURVE",
"584 709 CURVE",
"482 709 LINE",
"391 622 OFFCURVE",
"331 463 OFFCURVE",
"296 392 CURVE",
"173 389 LINE",
"173 584 LINE SMOOTH",
"173 645 OFFCURVE",
"183 662 OFFCURVE",
"211 672 CURVE SMOOTH",
"247 685 LINE",
"246 695 OFFCURVE",
"239 705 OFFCURVE",
"234 709 CURVE",
"102 709 LINE SMOOTH",
"92 709 OFFCURVE",
"60 694 OFFCURVE",
"52 687 CURVE",
"53 677 OFFCURVE",
"56 674 OFFCURVE",
"59 670 CURVE",
"131 670 LINE",
"125 662 OFFCURVE",
"118 636 OFFCURVE",
"118 599 CURVE SMOOTH",
"118 116 LINE SMOOTH",
"118 60 OFFCURVE",
"104 46 OFFCURVE",
"80 43 CURVE SMOOTH",
"57 40 LINE",
"54 37 OFFCURVE",
"50 30 OFFCURVE",
"50 23 CURVE",
"78 14 OFFCURVE",
"156 0 OFFCURVE",
"177 0 CURVE SMOOTH"
);
}
);
width = 598;
},
{
anchors = (
{
name = bottom;
position = "{304, 0}";
},
{
name = top;
position = "{304, 704}";
}
);
layerId = "891D9FC5-7784-4CE6-B01A-BC8B0C8DC68C";
paths = (
{
closed = 1;
nodes = (
"214 0 OFFCURVE",
"243 9 OFFCURVE",
"266 26 CURVE",
"265 32 OFFCURVE",
"262 42 OFFCURVE",
"259 45 CURVE",
"175 53 LINE",
"181 61 OFFCURVE",
"189 84 OFFCURVE",
"189 113 CURVE SMOOTH",
"189 344 LINE",
"260 344 LINE SMOOTH",
"296 344 OFFCURVE",
"309 334 OFFCURVE",
"325 300 CURVE SMOOTH",
"422 92 LINE SMOOTH",
"452 28 OFFCURVE",
"484 0 OFFCURVE",
"521 0 CURVE SMOOTH",
"546 0 OFFCURVE",
"582 13 OFFCURVE",
"602 32 CURVE",
"602 42 OFFCURVE",
"598 50 OFFCURVE",
"595 54 CURVE",
"576 54 LINE SMOOTH",
"516 54 OFFCURVE",
"501 91 OFFCURVE",
"467 156 CURVE SMOOTH",
"356 371 LINE",
"382 438 OFFCURVE",
"459 638 OFFCURVE",
"560 666 CURVE SMOOTH",
"600 677 LINE",
"600 690 OFFCURVE",
"593 700 OFFCURVE",
"589 704 CURVE",
"475 704 LINE",
"395 629 OFFCURVE",
"328 448 OFFCURVE",
"301 390 CURVE",
"189 390 LINE",
"189 577 LINE SMOOTH",
"189 634 OFFCURVE",
"197 652 OFFCURVE",
"230 664 CURVE SMOOTH",
"266 677 LINE",
"265 691 OFFCURVE",
"259 699 OFFCURVE",
"254 704 CURVE",
"104 704 LINE SMOOTH",
"94 704 OFFCURVE",
"60 688 OFFCURVE",
"52 678 CURVE",
"52 676 OFFCURVE",
"56 664 OFFCURVE",
"60 661 CURVE",
"137 661 LINE",
"132 654 OFFCURVE",
"123 631 OFFCURVE",
"123 587 CURVE SMOOTH",
"123 130 LINE SMOOTH",
"123 66 OFFCURVE",
"111 53 OFFCURVE",
"83 49 CURVE SMOOTH",
"59 46 LINE",
"56 42 OFFCURVE",
"51 35 OFFCURVE",
"51 26 CURVE",
"81 16 OFFCURVE",
"177 0 OFFCURVE",
"196 0 CURVE SMOOTH"
);
}
);
width = 607;
},
{
anchors = (
{
name = bottom;
position = "{365, 0}";
},
{
name = top;
position = "{365, 704}";
}
);
layerId = "FC63F3C5-4BD2-445A-988E-6411A2DDD46F";
paths = (
{
closed = 1;
nodes = (
"291 0 OFFCURVE",
"328 16 OFFCURVE",
"348 34 CURVE",
"348 43 OFFCURVE",
"344 56 OFFCURVE",
"341 59 CURVE",
"237 71 LINE",
"245 80 OFFCURVE",
"255 106 OFFCURVE",
"255 139 CURVE SMOOTH",
"255 333 LINE",
"314 333 LINE SMOOTH",
"357 333 OFFCURVE",
"366 315 OFFCURVE",
"382 285 CURVE SMOOTH",
"469 117 LINE SMOOTH",
"519 21 OFFCURVE",
"561 0 OFFCURVE",
"607 0 CURVE SMOOTH",
"644 0 OFFCURVE",
"693 13 OFFCURVE",
"720 36 CURVE",
"720 50 OFFCURVE",
"713 62 OFFCURVE",
"709 66 CURVE",
"689 67 LINE SMOOTH",
"629 70 OFFCURVE",
"600 124 OFFCURVE",
"553 201 CURVE SMOOTH",
"446 377 LINE",
"479 451 OFFCURVE",
"562 620 OFFCURVE",
"669 653 CURVE SMOOTH",
"716 667 LINE",
"716 684 OFFCURVE",
"708 698 OFFCURVE",
"702 704 CURVE",
"531 704 LINE",
"457 645 OFFCURVE",
"384 447 OFFCURVE",
"362 395 CURVE",
"255 394 LINE",
"255 567 LINE SMOOTH",
"255 621 OFFCURVE",
"263 640 OFFCURVE",
"306 653 CURVE SMOOTH",
"350 666 LINE",
"350 681 OFFCURVE",
"343 698 OFFCURVE",
"337 704 CURVE",
"116 704 LINE SMOOTH",
"103 704 OFFCURVE",
"64 685 OFFCURVE",
"53 671 CURVE",
"54 662 OFFCURVE",
"60 653 OFFCURVE",
"65 648 CURVE",
"162 648 LINE",
"156 644 OFFCURVE",
"143 621 OFFCURVE",
"143 568 CURVE SMOOTH",
"143 167 LINE SMOOTH",
"143 78 OFFCURVE",
"128 70 OFFCURVE",
"93 65 CURVE SMOOTH",
"64 61 LINE",
"59 56 OFFCURVE",
"54 45 OFFCURVE",
"54 34 CURVE",
"83 24 OFFCURVE",
"242 0 OFFCURVE",
"267 0 CURVE SMOOTH"
);
}
);
width = 730;
},
{
anchors = (
{
name = bottom;
position = "{401, 0}";
},
{
name = top;
position = "{401, 704}";
}
);
layerId = "B67CA61C-C7DB-4511-8D93-FE28BE810A6B";
paths = (
{
closed = 1;
nodes = (
"323 0 OFFCURVE",
"355 15 OFFCURVE",
"376 32 CURVE",
"376 46 OFFCURVE",
"371 63 OFFCURVE",
"368 69 CURVE",
"282 83 LINE",
"290 91 OFFCURVE",
"299 115 OFFCURVE",
"299 147 CURVE SMOOTH",
"299 328 LINE",
"341 328 LINE SMOOTH",
"367 328 OFFCURVE",
"373 312 OFFCURVE",
"377 304 CURVE SMOOTH",
"475 105 LINE SMOOTH",
"527 -1 OFFCURVE",
"603 0 OFFCURVE",
"628 0 CURVE SMOOTH",
"668 0 OFFCURVE",
"749 16 OFFCURVE",
"792 38 CURVE",
"792 66 OFFCURVE",
"780 87 OFFCURVE",
"774 92 CURVE",
"754 92 LINE SMOOTH",
"729 92 OFFCURVE",
"690 82 OFFCURVE",
"635 176 CURVE SMOOTH",
"503 400 LINE",
"552 494 OFFCURVE",
"649 609 OFFCURVE",
"738 639 CURVE SMOOTH",
"787 655 LINE",
"787 680 OFFCURVE",
"777 699 OFFCURVE",
"771 704 CURVE",
"531 704 LINE",
"454 620 OFFCURVE",
"418 492 OFFCURVE",
"400 403 CURVE",
"299 397 LINE",
"299 553 LINE SMOOTH",
"299 624 OFFCURVE",
"321 632 OFFCURVE",
"343 639 CURVE SMOOTH",
"386 652 LINE",
"385 674 OFFCURVE",
"379 695 OFFCURVE",
"372 704 CURVE",
"103 704 LINE SMOOTH",
"92 704 OFFCURVE",
"53 686 OFFCURVE",
"43 675 CURVE",
"44 661 OFFCURVE",
"50 642 OFFCURVE",
"54 635 CURVE",
"140 635 LINE",
"131 629 OFFCURVE",
"124 598 OFFCURVE",
"124 561 CURVE SMOOTH",
"124 169 LINE SMOOTH",
"124 101 OFFCURVE",
"104 77 OFFCURVE",
"80 74 CURVE SMOOTH",
"51 70 LINE",
"47 63 OFFCURVE",
"43 45 OFFCURVE",
"43 32 CURVE",
"73 22 OFFCURVE",
"274 0 OFFCURVE",
"298 0 CURVE SMOOTH"
);
}
);
width = 802;
}
);
leftKerningGroup = H;
leftMetricsKey = H;
rightKerningGroup = K;
unicode = 004B;
},
{
color = 6;
glyphname = L;
layers = (
{
anchors = (
{
name = bottom;
position = "{322, 0}";
},
{
name = center;
position = "{467, 375}";
},
{
name = top;
position = "{187, 704}";
},
{
name = topright;
position = "{356, 500}";
}
);
layerId = UUID0;
paths = (
{
closed = 1;
nodes = (
"469 0 OFFCURVE",
"513 29 OFFCURVE",
"530 46 CURVE",
"536 85 OFFCURVE",
"543 158 OFFCURVE",
"543 216 CURVE",
"536 223 OFFCURVE",
"518 232 OFFCURVE",
"495 232 CURVE",
"445 69 LINE",
"208 69 LINE",
"216 79 OFFCURVE",
"226 104 OFFCURVE",
"226 138 CURVE SMOOTH",
"226 572 LINE",
"226 643 OFFCURVE",
"246 648 OFFCURVE",
"278 658 CURVE SMOOTH",
"321 671 LINE",
"321 686 OFFCURVE",
"314 698 OFFCURVE",
"308 704 CURVE",
"104 704 LINE SMOOTH",
"92 704 OFFCURVE",
"54 685 OFFCURVE",
"43 671 CURVE",
"44 662 OFFCURVE",
"51 656 OFFCURVE",
"55 653 CURVE",
"153 653 LINE",
"145 647 OFFCURVE",
"134 620 OFFCURVE",
"134 571 CURVE SMOOTH",
"134 163 LINE SMOOTH",
"134 90 OFFCURVE",
"132 69 OFFCURVE",
"83 62 CURVE SMOOTH",
"54 58 LINE",
"50 54 OFFCURVE",
"44 45 OFFCURVE",
"44 34 CURVE",
"123 19 OFFCURVE",
"347 0 OFFCURVE",
"449 0 CURVE SMOOTH"
);
}
);
width = 566;
},
{
anchors = (
{
name = bottom;
position = "{318, 0}";
},
{
name = center;
position = "{496, 375}";
},
{
name = top;
position = "{199, 704}";
},
{
name = topright;
position = "{409, 500}";
}
);
layerId = "C4D96FDC-31F2-4CF4-BEA5-4CCE99FECD99";
paths = (
{
closed = 1;
nodes = (
"520 0 OFFCURVE",
"558 29 OFFCURVE",
"568 46 CURVE",
"577 91 OFFCURVE",
"588 185 OFFCURVE",
"588 259 CURVE",
"576 266 OFFCURVE",
"543 279 OFFCURVE",
"501 279 CURVE",
"430 83 LINE",
"261 83 LINE",
"269 92 OFFCURVE",
"279 117 OFFCURVE",
"279 152 CURVE SMOOTH",
"279 556 LINE SMOOTH",
"279 625 OFFCURVE",
"300 634 OFFCURVE",
"326 642 CURVE SMOOTH",
"370 655 LINE",
"370 675 OFFCURVE",
"363 696 OFFCURVE",
"357 704 CURVE",
"92 704 LINE SMOOTH",
"81 704 OFFCURVE",
"42 685 OFFCURVE",
"31 671 CURVE",
"32 655 OFFCURVE",
"39 641 OFFCURVE",
"43 637 CURVE",
"135 637 LINE",
"134 635 OFFCURVE",
"117 621 OFFCURVE",
"117 557 CURVE SMOOTH",
"117 180 LINE SMOOTH",
"117 107 OFFCURVE",
"106 80 OFFCURVE",
"70 75 CURVE SMOOTH",
"41 71 LINE",
"37 65 OFFCURVE",
"32 51 OFFCURVE",
"32 35 CURVE",
"127 18 OFFCURVE",
"410 0 OFFCURVE",
"508 0 CURVE SMOOTH"
);
}
);
width = 597;
},
{
anchors = (
{
name = bottom;
position = "{283, 0}";
},
{
name = center;
position = "{412, 375}";
},
{
name = top;
position = "{147, 709}";
},
{
name = topright;
position = "{285, 504}";
}
);
layerId = "65D1C757-52A4-41AF-B6F1-0B1906938095";
paths = (
{
closed = 1;
nodes = (
"437 6 OFFCURVE",
"464 23 OFFCURVE",
"479 34 CURVE",
"483 103 OFFCURVE",
"484 164 OFFCURVE",
"484 188 CURVE",
"481 191 OFFCURVE",
"470 197 OFFCURVE",
"458 197 CURVE",
"414 49 LINE",
"161 49 LINE",
"167 57 OFFCURVE",
"173 78 OFFCURVE",
"173 104 CURVE SMOOTH",
"173 584 LINE SMOOTH",
"173 645 OFFCURVE",
"183 662 OFFCURVE",
"211 672 CURVE SMOOTH",
"247 685 LINE",
"246 695 OFFCURVE",
"239 705 OFFCURVE",
"234 709 CURVE",
"102 709 LINE SMOOTH",
"92 709 OFFCURVE",
"60 694 OFFCURVE",
"52 687 CURVE",
"53 677 OFFCURVE",
"56 674 OFFCURVE",
"59 670 CURVE",
"131 670 LINE",
"125 662 OFFCURVE",
"118 636 OFFCURVE",
"118 599 CURVE SMOOTH",
"118 116 LINE SMOOTH",
"118 60 OFFCURVE",
"104 48 OFFCURVE",
"80 45 CURVE SMOOTH",
"57 42 LINE",
"54 38 OFFCURVE",
"50 30 OFFCURVE",
"50 23 CURVE",
"132 12 OFFCURVE",
"339 0 OFFCURVE",
"412 0 CURVE"
);
}
);
width = 523;
},
{
anchors = (
{
name = bottom;
position = "{274, 0}";
},
{
name = center;
position = "{423, 375}";
},
{
name = top;
position = "{159, 704}";
},
{
name = topright;
position = "{302, 500}";
}
);
layerId = "891D9FC5-7784-4CE6-B01A-BC8B0C8DC68C";
paths = (
{
closed = 1;
nodes = (
"431 3 OFFCURVE",
"466 23 OFFCURVE",
"483 38 CURVE",
"488 99 OFFCURVE",
"491 160 OFFCURVE",
"491 196 CURVE",
"486 200 OFFCURVE",
"476 207 OFFCURVE",
"458 207 CURVE",
"414 54 LINE",
"176 54 LINE",
"181 62 OFFCURVE",
"189 84 OFFCURVE",
"189 114 CURVE SMOOTH",
"189 577 LINE SMOOTH",
"189 634 OFFCURVE",
"197 652 OFFCURVE",
"230 664 CURVE SMOOTH",
"266 677 LINE",
"265 691 OFFCURVE",
"259 699 OFFCURVE",
"254 704 CURVE",
"104 704 LINE SMOOTH",
"94 704 OFFCURVE",
"60 688 OFFCURVE",
"52 678 CURVE",
"52 676 OFFCURVE",
"56 664 OFFCURVE",
"60 661 CURVE",
"137 661 LINE",
"132 654 OFFCURVE",
"123 631 OFFCURVE",
"123 587 CURVE SMOOTH",
"123 130 LINE SMOOTH",
"123 72 OFFCURVE",
"114 54 OFFCURVE",
"82 50 CURVE SMOOTH",
"59 47 LINE",
"56 43 OFFCURVE",
"51 35 OFFCURVE",
"51 26 CURVE",
"138 13 OFFCURVE",
"341 0 OFFCURVE",
"414 0 CURVE"
);
}
);
width = 528;
},
{
anchors = (
{
name = bottom;
position = "{309, 0}";
},
{
name = center;
position = "{505, 375}";
},
{
name = top;
position = "{204, 704}";
},
{
name = topright;
position = "{388, 500}";
}
);
layerId = "FC63F3C5-4BD2-445A-988E-6411A2DDD46F";
paths = (
{
closed = 1;
nodes = (
"506 0 OFFCURVE",
"554 29 OFFCURVE",
"570 46 CURVE",
"576 85 OFFCURVE",
"585 161 OFFCURVE",
"585 228 CURVE",
"577 234 OFFCURVE",
"555 245 OFFCURVE",
"526 245 CURVE",
"468 72 LINE",
"237 72 LINE",
"245 82 OFFCURVE",
"255 108 OFFCURVE",
"255 140 CURVE SMOOTH",
"255 567 LINE SMOOTH",
"255 621 OFFCURVE",
"263 640 OFFCURVE",
"306 653 CURVE SMOOTH",
"350 666 LINE",
"350 681 OFFCURVE",
"343 698 OFFCURVE",
"337 704 CURVE",
"116 704 LINE SMOOTH",
"103 704 OFFCURVE",
"64 685 OFFCURVE",
"53 671 CURVE",
"54 662 OFFCURVE",
"60 653 OFFCURVE",
"65 648 CURVE",
"162 648 LINE",
"157 645 OFFCURVE",
"143 623 OFFCURVE",
"143 568 CURVE SMOOTH",
"143 166 LINE SMOOTH",
"143 86 OFFCURVE",
"132 70 OFFCURVE",
"93 65 CURVE SMOOTH",
"64 61 LINE",
"59 56 OFFCURVE",
"54 45 OFFCURVE",
"54 34 CURVE",
"136 19 OFFCURVE",
"386 0 OFFCURVE",
"488 0 CURVE SMOOTH"
);
}
);
width = 618;
},
{
anchors = (
{
name = bottom;
position = "{320, 0}";
},
{
name = center;
position = "{527, 375}";
},
{
name = top;
position = "{208, 704}";
},
{
name = topright;
position = "{429, 500}";
}
);
layerId = "B67CA61C-C7DB-4511-8D93-FE28BE810A6B";
paths = (
{
closed = 1;
nodes = (
"548 0 OFFCURVE",
"590 28 OFFCURVE",
"600 42 CURVE",
"608 98 OFFCURVE",
"619 190 OFFCURVE",
"619 266 CURVE",
"603 273 OFFCURVE",
"565 283 OFFCURVE",
"526 283 CURVE",
"447 81 LINE",
"283 81 LINE",
"290 89 OFFCURVE",
"299 114 OFFCURVE",
"299 144 CURVE SMOOTH",
"299 553 LINE SMOOTH",
"299 624 OFFCURVE",
"321 632 OFFCURVE",
"343 639 CURVE SMOOTH",
"386 652 LINE",
"385 674 OFFCURVE",
"379 695 OFFCURVE",
"372 704 CURVE",
"103 704 LINE SMOOTH",
"92 704 OFFCURVE",
"53 686 OFFCURVE",
"43 675 CURVE",
"44 661 OFFCURVE",
"50 642 OFFCURVE",
"54 635 CURVE",
"140 635 LINE",
"141 634 OFFCURVE",
"124 626 OFFCURVE",
"124 561 CURVE SMOOTH",
"124 169 LINE SMOOTH",
"124 111 OFFCURVE",
"109 77 OFFCURVE",
"80 74 CURVE SMOOTH",
"51 71 LINE",
"48 65 OFFCURVE",
"43 48 OFFCURVE",
"43 32 CURVE",
"136 15 OFFCURVE",
"468 0 OFFCURVE",
"537 0 CURVE SMOOTH"
);
}
);
width = 640;
}
);
leftKerningGroup = H;
leftMetricsKey = H;
rightKerningGroup = L;
unicode = 004C;
},
{
color = 3;
glyphname = Lslash;
layers = (
{
components = (
{
name = L;
}
);
layerId = UUID0;
paths = (
{
closed = 1;
nodes = (
"449 428 LINE",
"448 452 OFFCURVE",
"441 482 OFFCURVE",
"418 495 CURVE",
"24 295 LINE",
"25 283 OFFCURVE",
"27 267 OFFCURVE",
"44 253 CURVE"
);
}
);
width = 566;
},
{
components = (
{
name = L;
}
);
layerId = "65D1C757-52A4-41AF-B6F1-0B1906938095";
paths = (
{
closed = 1;
nodes = (
"412 435 LINE",
"411 452 OFFCURVE",
"405 471 OFFCURVE",
"390 480 CURVE",
"17 289 LINE",
"17 280 OFFCURVE",
"21 272 OFFCURVE",
"27 267 CURVE"
);
}
);
width = 523;
},
{
components = (
{
name = L;
}
);
layerId = "C4D96FDC-31F2-4CF4-BEA5-4CCE99FECD99";
paths = (
{
closed = 1;
nodes = (
"484 418 LINE",
"483 449 OFFCURVE",
"473 488 OFFCURVE",
"443 505 CURVE",
"12 290 LINE",
"14 272 OFFCURVE",
"22 244 OFFCURVE",
"42 228 CURVE"
);
}
);
width = 597;
},
{
components = (
{
name = L;
}
);
layerId = "891D9FC5-7784-4CE6-B01A-BC8B0C8DC68C";
paths = (
{
closed = 1;
nodes = (
"412 435 LINE",
"411 452 OFFCURVE",
"405 471 OFFCURVE",
"390 480 CURVE",
"17 289 LINE",
"17 280 OFFCURVE",
"21 272 OFFCURVE",
"27 267 CURVE"
);
}
);
width = 528;
},
{
components = (
{
name = L;
}
);
layerId = "FC63F3C5-4BD2-445A-988E-6411A2DDD46F";
paths = (
{
closed = 1;
nodes = (
"449 428 LINE",
"448 452 OFFCURVE",
"441 482 OFFCURVE",
"418 495 CURVE",
"24 295 LINE",
"25 283 OFFCURVE",
"27 267 OFFCURVE",
"44 253 CURVE"
);
}
);
width = 618;
},
{
components = (
{
name = L;
}
);
layerId = "B67CA61C-C7DB-4511-8D93-FE28BE810A6B";
paths = (
{
closed = 1;
nodes = (
"484 418 LINE",
"483 449 OFFCURVE",
"473 488 OFFCURVE",
"443 505 CURVE",
"12 290 LINE",
"14 272 OFFCURVE",
"22 244 OFFCURVE",
"42 228 CURVE"
);
}
);
width = 640;
}
);
leftKerningGroup = H;
rightKerningGroup = L;
rightMetricsKey = L;
unicode = 0141;
},
{
color = 6;
glyphname = M;
layers = (
{
anchors = (
{
name = bottom;
position = "{485, 0}";
},
{
name = top;
position = "{485, 704}";
}
);
layerId = UUID0;
paths = (
{
closed = 1;
nodes = (
"258 0 OFFCURVE",
"294 14 OFFCURVE",
"315 34 CURVE",
"315 45 OFFCURVE",
"311 53 OFFCURVE",
"308 56 CURVE",
"177 70 LINE",
"184 74 OFFCURVE",
"195 96 OFFCURVE",
"197 141 CURVE SMOOTH",
"217 565 LINE SMOOTH",
"219 607 OFFCURVE",
"222 621 OFFCURVE",
"225 634 CURVE",
"231 634 LINE",
"234 613 OFFCURVE",
"242 572 OFFCURVE",
"257 535 CURVE SMOOTH",
"437 88 LINE",
"473 88 OFFCURVE",
"499 105 OFFCURVE",
"508 117 CURVE",
"726 643 LINE",
"734 640 LINE",
"729 625 OFFCURVE",
"724 584 OFFCURVE",
"727 531 CURVE SMOOTH",
"745 164 LINE SMOOTH",
"749 84 OFFCURVE",
"743 68 OFFCURVE",
"694 62 CURVE SMOOTH",
"665 58 LINE",
"661 54 OFFCURVE",
"655 45 OFFCURVE",
"655 34 CURVE",
"683 24 OFFCURVE",
"828 0 OFFCURVE",
"853 0 CURVE SMOOTH",
"878 0 OFFCURVE",
"913 16 OFFCURVE",
"932 34 CURVE",
"932 45 OFFCURVE",
"928 53 OFFCURVE",
"925 56 CURVE",
"820 66 LINE",
"828 74 OFFCURVE",
"838 100 OFFCURVE",
"836 143 CURVE SMOOTH",
"815 572 LINE SMOOTH",
"812 625 OFFCURVE",
"825 644 OFFCURVE",
"869 658 CURVE SMOOTH",
"912 671 LINE",
"912 686 OFFCURVE",
"905 698 OFFCURVE",
"899 704 CURVE",
"676 704 LINE",
"637 541 OFFCURVE",
"514 273 OFFCURVE",
"481 208 CURVE",
"282 704 LINE",
"118 704 LINE SMOOTH",
"106 704 OFFCURVE",
"68 685 OFFCURVE",
"57 671 CURVE",
"59 662 OFFCURVE",
"65 656 OFFCURVE",
"69 653 CURVE",
"170 653 LINE",
"164 644 OFFCURVE",
"154 615 OFFCURVE",
"151 566 CURVE SMOOTH",
"130 167 LINE SMOOTH",
"126 89 OFFCURVE",
"116 67 OFFCURVE",
"77 62 CURVE SMOOTH",
"48 58 LINE",
"44 54 OFFCURVE",
"38 45 OFFCURVE",
"38 34 CURVE",
"70 23 OFFCURVE",
"212 0 OFFCURVE",
"236 0 CURVE SMOOTH"
);
}
);
width = 970;
},
{
anchors = (
{
name = bottom;
position = "{487, 0}";
},
{
name = top;
position = "{487, 704}";
}
);
layerId = "C4D96FDC-31F2-4CF4-BEA5-4CCE99FECD99";
paths = (
{
closed = 1;
nodes = (
"251 0 OFFCURVE",
"298 15 OFFCURVE",
"319 35 CURVE",
"319 50 OFFCURVE",
"314 64 OFFCURVE",
"311 69 CURVE",
"181 85 LINE",
"190 99 OFFCURVE",
"195 121 OFFCURVE",
"197 147 CURVE SMOOTH",
"213 517 LINE SMOOTH",
"215 559 OFFCURVE",
"219 583 OFFCURVE",
"221 596 CURVE",
"227 596 LINE",
"229 576 OFFCURVE",
"239 529 OFFCURVE",
"254 487 CURVE SMOOTH",
"399 75 LINE",
"439 75 OFFCURVE",
"481 87 OFFCURVE",
"500 96 CURVE",
"683 596 LINE",
"691 593 LINE",
"686 581 OFFCURVE",
"681 550 OFFCURVE",
"684 488 CURVE SMOOTH",
"702 174 LINE SMOOTH",
"707 91 OFFCURVE",
"696 81 OFFCURVE",
"650 76 CURVE SMOOTH",
"613 72 LINE",
"609 65 OFFCURVE",
"603 52 OFFCURVE",
"603 34 CURVE",
"632 24 OFFCURVE",
"828 0 OFFCURVE",
"865 0 CURVE SMOOTH",
"889 0 OFFCURVE",
"925 17 OFFCURVE",
"944 35 CURVE",
"944 51 OFFCURVE",
"939 64 OFFCURVE",
"936 69 CURVE",
"841 84 LINE",
"849 88 OFFCURVE",
"859 112 OFFCURVE",
"857 154 CURVE SMOOTH",
"836 555 LINE SMOOTH",
"833 613 OFFCURVE",
"848 629 OFFCURVE",
"890 642 CURVE SMOOTH",
"933 655 LINE",
"933 675 OFFCURVE",
"926 696 OFFCURVE",
"920 704 CURVE",
"627 704 LINE",
"590 562 OFFCURVE",
"528 377 OFFCURVE",
"486 284 CURVE",
"332 704 LINE",
"105 704 LINE SMOOTH",
"93 704 OFFCURVE",
"55 685 OFFCURVE",
"43 671 CURVE",
"45 653 OFFCURVE",
"52 641 OFFCURVE",
"56 637 CURVE",
"152 637 LINE",
"146 631 OFFCURVE",
"136 603 OFFCURVE",
"133 554 CURVE SMOOTH",
"112 179 LINE SMOOTH",
"107 97 OFFCURVE",
"102 81 OFFCURVE",
"63 75 CURVE SMOOTH",
"38 71 LINE",
"34 65 OFFCURVE",
"29 50 OFFCURVE",
"29 35 CURVE",
"61 24 OFFCURVE",
"209 0 OFFCURVE",
"230 0 CURVE SMOOTH"
);
}
);
width = 973;
},
{
anchors = (
{
name = bottom;
position = "{435, 0}";
},
{
name = top;
position = "{435, 709}";
}
);
layerId = "65D1C757-52A4-41AF-B6F1-0B1906938095";
paths = (
{
closed = 1;
nodes = (
"182 0 OFFCURVE",
"217 9 OFFCURVE",
"238 23 CURVE",
"238 25 OFFCURVE",
"235 37 OFFCURVE",
"232 40 CURVE",
"145 48 LINE",
"151 54 OFFCURVE",
"158 72 OFFCURVE",
"160 109 CURVE SMOOTH",
"182 573 LINE SMOOTH",
"184 613 OFFCURVE",
"187 630 OFFCURVE",
"191 637 CURVE",
"195 637 LINE",
"196 627 OFFCURVE",
"199 602 OFFCURVE",
"217 558 CURVE SMOOTH",
"401 83 LINE",
"427 83 OFFCURVE",
"449 95 OFFCURVE",
"458 104 CURVE",
"669 643 LINE",
"674 642 LINE",
"671 632 OFFCURVE",
"669 599 OFFCURVE",
"671 559 CURVE SMOOTH",
"690 172 LINE SMOOTH",
"695 73 OFFCURVE",
"692 43 OFFCURVE",
"661 42 CURVE SMOOTH",
"628 40 LINE",
"625 37 OFFCURVE",
"621 29 OFFCURVE",
"621 23 CURVE",
"649 13 OFFCURVE",
"734 0 OFFCURVE",
"758 0 CURVE SMOOTH",
"781 0 OFFCURVE",
"812 12 OFFCURVE",
"827 23 CURVE",
"826 32 OFFCURVE",
"823 36 OFFCURVE",
"821 40 CURVE",
"738 47 LINE",
"744 54 OFFCURVE",
"751 82 OFFCURVE",
"749 125 CURVE SMOOTH",
"725 599 LINE SMOOTH",
"723 648 OFFCURVE",
"736 661 OFFCURVE",
"766 672 CURVE SMOOTH",
"802 685 LINE",
"801 698 OFFCURVE",
"794 704 OFFCURVE",
"790 709 CURVE",
"645 709 LINE",
"586 532 OFFCURVE",
"475 253 OFFCURVE",
"433 159 CURVE",
"221 709 LINE",
"124 709 LINE SMOOTH",
"112 709 OFFCURVE",
"81 694 OFFCURVE",
"73 687 CURVE",
"74 680 OFFCURVE",
"78 672 OFFCURVE",
"81 670 CURVE",
"159 670 LINE",
"151 661 OFFCURVE",
"141 638 OFFCURVE",
"140 608 CURVE SMOOTH",
"116 122 LINE SMOOTH",
"114 82 OFFCURVE",
"107 50 OFFCURVE",
"68 43 CURVE SMOOTH",
"51 40 LINE",
"48 37 OFFCURVE",
"44 30 OFFCURVE",
"44 23 CURVE",
"67 15 OFFCURVE",
"144 0 OFFCURVE",
"159 0 CURVE SMOOTH"
);
}
);
width = 871;
},
{
anchors = (
{
name = bottom;
position = "{441, 0}";
},
{
name = top;
position = "{441, 704}";
}
);
layerId = "891D9FC5-7784-4CE6-B01A-BC8B0C8DC68C";
paths = (
{
closed = 1;
nodes = (
"203 0 OFFCURVE",
"238 10 OFFCURVE",
"259 26 CURVE",
"258 34 OFFCURVE",
"254 44 OFFCURVE",
"252 45 CURVE",
"155 55 LINE",
"160 58 OFFCURVE",
"169 76 OFFCURVE",
"171 119 CURVE SMOOTH",
"191 568 LINE SMOOTH",
"193 609 OFFCURVE",
"198 626 OFFCURVE",
"200 633 CURVE",
"205 633 LINE",
"206 617 OFFCURVE",
"213 588 OFFCURVE",
"227 548 CURVE SMOOTH",
"403 84 LINE",
"433 84 OFFCURVE",
"456 99 OFFCURVE",
"463 107 CURVE",
"668 639 LINE",
"674 638 LINE",
"670 625 OFFCURVE",
"667 590 OFFCURVE",
"669 547 CURVE SMOOTH",
"688 169 LINE SMOOTH",
"693 68 OFFCURVE",
"685 53 OFFCURVE",
"653 49 CURVE SMOOTH",
"622 46 LINE",
"619 42 OFFCURVE",
"615 34 OFFCURVE",
"615 26 CURVE",
"644 16 OFFCURVE",
"740 0 OFFCURVE",
"767 0 CURVE SMOOTH",
"792 0 OFFCURVE",
"821 14 OFFCURVE",
"836 26 CURVE",
"835 37 OFFCURVE",
"833 40 OFFCURVE",
"830 45 CURVE",
"744 52 LINE",
"750 59 OFFCURVE",
"758 89 OFFCURVE",
"756 130 CURVE SMOOTH",
"733 588 LINE SMOOTH",
"730 652 OFFCURVE",
"754 655 OFFCURVE",
"777 664 CURVE SMOOTH",
"814 677 LINE",
"813 691 OFFCURVE",
"807 698 OFFCURVE",
"802 704 CURVE",
"632 704 LINE",
"580 538 OFFCURVE",
"474 264 OFFCURVE",
"438 174 CURVE",
"239 704 LINE",
"123 704 LINE SMOOTH",
"112 704 OFFCURVE",
"78 687 OFFCURVE",
"71 678 CURVE",
"72 669 OFFCURVE",
"76 666 OFFCURVE",
"79 661 CURVE",
"162 661 LINE",
"156 654 OFFCURVE",
"146 628 OFFCURVE",
"144 593 CURVE SMOOTH",
"121 135 LINE SMOOTH",
"118 73 OFFCURVE",
"106 54 OFFCURVE",
"74 49 CURVE SMOOTH",
"54 46 LINE",
"51 42 OFFCURVE",
"46 35 OFFCURVE",
"46 26 CURVE",
"71 17 OFFCURVE",
"166 0 OFFCURVE",
"182 0 CURVE SMOOTH"
);
}
);
width = 882;
},
{
anchors = (
{
name = bottom;
position = "{512, 0}";
},
{
name = top;
position = "{512, 704}";
}
);
layerId = "FC63F3C5-4BD2-445A-988E-6411A2DDD46F";
paths = (
{
closed = 1;
nodes = (
"267 0 OFFCURVE",
"307 14 OFFCURVE",
"329 34 CURVE",
"329 45 OFFCURVE",
"325 56 OFFCURVE",
"322 59 CURVE",
"192 74 LINE",
"198 78 OFFCURVE",
"209 102 OFFCURVE",
"211 141 CURVE SMOOTH",
"231 550 LINE SMOOTH",
"233 590 OFFCURVE",
"237 612 OFFCURVE",
"240 622 CURVE",
"246 622 LINE",
"248 602 OFFCURVE",
"256 561 OFFCURVE",
"272 521 CURVE SMOOTH",
"452 84 LINE",
"492 84 OFFCURVE",
"523 99 OFFCURVE",
"535 109 CURVE",
"750 628 LINE",
"758 625 LINE",
"753 612 OFFCURVE",
"748 572 OFFCURVE",
"751 519 CURVE SMOOTH",
"771 168 LINE SMOOTH",
"776 74 OFFCURVE",
"761 70 OFFCURVE",
"720 65 CURVE SMOOTH",
"686 61 LINE",
"682 57 OFFCURVE",
"676 44 OFFCURVE",
"676 34 CURVE",
"708 23 OFFCURVE",
"866 0 OFFCURVE",
"894 0 CURVE SMOOTH",
"918 0 OFFCURVE",
"956 16 OFFCURVE",
"976 34 CURVE",
"976 45 OFFCURVE",
"972 54 OFFCURVE",
"968 59 CURVE",
"864 71 LINE",
"872 77 OFFCURVE",
"883 107 OFFCURVE",
"880 146 CURVE SMOOTH",
"857 568 LINE SMOOTH",
"854 623 OFFCURVE",
"869 640 OFFCURVE",
"912 653 CURVE SMOOTH",
"956 666 LINE",
"956 681 OFFCURVE",
"950 696 OFFCURVE",
"943 704 CURVE",
"695 704 LINE",
"651 546 OFFCURVE",
"547 310 OFFCURVE",
"505 228 CURVE",
"312 704 LINE",
"131 704 LINE SMOOTH",
"118 704 OFFCURVE",
"78 684 OFFCURVE",
"69 671 CURVE",
"70 660 OFFCURVE",
"76 653 OFFCURVE",
"81 648 CURVE",
"181 648 LINE",
"177 644 OFFCURVE",
"164 616 OFFCURVE",
"161 564 CURVE SMOOTH",
"139 168 LINE SMOOTH",
"135 91 OFFCURVE",
"125 72 OFFCURVE",
"85 65 CURVE SMOOTH",
"58 61 LINE",
"54 57 OFFCURVE",
"48 46 OFFCURVE",
"48 34 CURVE",
"80 23 OFFCURVE",
"220 0 OFFCURVE",
"244 0 CURVE SMOOTH"
);
}
);
width = 1024;
},
{
anchors = (
{
name = bottom;
position = "{504, 0}";
},
{
name = top;
position = "{504, 704}";
}
);
layerId = "B67CA61C-C7DB-4511-8D93-FE28BE810A6B";
paths = (
{
closed = 1;
nodes = (
"246 0 OFFCURVE",
"296 14 OFFCURVE",
"318 32 CURVE",
"317 52 OFFCURVE",
"312 61 OFFCURVE",
"309 69 CURVE",
"189 83 LINE",
"195 93 OFFCURVE",
"202 120 OFFCURVE",
"203 138 CURVE SMOOTH",
"221 499 LINE SMOOTH",
"223 542 OFFCURVE",
"228 574 OFFCURVE",
"229 580 CURVE",
"235 580 LINE",
"235 565 OFFCURVE",
"244 521 OFFCURVE",
"260 476 CURVE SMOOTH",
"406 68 LINE",
"450 68 OFFCURVE",
"496 77 OFFCURVE",
"515 82 CURVE",
"694 577 LINE",
"702 573 LINE",
"697 566 OFFCURVE",
"693 532 OFFCURVE",
"696 480 CURVE SMOOTH",
"715 181 LINE SMOOTH",
"722 77 OFFCURVE",
"703 76 OFFCURVE",
"669 74 CURVE SMOOTH",
"625 71 LINE",
"622 65 OFFCURVE",
"616 46 OFFCURVE",
"616 30 CURVE",
"645 20 OFFCURVE",
"848 0 OFFCURVE",
"887 0 CURVE SMOOTH",
"913 0 OFFCURVE",
"948 16 OFFCURVE",
"967 32 CURVE",
"966 47 OFFCURVE",
"962 61 OFFCURVE",
"958 69 CURVE",
"870 83 LINE",
"878 88 OFFCURVE",
"886 112 OFFCURVE",
"884 152 CURVE SMOOTH",
"862 557 LINE SMOOTH",
"859 610 OFFCURVE",
"873 626 OFFCURVE",
"914 639 CURVE SMOOTH",
"956 652 LINE",
"954 682 OFFCURVE",
"946 696 OFFCURVE",
"942 704 CURVE",
"638 704 LINE",
"595 574 OFFCURVE",
"549 418 OFFCURVE",
"501 302 CURVE",
"350 704 LINE",
"119 704 LINE SMOOTH",
"106 704 OFFCURVE",
"68 686 OFFCURVE",
"58 675 CURVE",
"58 656 OFFCURVE",
"65 641 OFFCURVE",
"69 635 CURVE",
"160 635 LINE",
"155 632 OFFCURVE",
"143 609 OFFCURVE",
"141 563 CURVE SMOOTH",
"118 167 LINE SMOOTH",
"113 77 OFFCURVE",
"98 78 OFFCURVE",
"69 73 CURVE SMOOTH",
"48 70 LINE",
"44 63 OFFCURVE",
"40 46 OFFCURVE",
"40 32 CURVE",
"70 22 OFFCURVE",
"201 0 OFFCURVE",
"223 0 CURVE SMOOTH"
);
}
);
width = 1007;
}
);
leftKerningGroup = M;
rightKerningGroup = M;
unicode = 004D;
},
{
color = 6;
glyphname = N;
layers = (
{
anchors = (
{
name = bottom;
position = "{385, 0}";
},
{
name = top;
position = "{395, 704}";
}
);
layerId = UUID0;
paths = (
{
closed = 1;
nodes = (
"264 0 OFFCURVE",
"300 14 OFFCURVE",
"321 34 CURVE",
"321 45 OFFCURVE",
"317 53 OFFCURVE",
"314 56 CURVE",
"186 70 LINE",
"193 78 OFFCURVE",
"203 101 OFFCURVE",
"203 135 CURVE SMOOTH",
"203 550 LINE SMOOTH",
"203 586 OFFCURVE",
"205 605 OFFCURVE",
"206 610 CURVE",
"212 610 LINE",
"216 592 OFFCURVE",
"231 551 OFFCURVE",
"258 509 CURVE SMOOTH",
"577 0 LINE",
"603 2 OFFCURVE",
"645 11 OFFCURVE",
"664 27 CURVE",
"660 49 OFFCURVE",
"655 109 OFFCURVE",
"655 194 CURVE SMOOTH",
"655 562 LINE SMOOTH",
"655 625 OFFCURVE",
"660 644 OFFCURVE",
"704 657 CURVE SMOOTH",
"750 671 LINE",
"750 686 OFFCURVE",
"743 698 OFFCURVE",
"737 704 CURVE",
"557 704 LINE SMOOTH",
"545 704 OFFCURVE",
"507 680 OFFCURVE",
"496 666 CURVE",
"498 657 OFFCURVE",
"504 651 OFFCURVE",
"508 648 CURVE",
"605 648 LINE",
"597 642 OFFCURVE",
"586 615 OFFCURVE",
"586 566 CURVE SMOOTH",
"586 284 LINE SMOOTH",
"586 202 OFFCURVE",
"590 167 OFFCURVE",
"596 142 CURVE",
"245 704 LINE",
"104 704 LINE SMOOTH",
"92 704 OFFCURVE",
"54 685 OFFCURVE",
"43 671 CURVE",
"44 662 OFFCURVE",
"50 656 OFFCURVE",
"55 653 CURVE",
"153 653 LINE",
"145 647 OFFCURVE",
"134 620 OFFCURVE",
"134 571 CURVE SMOOTH",
"134 167 LINE SMOOTH",
"134 95 OFFCURVE",
"134 69 OFFCURVE",
"83 62 CURVE SMOOTH",
"54 58 LINE",
"50 54 OFFCURVE",
"44 45 OFFCURVE",
"44 34 CURVE",
"76 23 OFFCURVE",
"218 0 OFFCURVE",
"242 0 CURVE SMOOTH"
);
}
);
width = 770;
},
{
anchors = (
{
name = bottom;
position = "{391, 0}";
},
{
name = top;
position = "{401, 704}";
}
);
layerId = "C4D96FDC-31F2-4CF4-BEA5-4CCE99FECD99";
paths = (
{
closed = 1;
nodes = (
"260 0 OFFCURVE",
"305 15 OFFCURVE",
"326 35 CURVE",
"326 51 OFFCURVE",
"321 64 OFFCURVE",
"318 69 CURVE",
"183 85 LINE",
"190 96 OFFCURVE",
"199 123 OFFCURVE",
"199 156 CURVE SMOOTH",
"199 514 LINE SMOOTH",
"199 553 OFFCURVE",
"201 576 OFFCURVE",
"202 585 CURVE",
"208 585 LINE",
"209 568 OFFCURVE",
"225 528 OFFCURVE",
"255 473 CURVE SMOOTH",
"515 0 LINE",
"563 1 OFFCURVE",
"649 12 OFFCURVE",
"682 38 CURVE",
"676 57 OFFCURVE",
"670 113 OFFCURVE",
"670 196 CURVE SMOOTH",
"670 549 LINE SMOOTH",
"670 622 OFFCURVE",
"681 632 OFFCURVE",
"720 644 CURVE SMOOTH",
"757 655 LINE",
"757 674 OFFCURVE",
"751 694 OFFCURVE",
"743 704 CURVE",
"549 704 LINE SMOOTH",
"537 704 OFFCURVE",
"499 685 OFFCURVE",
"488 671 CURVE",
"489 655 OFFCURVE",
"496 643 OFFCURVE",
"500 637 CURVE",
"603 637 LINE",
"595 631 OFFCURVE",
"585 606 OFFCURVE",
"585 557 CURVE SMOOTH",
"585 327 LINE SMOOTH",
"585 244 OFFCURVE",
"589 214 OFFCURVE",
"595 188 CURVE",
"311 704 LINE",
"92 704 LINE SMOOTH",
"81 704 OFFCURVE",
"42 685 OFFCURVE",
"31 671 CURVE",
"32 655 OFFCURVE",
"40 642 OFFCURVE",
"43 637 CURVE",
"130 637 LINE",
"123 631 OFFCURVE",
"113 604 OFFCURVE",
"113 560 CURVE SMOOTH",
"113 196 LINE SMOOTH",
"113 123 OFFCURVE",
"105 80 OFFCURVE",
"69 75 CURVE SMOOTH",
"41 71 LINE",
"37 65 OFFCURVE",
"32 50 OFFCURVE",
"32 35 CURVE",
"78 21 OFFCURVE",
"215 0 OFFCURVE",
"239 0 CURVE SMOOTH"
);
}
);
width = 782;
},
{
anchors = (
{
name = bottom;
position = "{354, 0}";
},
{
name = top;
position = "{364, 709}";
}
);
layerId = "65D1C757-52A4-41AF-B6F1-0B1906938095";
paths = (
{
closed = 1;
nodes = (
"184 0 OFFCURVE",
"221 8 OFFCURVE",
"244 23 CURVE",
"243 31 OFFCURVE",
"240 36 OFFCURVE",
"238 40 CURVE",
"148 48 LINE",
"153 55 OFFCURVE",
"160 77 OFFCURVE",
"160 104 CURVE SMOOTH",
"160 582 LINE SMOOTH",
"160 607 OFFCURVE",
"161 629 OFFCURVE",
"166 642 CURVE",
"168 642 LINE",
"170 633 OFFCURVE",
"176 613 OFFCURVE",
"207 563 CURVE SMOOTH",
"558 0 LINE",
"571 0 OFFCURVE",
"590 5 OFFCURVE",
"602 14 CURVE",
"598 34 OFFCURVE",
"592 80 OFFCURVE",
"592 121 CURVE SMOOTH",
"592 583 LINE SMOOTH",
"592 645 OFFCURVE",
"601 662 OFFCURVE",
"629 672 CURVE SMOOTH",
"665 685 LINE",
"664 698 OFFCURVE",
"657 704 OFFCURVE",
"653 709 CURVE",
"533 709 LINE SMOOTH",
"525 709 OFFCURVE",
"492 694 OFFCURVE",
"484 686 CURVE",
"485 677 OFFCURVE",
"488 673 OFFCURVE",
"491 669 CURVE",
"563 669 LINE",
"556 660 OFFCURVE",
"549 634 OFFCURVE",
"549 598 CURVE SMOOTH",
"549 196 LINE SMOOTH",
"549 151 OFFCURVE",
"551 127 OFFCURVE",
"553 114 CURVE",
"180 709 LINE",
"102 709 LINE SMOOTH",
"92 709 OFFCURVE",
"60 694 OFFCURVE",
"52 687 CURVE",
"53 676 OFFCURVE",
"56 674 OFFCURVE",
"59 670 CURVE",
"131 670 LINE",
"125 662 OFFCURVE",
"118 635 OFFCURVE",
"118 599 CURVE SMOOTH",
"118 116 LINE SMOOTH",
"118 60 OFFCURVE",
"104 46 OFFCURVE",
"80 43 CURVE SMOOTH",
"57 40 LINE",
"54 37 OFFCURVE",
"50 30 OFFCURVE",
"50 23 CURVE",
"78 14 OFFCURVE",
"146 0 OFFCURVE",
"166 0 CURVE SMOOTH"
);
}
);
width = 707;
},
{
anchors = (
{
name = bottom;
position = "{356, 0}";
},
{
name = top;
position = "{365, 704}";
}
);
layerId = "891D9FC5-7784-4CE6-B01A-BC8B0C8DC68C";
paths = (
{
closed = 1;
nodes = (
"206 0 OFFCURVE",
"243 10 OFFCURVE",
"263 26 CURVE",
"263 36 OFFCURVE",
"259 42 OFFCURVE",
"257 45 CURVE",
"159 55 LINE",
"164 61 OFFCURVE",
"172 83 OFFCURVE",
"172 113 CURVE SMOOTH",
"172 570 LINE SMOOTH",
"172 602 OFFCURVE",
"174 619 OFFCURVE",
"177 629 CURVE",
"180 629 LINE",
"181 626 OFFCURVE",
"190 594 OFFCURVE",
"220 544 CURVE SMOOTH",
"549 0 LINE",
"565 1 OFFCURVE",
"591 6 OFFCURVE",
"606 18 CURVE",
"602 40 OFFCURVE",
"596 89 OFFCURVE",
"596 142 CURVE SMOOTH",
"596 574 LINE SMOOTH",
"596 633 OFFCURVE",
"602 652 OFFCURVE",
"636 664 CURVE SMOOTH",
"674 677 LINE",
"673 691 OFFCURVE",
"668 697 OFFCURVE",
"662 704 CURVE",
"528 704 LINE SMOOTH",
"517 704 OFFCURVE",
"485 686 OFFCURVE",
"477 677 CURVE",
"478 666 OFFCURVE",
"481 665 OFFCURVE",
"485 660 CURVE",
"562 660 LINE",
"556 653 OFFCURVE",
"547 629 OFFCURVE",
"547 586 CURVE SMOOTH",
"547 222 LINE SMOOTH",
"547 174 OFFCURVE",
"549 142 OFFCURVE",
"553 122 CURVE",
"199 704 LINE",
"104 704 LINE SMOOTH",
"94 704 OFFCURVE",
"60 688 OFFCURVE",
"52 678 CURVE",
"53 667 OFFCURVE",
"58 664 OFFCURVE",
"60 661 CURVE",
"138 661 LINE",
"131 654 OFFCURVE",
"123 628 OFFCURVE",
"123 587 CURVE SMOOTH",
"123 131 LINE SMOOTH",
"123 75 OFFCURVE",
"116 53 OFFCURVE",
"83 49 CURVE SMOOTH",
"59 46 LINE",
"56 42 OFFCURVE",
"51 35 OFFCURVE",
"51 26 CURVE",
"81 16 OFFCURVE",
"168 0 OFFCURVE",
"187 0 CURVE SMOOTH"
);
}
);
width = 713;
},
{
anchors = (
{
name = bottom;
position = "{411, 0}";
},
{
name = top;
position = "{421, 704}";
}
);
background = {
paths = (
{
closed = 1;
nodes = (
"273 0 OFFCURVE",
"314 14 OFFCURVE",
"336 34 CURVE",
"336 44 OFFCURVE",
"332 56 OFFCURVE",
"329 59 CURVE",
"198 74 LINE",
"206 83 OFFCURVE",
"215 109 OFFCURVE",
"215 140 CURVE SMOOTH",
"215 540 LINE SMOOTH",
"215 584 OFFCURVE",
"218 600 OFFCURVE",
"219 604 CURVE",
"225 604 LINE",
"227 587 OFFCURVE",
"244 546 OFFCURVE",
"273 500 CURVE SMOOTH",
"600 0 LINE",
"631 2 OFFCURVE",
"684 10 OFFCURVE",
"708 30 CURVE",
"703 50 OFFCURVE",
"698 118 OFFCURVE",
"698 191 CURVE SMOOTH",
"698 559 LINE SMOOTH",
"698 622 OFFCURVE",
"704 640 OFFCURVE",
"748 653 CURVE SMOOTH",
"791 666 LINE",
"791 682 OFFCURVE",
"785 696 OFFCURVE",
"778 704 CURVE",
"594 704 LINE SMOOTH",
"583 704 OFFCURVE",
"543 682 OFFCURVE",
"531 668 CURVE",
"534 655 OFFCURVE",
"541 649 OFFCURVE",
"543 645 CURVE",
"643 645 LINE",
"635 639 OFFCURVE",
"625 612 OFFCURVE",
"625 565 CURVE SMOOTH",
"625 293 LINE SMOOTH",
"625 220 OFFCURVE",
"628 182 OFFCURVE",
"634 155 CURVE",
"277 704 LINE",
"116 704 LINE SMOOTH",
"103 704 OFFCURVE",
"64 685 OFFCURVE",
"53 671 CURVE",
"54 661 OFFCURVE",
"60 653 OFFCURVE",
"65 648 CURVE",
"161 648 LINE",
"153 643 OFFCURVE",
"142 617 OFFCURVE",
"142 569 CURVE SMOOTH",
"142 174 LINE SMOOTH",
"142 92 OFFCURVE",
"133 71 OFFCURVE",
"92 65 CURVE SMOOTH",
"64 61 LINE",
"59 56 OFFCURVE",
"54 45 OFFCURVE",
"54 34 CURVE",
"91 22 OFFCURVE",
"227 0 OFFCURVE",
"251 0 CURVE SMOOTH"
);
}
);
};
layerId = "FC63F3C5-4BD2-445A-988E-6411A2DDD46F";
paths = (
{
closed = 1;
nodes = (
"273 0 OFFCURVE",
"314 14 OFFCURVE",
"336 34 CURVE",
"336 44 OFFCURVE",
"332 56 OFFCURVE",
"329 59 CURVE",
"198 74 LINE",
"206 83 OFFCURVE",
"215 109 OFFCURVE",
"215 140 CURVE SMOOTH",
"215 540 LINE SMOOTH",
"215 584 OFFCURVE",
"218 600 OFFCURVE",
"219 604 CURVE",
"225 604 LINE",
"227 587 OFFCURVE",
"244 546 OFFCURVE",
"273 500 CURVE SMOOTH",
"600 0 LINE",
"631 2 OFFCURVE",
"684 10 OFFCURVE",
"708 30 CURVE",
"703 50 OFFCURVE",
"698 118 OFFCURVE",
"698 191 CURVE SMOOTH",
"698 559 LINE SMOOTH",
"698 622 OFFCURVE",
"704 640 OFFCURVE",
"748 653 CURVE SMOOTH",
"791 666 LINE",
"791 682 OFFCURVE",
"785 696 OFFCURVE",
"778 704 CURVE",
"594 704 LINE SMOOTH",
"583 704 OFFCURVE",
"543 682 OFFCURVE",
"531 668 CURVE",
"534 655 OFFCURVE",
"541 649 OFFCURVE",
"543 645 CURVE",
"643 645 LINE",
"635 639 OFFCURVE",
"625 612 OFFCURVE",
"625 565 CURVE SMOOTH",
"625 293 LINE SMOOTH",
"625 218 OFFCURVE",
"628 179 OFFCURVE",
"634 151 CURVE",
"273 704 LINE",
"116 704 LINE SMOOTH",
"103 704 OFFCURVE",
"64 685 OFFCURVE",
"53 671 CURVE",
"54 661 OFFCURVE",
"60 653 OFFCURVE",
"65 648 CURVE",
"161 648 LINE",
"153 643 OFFCURVE",
"142 617 OFFCURVE",
"142 569 CURVE SMOOTH",
"142 174 LINE SMOOTH",
"142 92 OFFCURVE",
"133 71 OFFCURVE",
"92 65 CURVE SMOOTH",
"64 61 LINE",
"59 56 OFFCURVE",
"54 45 OFFCURVE",
"54 34 CURVE",
"91 22 OFFCURVE",
"227 0 OFFCURVE",
"251 0 CURVE SMOOTH"
);
}
);
width = 827;
},
{
anchors = (
{
name = bottom;
position = "{411, 0}";
},
{
name = top;
position = "{423, 704}";
}
);
background = {
paths = (
{
closed = 1;
nodes = (
"257 0 OFFCURVE",
"307 15 OFFCURVE",
"327 32 CURVE",
"327 49 OFFCURVE",
"320 65 OFFCURVE",
"319 69 CURVE",
"188 83 LINE",
"196 96 OFFCURVE",
"203 126 OFFCURVE",
"203 152 CURVE SMOOTH",
"203 510 LINE SMOOTH",
"203 551 OFFCURVE",
"205 573 OFFCURVE",
"207 585 CURVE",
"212 585 LINE",
"212 573 OFFCURVE",
"225 538 OFFCURVE",
"260 478 CURVE SMOOTH",
"537 0 LINE",
"585 0 OFFCURVE",
"682 10 OFFCURVE",
"718 38 CURVE",
"713 50 OFFCURVE",
"706 95 OFFCURVE",
"706 170 CURVE SMOOTH",
"706 550 LINE SMOOTH",
"706 626 OFFCURVE",
"721 632 OFFCURVE",
"753 642 CURVE SMOOTH",
"785 652 LINE",
"785 674 OFFCURVE",
"778 696 OFFCURVE",
"772 704 CURVE",
"586 704 LINE SMOOTH",
"574 704 OFFCURVE",
"534 689 OFFCURVE",
"526 678 CURVE",
"526 661 OFFCURVE",
"533 644 OFFCURVE",
"537 638 CURVE",
"637 638 LINE",
"629 632 OFFCURVE",
"620 607 OFFCURVE",
"620 563 CURVE SMOOTH",
"620 311 LINE SMOOTH",
"620 247 OFFCURVE",
"623 223 OFFCURVE",
"628 196 CURVE",
"332 704 LINE",
"103 704 LINE SMOOTH",
"92 704 OFFCURVE",
"53 686 OFFCURVE",
"43 675 CURVE",
"44 658 OFFCURVE",
"49 641 OFFCURVE",
"54 635 CURVE",
"133 635 LINE",
"127 629 OFFCURVE",
"117 606 OFFCURVE",
"117 564 CURVE SMOOTH",
"117 189 LINE SMOOTH",
"117 124 OFFCURVE",
"103 78 OFFCURVE",
"78 74 CURVE SMOOTH",
"51 70 LINE",
"47 63 OFFCURVE",
"43 45 OFFCURVE",
"43 32 CURVE",
"94 17 OFFCURVE",
"208 0 OFFCURVE",
"233 0 CURVE SMOOTH"
);
}
);
};
layerId = "B67CA61C-C7DB-4511-8D93-FE28BE810A6B";
paths = (
{
closed = 1;
nodes = (
"257 0 OFFCURVE",
"307 15 OFFCURVE",
"327 32 CURVE",
"327 49 OFFCURVE",
"320 65 OFFCURVE",
"319 69 CURVE",
"188 83 LINE",
"196 96 OFFCURVE",
"203 126 OFFCURVE",
"203 152 CURVE SMOOTH",
"203 510 LINE SMOOTH",
"203 551 OFFCURVE",
"205 573 OFFCURVE",
"207 585 CURVE",
"212 585 LINE",
"212 573 OFFCURVE",
"225 538 OFFCURVE",
"260 478 CURVE SMOOTH",
"537 0 LINE",
"585 0 OFFCURVE",
"682 10 OFFCURVE",
"718 38 CURVE",
"713 50 OFFCURVE",
"706 95 OFFCURVE",
"706 170 CURVE SMOOTH",
"706 550 LINE SMOOTH",
"706 626 OFFCURVE",
"721 632 OFFCURVE",
"753 642 CURVE SMOOTH",
"785 652 LINE",
"785 674 OFFCURVE",
"778 696 OFFCURVE",
"772 704 CURVE",
"586 704 LINE SMOOTH",
"574 704 OFFCURVE",
"534 689 OFFCURVE",
"526 678 CURVE",
"526 661 OFFCURVE",
"533 644 OFFCURVE",
"537 638 CURVE",
"637 638 LINE",
"629 632 OFFCURVE",
"620 607 OFFCURVE",
"620 563 CURVE SMOOTH",
"620 311 LINE SMOOTH",
"620 244 OFFCURVE",
"623 219 OFFCURVE",
"628 191 CURVE",
"329 704 LINE",
"103 704 LINE SMOOTH",
"92 704 OFFCURVE",
"53 686 OFFCURVE",
"43 675 CURVE",
"44 658 OFFCURVE",
"49 641 OFFCURVE",
"54 635 CURVE",
"133 635 LINE",
"127 629 OFFCURVE",
"117 606 OFFCURVE",
"117 564 CURVE SMOOTH",
"117 189 LINE SMOOTH",
"117 124 OFFCURVE",
"103 78 OFFCURVE",
"78 74 CURVE SMOOTH",
"51 70 LINE",
"47 63 OFFCURVE",
"43 45 OFFCURVE",
"43 32 CURVE",
"94 17 OFFCURVE",
"208 0 OFFCURVE",
"233 0 CURVE SMOOTH"
);
}
);
width = 831;
}
);
leftKerningGroup = H;
leftMetricsKey = H;
rightKerningGroup = N;
unicode = 004E;
},
{
color = 6;
glyphname = Eng;
layers = (
{
background = {
components = (
{
name = N;
}
);
};
layerId = "65D1C757-52A4-41AF-B6F1-0B1906938095";
paths = (
{
closed = 1;
nodes = (
"501 -201 OFFCURVE",
"599 -86 OFFCURVE",
"601 -53 CURVE",
"592 26 OFFCURVE",
"592 71 OFFCURVE",
"592 121 CURVE SMOOTH",
"592 583 LINE SMOOTH",
"592 645 OFFCURVE",
"601 662 OFFCURVE",
"629 672 CURVE SMOOTH",
"665 685 LINE",
"664 698 OFFCURVE",
"657 704 OFFCURVE",
"653 709 CURVE",
"533 709 LINE SMOOTH",
"525 709 OFFCURVE",
"492 694 OFFCURVE",
"484 686 CURVE",
"485 677 OFFCURVE",
"488 673 OFFCURVE",
"491 669 CURVE",
"563 669 LINE",
"556 660 OFFCURVE",
"549 634 OFFCURVE",
"549 598 CURVE SMOOTH",
"549 196 LINE SMOOTH",
"549 151 OFFCURVE",
"551 127 OFFCURVE",
"553 114 CURVE",
"180 709 LINE",
"102 709 LINE SMOOTH",
"92 709 OFFCURVE",
"60 694 OFFCURVE",
"52 687 CURVE",
"53 676 OFFCURVE",
"56 674 OFFCURVE",
"59 670 CURVE",
"131 670 LINE",
"125 662 OFFCURVE",
"118 635 OFFCURVE",
"118 599 CURVE SMOOTH",
"118 116 LINE SMOOTH",
"118 60 OFFCURVE",
"104 46 OFFCURVE",
"80 43 CURVE SMOOTH",
"57 40 LINE",
"54 37 OFFCURVE",
"50 30 OFFCURVE",
"50 23 CURVE",
"78 14 OFFCURVE",
"146 0 OFFCURVE",
"166 0 CURVE SMOOTH",
"184 0 OFFCURVE",
"221 8 OFFCURVE",
"244 23 CURVE",
"243 31 OFFCURVE",
"240 36 OFFCURVE",
"238 40 CURVE",
"148 48 LINE",
"153 55 OFFCURVE",
"160 77 OFFCURVE",
"160 104 CURVE SMOOTH",
"160 582 LINE SMOOTH",
"160 607 OFFCURVE",
"161 629 OFFCURVE",
"166 642 CURVE",
"168 642 LINE",
"170 633 OFFCURVE",
"176 613 OFFCURVE",
"207 563 CURVE SMOOTH",
"551 11 LINE",
"551 -63 LINE",
"521 -105 OFFCURVE",
"459 -152 OFFCURVE",
"400 -165 CURVE",
"397 -168 OFFCURVE",
"393 -176 OFFCURVE",
"393 -185 CURVE",
"412 -194 OFFCURVE",
"447 -201 OFFCURVE",
"470 -201 CURVE SMOOTH"
);
}
);
width = 707;
},
{
background = {
components = (
{
name = N;
}
);
};
layerId = UUID0;
paths = (
{
closed = 1;
nodes = (
"551 -200 OFFCURVE",
"641 -98 OFFCURVE",
"666 -30 CURVE",
"660 12 OFFCURVE",
"655 106 OFFCURVE",
"655 194 CURVE SMOOTH",
"655 562 LINE SMOOTH",
"655 625 OFFCURVE",
"660 644 OFFCURVE",
"704 657 CURVE SMOOTH",
"750 671 LINE",
"750 686 OFFCURVE",
"743 698 OFFCURVE",
"737 704 CURVE",
"557 704 LINE SMOOTH",
"545 704 OFFCURVE",
"507 680 OFFCURVE",
"496 666 CURVE",
"498 657 OFFCURVE",
"504 651 OFFCURVE",
"508 648 CURVE",
"605 648 LINE",
"597 642 OFFCURVE",
"586 615 OFFCURVE",
"586 566 CURVE SMOOTH",
"586 284 LINE SMOOTH",
"586 202 OFFCURVE",
"590 167 OFFCURVE",
"596 142 CURVE",
"237 704 LINE",
"104 704 LINE SMOOTH",
"92 704 OFFCURVE",
"54 685 OFFCURVE",
"43 671 CURVE",
"44 662 OFFCURVE",
"50 656 OFFCURVE",
"55 653 CURVE",
"153 653 LINE",
"145 647 OFFCURVE",
"134 620 OFFCURVE",
"134 571 CURVE SMOOTH",
"134 167 LINE SMOOTH",
"134 95 OFFCURVE",
"134 69 OFFCURVE",
"83 62 CURVE SMOOTH",
"54 58 LINE",
"50 54 OFFCURVE",
"44 45 OFFCURVE",
"44 34 CURVE",
"76 23 OFFCURVE",
"218 0 OFFCURVE",
"242 0 CURVE SMOOTH",
"264 0 OFFCURVE",
"300 14 OFFCURVE",
"321 34 CURVE",
"321 45 OFFCURVE",
"317 53 OFFCURVE",
"314 56 CURVE",
"186 70 LINE",
"193 78 OFFCURVE",
"203 101 OFFCURVE",
"203 135 CURVE SMOOTH",
"203 550 LINE SMOOTH",
"203 586 OFFCURVE",
"205 605 OFFCURVE",
"206 610 CURVE",
"212 610 LINE",
"216 592 OFFCURVE",
"231 551 OFFCURVE",
"258 509 CURVE SMOOTH",
"591 -9 LINE",
"591 -57 LINE",
"550 -94 OFFCURVE",
"500 -128 OFFCURVE",
"431 -149 CURVE",
"428 -152 OFFCURVE",
"424 -159 OFFCURVE",
"424 -170 CURVE",
"445 -186 OFFCURVE",
"492 -200 OFFCURVE",
"520 -200 CURVE SMOOTH"
);
}
);
width = 770;
},
{
background = {
components = (
{
name = N;
}
);
};
layerId = "C4D96FDC-31F2-4CF4-BEA5-4CCE99FECD99";
paths = (
{
closed = 1;
nodes = (
"508 -200 OFFCURVE",
"651 -83 OFFCURVE",
"688 30 CURVE",
"673 71 OFFCURVE",
"670 113 OFFCURVE",
"670 196 CURVE SMOOTH",
"670 549 LINE SMOOTH",
"670 622 OFFCURVE",
"681 632 OFFCURVE",
"720 644 CURVE SMOOTH",
"757 655 LINE",
"757 674 OFFCURVE",
"751 694 OFFCURVE",
"743 704 CURVE",
"550 704 LINE SMOOTH",
"537 704 OFFCURVE",
"499 685 OFFCURVE",
"488 671 CURVE",
"489 655 OFFCURVE",
"496 643 OFFCURVE",
"500 637 CURVE",
"603 637 LINE",
"595 631 OFFCURVE",
"585 606 OFFCURVE",
"585 557 CURVE SMOOTH",
"585 327 LINE SMOOTH",
"585 244 OFFCURVE",
"589 214 OFFCURVE",
"595 188 CURVE",
"298 704 LINE",
"92 704 LINE SMOOTH",
"81 704 OFFCURVE",
"42 685 OFFCURVE",
"31 671 CURVE",
"32 655 OFFCURVE",
"40 642 OFFCURVE",
"43 637 CURVE",
"130 637 LINE",
"123 631 OFFCURVE",
"113 604 OFFCURVE",
"113 560 CURVE SMOOTH",
"113 196 LINE SMOOTH",
"113 123 OFFCURVE",
"105 80 OFFCURVE",
"69 75 CURVE SMOOTH",
"41 71 LINE",
"37 65 OFFCURVE",
"32 50 OFFCURVE",
"32 35 CURVE",
"78 21 OFFCURVE",
"215 0 OFFCURVE",
"239 0 CURVE SMOOTH",
"260 0 OFFCURVE",
"305 15 OFFCURVE",
"326 35 CURVE",
"326 51 OFFCURVE",
"321 64 OFFCURVE",
"318 69 CURVE",
"183 85 LINE",
"190 96 OFFCURVE",
"199 123 OFFCURVE",
"199 156 CURVE SMOOTH",
"199 514 LINE SMOOTH",
"199 553 OFFCURVE",
"201 576 OFFCURVE",
"202 585 CURVE",
"208 585 LINE",
"209 568 OFFCURVE",
"232 512 OFFCURVE",
"255 473 CURVE SMOOTH",
"541 -19 LINE",
"541 -27 LINE",
"476 -58 OFFCURVE",
"414 -85 OFFCURVE",
"330 -109 CURVE",
"326 -119 OFFCURVE",
"321 -136 OFFCURVE",
"321 -154 CURVE",
"350 -176 OFFCURVE",
"404 -200 OFFCURVE",
"437 -200 CURVE SMOOTH"
);
}
);
width = 782;
},
{
background = {
components = (
{
name = N;
}
);
};
layerId = "891D9FC5-7784-4CE6-B01A-BC8B0C8DC68C";
paths = (
{
closed = 1;
nodes = (
"498 -200 OFFCURVE",
"597 -88 OFFCURVE",
"605 -47 CURVE",
"598 16 OFFCURVE",
"596 74 OFFCURVE",
"596 143 CURVE SMOOTH",
"596 575 LINE SMOOTH",
"596 633 OFFCURVE",
"602 652 OFFCURVE",
"636 664 CURVE SMOOTH",
"674 677 LINE",
"673 691 OFFCURVE",
"668 697 OFFCURVE",
"662 704 CURVE",
"528 704 LINE SMOOTH",
"517 704 OFFCURVE",
"485 686 OFFCURVE",
"477 677 CURVE",
"478 666 OFFCURVE",
"481 665 OFFCURVE",
"485 660 CURVE",
"562 660 LINE",
"556 653 OFFCURVE",
"547 629 OFFCURVE",
"547 587 CURVE SMOOTH",
"547 222 LINE SMOOTH",
"547 174 OFFCURVE",
"549 142 OFFCURVE",
"553 122 CURVE",
"199 704 LINE",
"104 704 LINE SMOOTH",
"94 704 OFFCURVE",
"60 688 OFFCURVE",
"52 678 CURVE",
"53 667 OFFCURVE",
"58 664 OFFCURVE",
"60 661 CURVE",
"138 661 LINE",
"131 654 OFFCURVE",
"123 628 OFFCURVE",
"123 587 CURVE SMOOTH",
"123 131 LINE SMOOTH",
"123 75 OFFCURVE",
"116 53 OFFCURVE",
"83 49 CURVE SMOOTH",
"59 46 LINE",
"56 42 OFFCURVE",
"51 35 OFFCURVE",
"51 26 CURVE",
"81 16 OFFCURVE",
"168 0 OFFCURVE",
"187 0 CURVE SMOOTH",
"206 0 OFFCURVE",
"243 10 OFFCURVE",
"263 26 CURVE",
"262 36 OFFCURVE",
"260 42 OFFCURVE",
"257 45 CURVE",
"159 55 LINE",
"164 61 OFFCURVE",
"172 83 OFFCURVE",
"172 113 CURVE SMOOTH",
"172 570 LINE SMOOTH",
"172 602 OFFCURVE",
"174 619 OFFCURVE",
"177 629 CURVE",
"180 629 LINE",
"181 626 OFFCURVE",
"190 594 OFFCURVE",
"220 544 CURVE SMOOTH",
"544 8 LINE",
"544 -62 LINE",
"512 -101 OFFCURVE",
"458 -144 OFFCURVE",
"397 -160 CURVE",
"395 -163 OFFCURVE",
"391 -170 OFFCURVE",
"391 -180 CURVE",
"409 -191 OFFCURVE",
"447 -200 OFFCURVE",
"469 -200 CURVE SMOOTH"
);
}
);
width = 713;
},
{
background = {
components = (
{
name = N;
}
);
};
layerId = "FC63F3C5-4BD2-445A-988E-6411A2DDD46F";
paths = (
{
closed = 1;
nodes = (
"571 -200 OFFCURVE",
"679 -99 OFFCURVE",
"711 -23 CURVE",
"702 19 OFFCURVE",
"698 118 OFFCURVE",
"698 191 CURVE SMOOTH",
"698 559 LINE SMOOTH",
"698 622 OFFCURVE",
"704 640 OFFCURVE",
"748 653 CURVE SMOOTH",
"791 666 LINE",
"791 682 OFFCURVE",
"785 696 OFFCURVE",
"778 704 CURVE",
"594 704 LINE SMOOTH",
"583 704 OFFCURVE",
"543 682 OFFCURVE",
"531 668 CURVE",
"534 655 OFFCURVE",
"541 649 OFFCURVE",
"543 645 CURVE",
"643 645 LINE",
"635 639 OFFCURVE",
"625 613 OFFCURVE",
"625 565 CURVE SMOOTH",
"625 305 LINE SMOOTH",
"625 230 OFFCURVE",
"628 191 OFFCURVE",
"634 163 CURVE",
"269 704 LINE",
"114 704 LINE SMOOTH",
"102 704 OFFCURVE",
"64 685 OFFCURVE",
"53 671 CURVE",
"54 661 OFFCURVE",
"60 653 OFFCURVE",
"65 648 CURVE",
"161 648 LINE",
"153 643 OFFCURVE",
"142 617 OFFCURVE",
"142 569 CURVE SMOOTH",
"142 174 LINE SMOOTH",
"142 92 OFFCURVE",
"133 71 OFFCURVE",
"92 65 CURVE SMOOTH",
"64 61 LINE",
"59 56 OFFCURVE",
"54 45 OFFCURVE",
"54 34 CURVE",
"91 22 OFFCURVE",
"227 0 OFFCURVE",
"251 0 CURVE SMOOTH",
"273 0 OFFCURVE",
"314 14 OFFCURVE",
"336 34 CURVE",
"336 44 OFFCURVE",
"332 56 OFFCURVE",
"329 59 CURVE",
"198 74 LINE",
"206 83 OFFCURVE",
"215 109 OFFCURVE",
"215 140 CURVE SMOOTH",
"215 540 LINE SMOOTH",
"215 584 OFFCURVE",
"218 600 OFFCURVE",
"219 604 CURVE",
"225 604 LINE",
"227 587 OFFCURVE",
"242 546 OFFCURVE",
"273 500 CURVE SMOOTH",
"624 -20 LINE",
"624 -54 LINE",
"577 -89 OFFCURVE",
"519 -123 OFFCURVE",
"441 -144 CURVE",
"437 -149 OFFCURVE",
"433 -157 OFFCURVE",
"433 -168 CURVE",
"455 -185 OFFCURVE",
"504 -200 OFFCURVE",
"532 -200 CURVE SMOOTH"
);
}
);
width = 827;
},
{
background = {
components = (
{
name = N;
}
);
};
layerId = "B67CA61C-C7DB-4511-8D93-FE28BE810A6B";
paths = (
{
closed = 1;
nodes = (
"519 -200 OFFCURVE",
"679 -83 OFFCURVE",
"720 30 CURVE",
"711 64 OFFCURVE",
"706 95 OFFCURVE",
"706 170 CURVE SMOOTH",
"706 550 LINE SMOOTH",
"706 626 OFFCURVE",
"721 632 OFFCURVE",
"753 642 CURVE SMOOTH",
"785 652 LINE",
"785 674 OFFCURVE",
"778 696 OFFCURVE",
"772 704 CURVE",
"586 704 LINE SMOOTH",
"574 704 OFFCURVE",
"534 689 OFFCURVE",
"526 678 CURVE",
"526 661 OFFCURVE",
"533 644 OFFCURVE",
"537 638 CURVE",
"637 638 LINE",
"629 632 OFFCURVE",
"620 607 OFFCURVE",
"620 563 CURVE SMOOTH",
"620 316 LINE SMOOTH",
"620 249 OFFCURVE",
"623 224 OFFCURVE",
"628 196 CURVE",
"319 704 LINE",
"102 704 LINE SMOOTH",
"92 704 OFFCURVE",
"53 686 OFFCURVE",
"43 675 CURVE",
"44 658 OFFCURVE",
"49 641 OFFCURVE",
"53 635 CURVE",
"133 635 LINE",
"127 629 OFFCURVE",
"117 606 OFFCURVE",
"117 564 CURVE SMOOTH",
"117 189 LINE SMOOTH",
"117 124 OFFCURVE",
"103 78 OFFCURVE",
"78 74 CURVE SMOOTH",
"51 70 LINE",
"47 63 OFFCURVE",
"43 45 OFFCURVE",
"43 32 CURVE",
"94 17 OFFCURVE",
"208 0 OFFCURVE",
"233 0 CURVE SMOOTH",
"257 0 OFFCURVE",
"307 15 OFFCURVE",
"327 32 CURVE",
"327 49 OFFCURVE",
"320 65 OFFCURVE",
"319 69 CURVE",
"188 83 LINE",
"196 96 OFFCURVE",
"203 126 OFFCURVE",
"203 152 CURVE SMOOTH",
"203 505 LINE SMOOTH",
"203 546 OFFCURVE",
"205 568 OFFCURVE",
"207 580 CURVE",
"212 580 LINE",
"212 568 OFFCURVE",
"225 533 OFFCURVE",
"260 473 CURVE SMOOTH",
"558 -19 LINE",
"558 -27 LINE",
"492 -58 OFFCURVE",
"415 -88 OFFCURVE",
"333 -109 CURVE",
"329 -119 OFFCURVE",
"324 -137 OFFCURVE",
"324 -154 CURVE",
"356 -178 OFFCURVE",
"409 -200 OFFCURVE",
"441 -200 CURVE SMOOTH"
);
}
);
width = 831;
}
);
leftKerningGroup = H;
leftMetricsKey = H;
rightKerningGroup = N;
rightMetricsKey = N;
unicode = 014A;
},
{
color = 6;
glyphname = Nhookleft;
layers = (
{
anchors = (
{
name = bottom;
position = "{354, 0}";
},
{
name = top;
position = "{364, 709}";
}
);
background = {
components = (
{
name = N;
}
);
};
layerId = "65D1C757-52A4-41AF-B6F1-0B1906938095";
paths = (
{
closed = 1;
nodes = (
"70 -201 OFFCURVE",
"160 -101 OFFCURVE",
"160 -74 CURVE SMOOTH",
"160 582 LINE SMOOTH",
"160 607 OFFCURVE",
"161 629 OFFCURVE",
"166 642 CURVE",
"168 642 LINE",
"170 633 OFFCURVE",
"176 613 OFFCURVE",
"207 563 CURVE SMOOTH",
"558 0 LINE",
"571 0 OFFCURVE",
"590 5 OFFCURVE",
"602 14 CURVE",
"598 34 OFFCURVE",
"592 80 OFFCURVE",
"592 121 CURVE SMOOTH",
"592 583 LINE SMOOTH",
"592 645 OFFCURVE",
"601 662 OFFCURVE",
"629 672 CURVE SMOOTH",
"665 685 LINE",
"664 698 OFFCURVE",
"657 704 OFFCURVE",
"653 709 CURVE",
"533 709 LINE SMOOTH",
"525 709 OFFCURVE",
"492 694 OFFCURVE",
"484 686 CURVE",
"485 677 OFFCURVE",
"488 673 OFFCURVE",
"491 669 CURVE",
"563 669 LINE",
"556 660 OFFCURVE",
"549 634 OFFCURVE",
"549 598 CURVE SMOOTH",
"549 196 LINE SMOOTH",
"549 151 OFFCURVE",
"551 127 OFFCURVE",
"553 114 CURVE",
"180 709 LINE",
"102 709 LINE SMOOTH",
"92 709 OFFCURVE",
"60 694 OFFCURVE",
"52 687 CURVE",
"53 676 OFFCURVE",
"56 674 OFFCURVE",
"59 670 CURVE",
"131 670 LINE",
"125 662 OFFCURVE",
"118 635 OFFCURVE",
"118 599 CURVE SMOOTH",
"118 -69 LINE",
"92 -113 OFFCURVE",
"35 -155 OFFCURVE",
"-28 -165 CURVE",
"-31 -168 OFFCURVE",
"-35 -175 OFFCURVE",
"-35 -185 CURVE",
"-16 -194 OFFCURVE",
"19 -201 OFFCURVE",
"42 -201 CURVE SMOOTH"
);
}
);
width = 707;
},
{
anchors = (
{
name = bottom;
position = "{385, 0}";
},
{
name = top;
position = "{395, 704}";
}
);
background = {
components = (
{
name = N;
}
);
};
layerId = UUID0;
paths = (
{
closed = 1;
nodes = (
"98 -200 OFFCURVE",
"180 -118 OFFCURVE",
"203 -63 CURVE",
"203 550 LINE SMOOTH",
"203 586 OFFCURVE",
"205 605 OFFCURVE",
"206 610 CURVE",
"212 610 LINE",
"216 592 OFFCURVE",
"231 551 OFFCURVE",
"258 509 CURVE SMOOTH",
"577 0 LINE",
"603 2 OFFCURVE",
"645 11 OFFCURVE",
"664 27 CURVE",
"660 49 OFFCURVE",
"655 109 OFFCURVE",
"655 194 CURVE SMOOTH",
"655 562 LINE SMOOTH",
"655 625 OFFCURVE",
"660 644 OFFCURVE",
"704 657 CURVE SMOOTH",
"750 671 LINE",
"750 686 OFFCURVE",
"743 698 OFFCURVE",
"737 704 CURVE",
"557 704 LINE SMOOTH",
"545 704 OFFCURVE",
"507 680 OFFCURVE",
"496 666 CURVE",
"498 657 OFFCURVE",
"504 651 OFFCURVE",
"508 648 CURVE",
"605 648 LINE",
"597 642 OFFCURVE",
"586 615 OFFCURVE",
"586 566 CURVE SMOOTH",
"586 284 LINE SMOOTH",
"586 202 OFFCURVE",
"590 167 OFFCURVE",
"596 142 CURVE",
"245 704 LINE",
"104 704 LINE SMOOTH",
"92 704 OFFCURVE",
"54 685 OFFCURVE",
"43 671 CURVE",
"44 662 OFFCURVE",
"50 656 OFFCURVE",
"55 653 CURVE",
"153 653 LINE",
"145 647 OFFCURVE",
"134 620 OFFCURVE",
"134 571 CURVE SMOOTH",
"134 -63 LINE",
"100 -93 OFFCURVE",
"46 -128 OFFCURVE",
"-19 -149 CURVE",
"-22 -152 OFFCURVE",
"-26 -159 OFFCURVE",
"-26 -170 CURVE",
"-5 -186 OFFCURVE",
"42 -200 OFFCURVE",
"70 -200 CURVE SMOOTH"
);
}
);
width = 770;
},
{
anchors = (
{
name = bottom;
position = "{396, 0}";
},
{
name = top;
position = "{406, 704}";
}
);
background = {
components = (
{
name = N;
transform = "{1, 0, 0, 1, 5, 0}";
}
);
};
layerId = "C4D96FDC-31F2-4CF4-BEA5-4CCE99FECD99";
paths = (
{
closed = 1;
nodes = (
"77 -201 OFFCURVE",
"179 -131 OFFCURVE",
"204 -63 CURVE",
"204 514 LINE",
"204 553 OFFCURVE",
"206 576 OFFCURVE",
"207 585 CURVE",
"213 585 LINE",
"214 568 OFFCURVE",
"230 528 OFFCURVE",
"260 473 CURVE SMOOTH",
"520 0 LINE",
"568 1 OFFCURVE",
"654 12 OFFCURVE",
"687 38 CURVE",
"681 57 OFFCURVE",
"675 113 OFFCURVE",
"675 196 CURVE SMOOTH",
"675 549 LINE SMOOTH",
"675 622 OFFCURVE",
"686 632 OFFCURVE",
"725 644 CURVE SMOOTH",
"762 655 LINE",
"762 674 OFFCURVE",
"756 694 OFFCURVE",
"748 704 CURVE",
"554 704 LINE SMOOTH",
"542 704 OFFCURVE",
"504 685 OFFCURVE",
"493 671 CURVE",
"494 655 OFFCURVE",
"501 643 OFFCURVE",
"505 637 CURVE",
"608 637 LINE",
"600 631 OFFCURVE",
"590 606 OFFCURVE",
"590 557 CURVE SMOOTH",
"590 327 LINE SMOOTH",
"590 244 OFFCURVE",
"594 214 OFFCURVE",
"600 188 CURVE",
"316 704 LINE",
"97 704 LINE SMOOTH",
"86 704 OFFCURVE",
"47 685 OFFCURVE",
"36 671 CURVE",
"37 655 OFFCURVE",
"45 642 OFFCURVE",
"48 637 CURVE",
"135 637 LINE",
"128 631 OFFCURVE",
"118 604 OFFCURVE",
"118 560 CURVE SMOOTH",
"118 -31 LINE",
"66 -61 OFFCURVE",
"5 -87 OFFCURVE",
"-78 -110 CURVE",
"-82 -120 OFFCURVE",
"-87 -138 OFFCURVE",
"-87 -155 CURVE",
"-55 -179 OFFCURVE",
"-2 -201 OFFCURVE",
"30 -201 CURVE SMOOTH"
);
}
);
width = 787;
},
{
anchors = (
{
name = bottom;
position = "{356, 0}";
},
{
name = top;
position = "{365, 704}";
}
);
background = {
components = (
{
name = N;
}
);
};
layerId = "891D9FC5-7784-4CE6-B01A-BC8B0C8DC68C";
paths = (
{
closed = 1;
nodes = (
"80 -200 OFFCURVE",
"171 -104 OFFCURVE",
"172 -66 CURVE SMOOTH",
"172 570 LINE SMOOTH",
"172 602 OFFCURVE",
"174 619 OFFCURVE",
"177 629 CURVE",
"180 629 LINE",
"181 626 OFFCURVE",
"190 594 OFFCURVE",
"220 544 CURVE SMOOTH",
"549 0 LINE",
"565 1 OFFCURVE",
"591 6 OFFCURVE",
"606 18 CURVE",
"602 40 OFFCURVE",
"596 89 OFFCURVE",
"596 142 CURVE SMOOTH",
"596 574 LINE SMOOTH",
"596 633 OFFCURVE",
"602 652 OFFCURVE",
"636 664 CURVE SMOOTH",
"674 677 LINE",
"673 691 OFFCURVE",
"668 697 OFFCURVE",
"662 704 CURVE",
"528 704 LINE SMOOTH",
"517 704 OFFCURVE",
"485 686 OFFCURVE",
"477 677 CURVE",
"478 666 OFFCURVE",
"481 665 OFFCURVE",
"485 660 CURVE",
"562 660 LINE",
"556 653 OFFCURVE",
"547 629 OFFCURVE",
"547 586 CURVE SMOOTH",
"547 222 LINE SMOOTH",
"547 174 OFFCURVE",
"549 142 OFFCURVE",
"553 122 CURVE",
"199 704 LINE",
"104 704 LINE SMOOTH",
"94 704 OFFCURVE",
"60 688 OFFCURVE",
"52 678 CURVE",
"53 667 OFFCURVE",
"58 664 OFFCURVE",
"60 661 CURVE",
"138 661 LINE",
"131 654 OFFCURVE",
"123 628 OFFCURVE",
"123 587 CURVE SMOOTH",
"123 -64 LINE",
"96 -107 OFFCURVE",
"43 -146 OFFCURVE",
"-21 -159 CURVE",
"-25 -162 OFFCURVE",
"-28 -172 OFFCURVE",
"-28 -180 CURVE",
"-7 -192 OFFCURVE",
"32 -200 OFFCURVE",
"53 -200 CURVE SMOOTH"
);
}
);
width = 713;
},
{
anchors = (
{
name = bottom;
position = "{411, 0}";
},
{
name = top;
position = "{421, 704}";
}
);
background = {
components = (
{
name = N;
}
);
};
layerId = "FC63F3C5-4BD2-445A-988E-6411A2DDD46F";
paths = (
{
closed = 1;
nodes = (
"102 -200 OFFCURVE",
"195 -118 OFFCURVE",
"215 -60 CURVE",
"215 540 LINE SMOOTH",
"215 584 OFFCURVE",
"218 600 OFFCURVE",
"219 604 CURVE",
"225 604 LINE",
"227 587 OFFCURVE",
"244 546 OFFCURVE",
"273 500 CURVE SMOOTH",
"600 0 LINE",
"631 2 OFFCURVE",
"684 10 OFFCURVE",
"708 30 CURVE",
"703 50 OFFCURVE",
"698 118 OFFCURVE",
"698 191 CURVE SMOOTH",
"698 559 LINE SMOOTH",
"698 622 OFFCURVE",
"704 640 OFFCURVE",
"748 653 CURVE SMOOTH",
"791 666 LINE",
"791 682 OFFCURVE",
"785 696 OFFCURVE",
"778 704 CURVE",
"594 704 LINE SMOOTH",
"583 704 OFFCURVE",
"543 682 OFFCURVE",
"531 668 CURVE",
"534 655 OFFCURVE",
"541 649 OFFCURVE",
"543 645 CURVE",
"643 645 LINE",
"635 639 OFFCURVE",
"625 612 OFFCURVE",
"625 565 CURVE SMOOTH",
"625 293 LINE SMOOTH",
"625 218 OFFCURVE",
"628 179 OFFCURVE",
"634 151 CURVE",
"273 704 LINE",
"116 704 LINE SMOOTH",
"103 704 OFFCURVE",
"64 685 OFFCURVE",
"53 671 CURVE",
"54 661 OFFCURVE",
"60 653 OFFCURVE",
"65 648 CURVE",
"161 648 LINE",
"153 643 OFFCURVE",
"142 617 OFFCURVE",
"142 569 CURVE SMOOTH",
"142 -54 LINE",
"103 -83 OFFCURVE",
"41 -118 OFFCURVE",
"-31 -138 CURVE",
"-35 -143 OFFCURVE",
"-39 -154 OFFCURVE",
"-39 -166 CURVE",
"-15 -183 OFFCURVE",
"34 -200 OFFCURVE",
"65 -200 CURVE SMOOTH"
);
}
);
width = 827;
},
{
anchors = (
{
name = bottom;
position = "{409, 0}";
},
{
name = top;
position = "{421, 704}";
}
);
background = {
components = (
{
name = N;
transform = "{1, 0, 0, 1, -2, 0}";
}
);
};
layerId = "B67CA61C-C7DB-4511-8D93-FE28BE810A6B";
paths = (
{
closed = 1;
nodes = (
"65 -201 OFFCURVE",
"178 -129 OFFCURVE",
"201 -59 CURVE",
"201 510 LINE SMOOTH",
"201 551 OFFCURVE",
"203 573 OFFCURVE",
"205 585 CURVE",
"210 585 LINE",
"210 573 OFFCURVE",
"223 538 OFFCURVE",
"258 478 CURVE SMOOTH",
"535 0 LINE",
"583 0 OFFCURVE",
"680 10 OFFCURVE",
"716 38 CURVE",
"711 50 OFFCURVE",
"704 95 OFFCURVE",
"704 170 CURVE SMOOTH",
"704 550 LINE SMOOTH",
"704 626 OFFCURVE",
"719 632 OFFCURVE",
"751 642 CURVE SMOOTH",
"783 652 LINE",
"783 674 OFFCURVE",
"776 696 OFFCURVE",
"770 704 CURVE",
"584 704 LINE SMOOTH",
"572 704 OFFCURVE",
"532 689 OFFCURVE",
"524 678 CURVE",
"524 661 OFFCURVE",
"531 644 OFFCURVE",
"535 638 CURVE",
"635 638 LINE",
"627 632 OFFCURVE",
"618 607 OFFCURVE",
"618 563 CURVE SMOOTH",
"618 311 LINE SMOOTH",
"618 244 OFFCURVE",
"621 219 OFFCURVE",
"626 191 CURVE",
"327 704 LINE",
"101 704 LINE SMOOTH",
"90 704 OFFCURVE",
"51 686 OFFCURVE",
"41 675 CURVE",
"42 658 OFFCURVE",
"47 641 OFFCURVE",
"52 635 CURVE",
"131 635 LINE",
"125 629 OFFCURVE",
"115 606 OFFCURVE",
"115 564 CURVE SMOOTH",
"115 -20 LINE",
"61 -57 OFFCURVE",
"-16 -80 OFFCURVE",
"-100 -100 CURVE",
"-104 -111 OFFCURVE",
"-110 -135 OFFCURVE",
"-110 -154 CURVE",
"-78 -176 OFFCURVE",
"-23 -201 OFFCURVE",
"12 -201 CURVE SMOOTH"
);
}
);
width = 829;
}
);
leftKerningGroup = J;
leftMetricsKey = J;
rightKerningGroup = N;
rightMetricsKey = N;
unicode = 019D;
},
{
color = 6;
glyphname = O;
layers = (
{
anchors = (
{
name = bottom;
position = "{358, 0}";
},
{
name = center;
position = "{358, 352}";
},
{
name = ogonek;
position = "{441, 0}";
},
{
name = top;
position = "{358, 704}";
},
{
name = topleft;
position = "{20, 704}";
},
{
name = topright;
position = "{464, 704}";
}
);
layerId = UUID0;
paths = (
{
closed = 1;
nodes = (
"459 0 OFFCURVE",
"570 71 OFFCURVE",
"613 117 CURVE",
"636 164 OFFCURVE",
"658 287 OFFCURVE",
"658 410 CURVE SMOOTH",
"658 497 OFFCURVE",
"647 579 OFFCURVE",
"619 622 CURVE",
"578 668 OFFCURVE",
"449 720 OFFCURVE",
"382 720 CURVE SMOOTH",
"257 720 OFFCURVE",
"147 651 OFFCURVE",
"100 608 CURVE",
"79 560 OFFCURVE",
"57 434 OFFCURVE",
"57 316 CURVE SMOOTH",
"57 218 OFFCURVE",
"73 136 OFFCURVE",
"106 98 CURVE SMOOTH",
"144 55 OFFCURVE",
"273 0 OFFCURVE",
"340 0 CURVE SMOOTH"
);
},
{
closed = 1;
nodes = (
"310 69 OFFCURVE",
"214 113 OFFCURVE",
"188 143 CURVE",
"163 196 OFFCURVE",
"154 274 OFFCURVE",
"154 355 CURVE SMOOTH",
"154 451 OFFCURVE",
"168 552 OFFCURVE",
"191 611 CURVE",
"229 629 OFFCURVE",
"299 651 OFFCURVE",
"356 651 CURVE SMOOTH",
"417 651 OFFCURVE",
"525 597 OFFCURVE",
"534 580 CURVE",
"550 532 OFFCURVE",
"561 457 OFFCURVE",
"561 376 CURVE SMOOTH",
"561 272 OFFCURVE",
"545 175 OFFCURVE",
"521 117 CURVE",
"501 101 OFFCURVE",
"424 69 OFFCURVE",
"361 69 CURVE SMOOTH"
);
}
);
width = 715;
},
{
anchors = (
{
name = bottom;
position = "{359, 0}";
},
{
name = center;
position = "{359, 352}";
},
{
name = ogonek;
position = "{441, 0}";
},
{
name = top;
position = "{359, 704}";
},
{
name = topleft;
position = "{20, 704}";
},
{
name = topright;
position = "{488, 704}";
}
);
layerId = "C4D96FDC-31F2-4CF4-BEA5-4CCE99FECD99";
paths = (
{
closed = 1;
nodes = (
"443 0 OFFCURVE",
"572 57 OFFCURVE",
"626 106 CURVE",
"653 178 OFFCURVE",
"671 278 OFFCURVE",
"671 377 CURVE SMOOTH",
"671 470 OFFCURVE",
"651 581 OFFCURVE",
"618 635 CURVE",
"584 675 OFFCURVE",
"473 720 OFFCURVE",
"401 720 CURVE SMOOTH",
"304 720 OFFCURVE",
"159 659 OFFCURVE",
"86 596 CURVE",
"66 538 OFFCURVE",
"47 427 OFFCURVE",
"47 323 CURVE SMOOTH",
"47 239 OFFCURVE",
"61 158 OFFCURVE",
"90 113 CURVE",
"115 81 OFFCURVE",
"242 0 OFFCURVE",
"339 0 CURVE SMOOTH"
);
},
{
closed = 1;
nodes = (
"345 92 OFFCURVE",
"258 124 OFFCURVE",
"244 147 CURVE",
"223 203 OFFCURVE",
"213 287 OFFCURVE",
"213 375 CURVE SMOOTH",
"213 467 OFFCURVE",
"224 556 OFFCURVE",
"244 609 CURVE",
"275 616 OFFCURVE",
"338 621 OFFCURVE",
"368 621 CURVE SMOOTH",
"394 621 OFFCURVE",
"469 590 OFFCURVE",
"483 569 CURVE",
"494 520 OFFCURVE",
"501 434 OFFCURVE",
"501 354 CURVE SMOOTH",
"501 264 OFFCURVE",
"493 171 OFFCURVE",
"471 113 CURVE",
"449 98 OFFCURVE",
"384 92 OFFCURVE",
"361 92 CURVE SMOOTH"
);
}
);
width = 718;
},
{
anchors = (
{
name = bottom;
position = "{335, 0}";
},
{
name = center;
position = "{335, 354}";
},
{
name = ogonek;
position = "{412, 0}";
},
{
name = top;
position = "{335, 709}";
},
{
name = topleft;
position = "{20, 709}";
},
{
name = topright;
position = "{442, 709}";
}
);
layerId = "65D1C757-52A4-41AF-B6F1-0B1906938095";
paths = (
{
closed = 1;
nodes = (
"424 0 OFFCURVE",
"515 50 OFFCURVE",
"566 96 CURVE",
"588 167 OFFCURVE",
"609 285 OFFCURVE",
"609 404 CURVE SMOOTH",
"609 476 OFFCURVE",
"601 558 OFFCURVE",
"577 624 CURVE",
"550 662 OFFCURVE",
"435 725 OFFCURVE",
"372 725 CURVE SMOOTH",
"288 725 OFFCURVE",
"160 667 OFFCURVE",
"102 626 CURVE",
"77 563 OFFCURVE",
"60 452 OFFCURVE",
"60 348 CURVE SMOOTH",
"60 251 OFFCURVE",
"74 156 OFFCURVE",
"111 95 CURVE",
"141 59 OFFCURVE",
"255 0 OFFCURVE",
"325 0 CURVE SMOOTH"
);
},
{
closed = 1;
nodes = (
"290 46 OFFCURVE",
"187 95 OFFCURVE",
"157 130 CURVE",
"134 172 OFFCURVE",
"119 268 OFFCURVE",
"119 372 CURVE SMOOTH",
"119 465 OFFCURVE",
"130 568 OFFCURVE",
"155 619 CURVE",
"205 646 OFFCURVE",
"301 677 OFFCURVE",
"348 677 CURVE SMOOTH",
"409 677 OFFCURVE",
"500 627 OFFCURVE",
"524 598 CURVE",
"539 546 OFFCURVE",
"547 467 OFFCURVE",
"547 383 CURVE SMOOTH",
"547 268 OFFCURVE",
"534 153 OFFCURVE",
"512 100 CURVE",
"483 80 OFFCURVE",
"397 46 OFFCURVE",
"347 46 CURVE SMOOTH"
);
}
);
userData = {
LWTimeline = "H4sIAAAAAAAAE+2aPW/bMBCG/wrBWTX4cfzy2LRBhxQBkrQZAqNQbcU26kiBpDSD4f/eY5TaIe02HTIUyS2G+PrI945HPou05tdteVN1fHy15qv7b121wsdJwc/O3/OxFQW/LfvF8Pd01XTVjI/79q4qeN3MHqZxUIoJdnp8fPTl7OtHXnAjBQOfKFaxoNl26IFJa59GWGGY8jqXQMhhFjv/fHp68em37NLlg2XGmERymlkldpZgmTXhaQhoxZxKMtdOPkiZpfIuj5RWMmuTfKVQaLmr0jlMKnG0uC8mq5Fp3Kq9Epky6mmcww0zyYZJKVmArZkEyVKzuEJanAKWlTbZFH9sq/KWASSW2J+QKgbzUo/5x7GW2NgkDSktUzZpV5S029vlKIN1SaTCPbRJYyWWZTFyOw6OWUgKVVFySaIaBimzBBHySAgoqUQy2FQTzO4sac8MJH2MxwtsOgsl7feOb5RVWqXRGrubXSHs7m5fAddJj7zGGtPu6JhCVuFkgze5rKeLph2ucI13nY/5tKr7qsVJt0237JdNjdpaa10wbdSGx1PxGNnMm7r6kUfaUDCRxPXNbR4Ul3MC8rB2OV/0WSyAOBi7qq7zUHUg8nvT983NIf+YJG7B/XLWLxBn1hT8rqvaD2Vf8vGan1xeLOMKeLe8BiWVGeF5ElZtCv6zavvLYd47WfCTgYfRdYvJK1tIV8gJ4TKxJFwOHoTLYUy4fK249CNvLXjhiZfES+JlbvlivISwx8soHeBllImXWex/xMsgpMH6iJfES+Jlbkm8zAFDvDRCCEm4JFwSLnNLwmXOlzeOyzAS0jnQxEviJfGSeEm8fI6XUnuhPb3uIV4SL4mXxMvneKlkMEYTLgmXhMvcknCZ8+XN41KDVEAvxwmXhEvCJeHyOVzib/BAuCRcEi5zyxfDJX17+SpwqcUoIC6F/MdviYiTiSVxcvAgTg5j4uQr5SS4kdT4/LdvLnG5tpo27WxZz/n4ulx1eGtWZdcfLcp6fnixX3LHyb05OQAA";
};
width = 669;
},
{
anchors = (
{
name = bottom;
position = "{334, 0}";
},
{
name = center;
position = "{334, 349}";
},
{
name = ogonek;
position = "{411, 0}";
},
{
name = top;
position = "{334, 704}";
},
{
name = topleft;
position = "{24, 704}";
},
{
name = topright;
position = "{438, 704}";
}
);
layerId = "891D9FC5-7784-4CE6-B01A-BC8B0C8DC68C";
paths = (
{
closed = 1;
nodes = (
"424 0 OFFCURVE",
"517 52 OFFCURVE",
"565 96 CURVE",
"587 163 OFFCURVE",
"608 281 OFFCURVE",
"608 404 CURVE SMOOTH",
"608 483 OFFCURVE",
"598 563 OFFCURVE",
"574 621 CURVE",
"545 661 OFFCURVE",
"427 720 OFFCURVE",
"367 720 CURVE SMOOTH",
"272 720 OFFCURVE",
"154 661 OFFCURVE",
"101 623 CURVE",
"79 563 OFFCURVE",
"61 447 OFFCURVE",
"61 337 CURVE SMOOTH",
"61 249 OFFCURVE",
"73 153 OFFCURVE",
"109 95 CURVE",
"141 58 OFFCURVE",
"255 0 OFFCURVE",
"323 0 CURVE SMOOTH"
);
},
{
closed = 1;
nodes = (
"289 53 OFFCURVE",
"193 101 OFFCURVE",
"166 133 CURVE",
"143 179 OFFCURVE",
"131 272 OFFCURVE",
"131 365 CURVE SMOOTH",
"131 455 OFFCURVE",
"142 556 OFFCURVE",
"166 610 CURVE",
"207 633 OFFCURVE",
"293 665 OFFCURVE",
"343 665 CURVE SMOOTH",
"400 665 OFFCURVE",
"494 615 OFFCURVE",
"512 590 CURVE",
"527 539 OFFCURVE",
"535 462 OFFCURVE",
"535 379 CURVE SMOOTH",
"535 270 OFFCURVE",
"522 162 OFFCURVE",
"500 110 CURVE",
"475 89 OFFCURVE",
"396 53 OFFCURVE",
"344 53 CURVE SMOOTH"
);
}
);
userData = {
LWTimeline = "H4sIAAAAAAAAE+2aPW/bMBCG/wrBWTX4cfzy2LRBhxQBkrQZAqNQbcU26kiBpDSD4f/eY5TaIe02HTIUyS2G+PrI945HPou05tdteVN1fHy15qv7b121wsdJwc/O3/OxFQW/LfvF8Pd01XTVjI/79q4qeN3MHqZxUIoJdnp8fPTl7OtHXnAjBQOfKFaxoNl26IFJa59GWGGY8jqXQMhhFjv/fHp68em37NLlg2XGmERymlkldpZgmTXhaQhoxZxKMtdOPkiZpfIuj5RWMmuTfKVQaLmr0jlMKnG0uC8mq5Fp3Kq9Epky6mmcww0zyYZJKVmArZkEyVKzuEJanAKWlTbZFH9sq/KWASSW2J+QKgbzUo/5x7GW2NgkDSktUzZpV5S029vlKIN1SaTCPbRJYyWWZTFyOw6OWUgKVVFySaIaBimzBBHySAgoqUQy2FQTzO4sac8MJH2MxwtsOgsl7feOb5RVWqXRGrubXSHs7m5fAddJj7zGGtPu6JhCVuFkgze5rKeLph2ucI13nY/5tKr7qsVJt0237JdNjdpaa10wbdSGx1PxGNnMm7r6kUfaUDCRxPXNbR4Ul3MC8rB2OV/0WSyAOBi7qq7zUHUg8nvT983NIf+YJG7B/XLWLxBn1hT8rqvaD2Vf8vGan1xeLOMKeLe8BiWVGeF5ElZtCv6zavvLYd47WfCTgYfRdYvJK1tIV8gJ4TKxJFwOHoTLYUy4fK249CNvLXjhiZfES+JlbvlivISwx8soHeBllImXWex/xMsgpMH6iJfES+Jlbkm8zAFDvDRCCEm4JFwSLnNLwmXOlzeOyzAS0jnQxEviJfGSeEm8fI6XUnuhPb3uIV4SL4mXxMvneKlkMEYTLgmXhMvcknCZ8+XN41KDVEAvxwmXhEvCJeHyOVzib/BAuCRcEi5zyxfDJX17+SpwqcUoIC6F/MdviYiTiSVxcvAgTg5j4uQr5SS4kdT4/LdvLnG5tpo27WxZz/n4ulx1eGtWZdcfLcp6fnixX3LHyb05OQAA";
};
width = 669;
},
{
anchors = (
{
name = bottom;
position = "{384, 0}";
},
{
name = center;
position = "{384, 338}";
},
{
name = ogonek;
position = "{469, 0}";
},
{
name = top;
position = "{384, 704}";
},
{
name = topleft;
position = "{31, 704}";
},
{
name = topright;
position = "{502, 704}";
}
);
layerId = "FC63F3C5-4BD2-445A-988E-6411A2DDD46F";
paths = (
{
closed = 1;
nodes = (
"486 0 OFFCURVE",
"605 66 OFFCURVE",
"651 107 CURVE",
"676 164 OFFCURVE",
"698 284 OFFCURVE",
"698 399 CURVE SMOOTH",
"698 491 OFFCURVE",
"683 579 OFFCURVE",
"654 626 CURVE",
"615 670 OFFCURVE",
"485 720 OFFCURVE",
"416 720 CURVE SMOOTH",
"299 720 OFFCURVE",
"173 658 OFFCURVE",
"112 610 CURVE",
"90 559 OFFCURVE",
"68 436 OFFCURVE",
"68 319 CURVE SMOOTH",
"68 224 OFFCURVE",
"85 142 OFFCURVE",
"117 104 CURVE SMOOTH",
"151 64 OFFCURVE",
"283 0 OFFCURVE",
"365 0 CURVE SMOOTH"
);
},
{
closed = 1;
nodes = (
"344 75 OFFCURVE",
"244 116 OFFCURVE",
"220 144 CURVE",
"195 197 OFFCURVE",
"185 280 OFFCURVE",
"185 361 CURVE SMOOTH",
"185 455 OFFCURVE",
"198 550 OFFCURVE",
"221 606 CURVE",
"261 623 OFFCURVE",
"338 643 OFFCURVE",
"387 643 CURVE SMOOTH",
"440 643 OFFCURVE",
"541 596 OFFCURVE",
"554 577 CURVE",
"569 529 OFFCURVE",
"579 454 OFFCURVE",
"579 369 CURVE SMOOTH",
"579 269 OFFCURVE",
"565 176 OFFCURVE",
"541 120 CURVE",
"518 103 OFFCURVE",
"442 75 OFFCURVE",
"388 75 CURVE SMOOTH"
);
}
);
width = 766;
},
{
anchors = (
{
name = bottom;
position = "{380, 0}";
},
{
name = center;
position = "{380, 362}";
},
{
name = ogonek;
position = "{463, 0}";
},
{
name = top;
position = "{380, 704}";
},
{
name = topleft;
position = "{31, 704}";
},
{
name = topright;
position = "{520, 704}";
}
);
layerId = "B67CA61C-C7DB-4511-8D93-FE28BE810A6B";
paths = (
{
closed = 1;
nodes = (
"459 0 OFFCURVE",
"591 41 OFFCURVE",
"654 88 CURVE",
"683 181 OFFCURVE",
"701 270 OFFCURVE",
"701 362 CURVE SMOOTH",
"701 454 OFFCURVE",
"678 573 OFFCURVE",
"643 639 CURVE",
"617 673 OFFCURVE",
"509 720 OFFCURVE",
"433 720 CURVE SMOOTH",
"350 720 OFFCURVE",
"183 667 OFFCURVE",
"98 601 CURVE",
"76 535 OFFCURVE",
"58 434 OFFCURVE",
"58 337 CURVE SMOOTH",
"58 258 OFFCURVE",
"73 170 OFFCURVE",
"102 117 CURVE",
"121 95 OFFCURVE",
"246 0 OFFCURVE",
"361 0 CURVE SMOOTH"
);
},
{
closed = 1;
nodes = (
"374 93 OFFCURVE",
"283 122 OFFCURVE",
"270 143 CURVE",
"249 199 OFFCURVE",
"237 298 OFFCURVE",
"237 388 CURVE SMOOTH",
"237 482 OFFCURVE",
"248 559 OFFCURVE",
"268 605 CURVE",
"303 613 OFFCURVE",
"375 617 OFFCURVE",
"397 617 CURVE SMOOTH",
"415 617 OFFCURVE",
"478 597 OFFCURVE",
"500 570 CURVE",
"509 522 OFFCURVE",
"515 434 OFFCURVE",
"515 346 CURVE SMOOTH",
"515 261 OFFCURVE",
"510 167 OFFCURVE",
"488 111 CURVE",
"461 100 OFFCURVE",
"399 93 OFFCURVE",
"385 93 CURVE SMOOTH"
);
}
);
width = 759;
}
);
leftKerningGroup = O;
rightKerningGroup = O;
unicode = 004F;
},
{
color = 3;
glyphname = Oslash;
layers = (
{
anchors = (
{
name = bottom;
position = "{358, 0}";
},
{
name = top;
position = "{358, 704}";
}
);
components = (
{
name = O;
}
);
layerId = UUID0;
paths = (
{
closed = 1;
nodes = (
"548 781 LINE",
"543 792 OFFCURVE",
"523 808 OFFCURVE",
"489 812 CURVE",
"468 749 OFFCURVE",
"424 625 OFFCURVE",
"382 513 CURVE SMOOTH",
"164 -76 LINE",
"173 -84 OFFCURVE",
"193 -95 OFFCURVE",
"219 -95 CURVE"
);
}
);
width = 715;
},
{
anchors = (
{
name = bottom;
position = "{333, 0}";
},
{
name = top;
position = "{333, 704}";
}
);
components = (
{
name = O;
}
);
layerId = "65D1C757-52A4-41AF-B6F1-0B1906938095";
paths = (
{
closed = 1;
nodes = (
"519 789 LINE",
"510 800 OFFCURVE",
"495 809 OFFCURVE",
"473 812 CURVE",
"452 749 OFFCURVE",
"408 625 OFFCURVE",
"366 513 CURVE SMOOTH",
"148 -76 LINE",
"155 -82 OFFCURVE",
"168 -89 OFFCURVE",
"186 -89 CURVE"
);
}
);
width = 669;
},
{
anchors = (
{
name = bottom;
position = "{359, 0}";
},
{
name = top;
position = "{359, 704}";
}
);
components = (
{
name = O;
}
);
layerId = "C4D96FDC-31F2-4CF4-BEA5-4CCE99FECD99";
paths = (
{
closed = 1;
nodes = (
"560 781 LINE",
"548 795 OFFCURVE",
"520 808 OFFCURVE",
"481 812 CURVE",
"460 749 OFFCURVE",
"416 625 OFFCURVE",
"374 513 CURVE SMOOTH",
"156 -76 LINE",
"166 -87 OFFCURVE",
"199 -103 OFFCURVE",
"227 -103 CURVE"
);
}
);
width = 718;
},
{
anchors = (
{
name = bottom;
position = "{333, 0}";
},
{
name = top;
position = "{333, 704}";
}
);
components = (
{
name = O;
}
);
layerId = "891D9FC5-7784-4CE6-B01A-BC8B0C8DC68C";
paths = (
{
closed = 1;
nodes = (
"548 789 LINE",
"539 800 OFFCURVE",
"524 809 OFFCURVE",
"502 812 CURVE",
"481 749 OFFCURVE",
"437 625 OFFCURVE",
"395 513 CURVE SMOOTH",
"177 -76 LINE",
"184 -82 OFFCURVE",
"197 -89 OFFCURVE",
"215 -89 CURVE"
);
}
);
width = 669;
},
{
anchors = (
{
name = bottom;
position = "{358, 0}";
},
{
name = top;
position = "{358, 704}";
}
);
components = (
{
name = O;
}
);
layerId = "FC63F3C5-4BD2-445A-988E-6411A2DDD46F";
paths = (
{
closed = 1;
nodes = (
"566 781 LINE",
"561 792 OFFCURVE",
"541 808 OFFCURVE",
"507 812 CURVE",
"486 749 OFFCURVE",
"442 625 OFFCURVE",
"400 513 CURVE SMOOTH",
"182 -76 LINE",
"191 -84 OFFCURVE",
"211 -95 OFFCURVE",
"237 -95 CURVE"
);
}
);
width = 766;
},
{
anchors = (
{
name = bottom;
position = "{359, 0}";
},
{
name = top;
position = "{359, 704}";
}
);
components = (
{
name = O;
}
);
layerId = "B67CA61C-C7DB-4511-8D93-FE28BE810A6B";
paths = (
{
closed = 1;
nodes = (
"570 781 LINE",
"558 795 OFFCURVE",
"530 808 OFFCURVE",
"491 812 CURVE",
"470 749 OFFCURVE",
"426 625 OFFCURVE",
"384 513 CURVE SMOOTH",
"166 -76 LINE",
"176 -87 OFFCURVE",
"209 -103 OFFCURVE",
"237 -103 CURVE"
);
}
);
width = 759;
}
);
leftKerningGroup = O;
leftMetricsKey = O;
rightKerningGroup = O;
rightMetricsKey = O;
unicode = 00D8;
},
{
color = 6;
glyphname = OE;
layers = (
{
anchors = (
{
name = bottom;
position = "{497, 0}";
},
{
name = top;
position = "{497, 704}";
}
);
background = {
components = (
{
name = O;
}
);
};
layerId = UUID0;
paths = (
{
closed = 1;
nodes = (
"387 0 OFFCURVE",
"434 11 OFFCURVE",
"474 27 CURVE",
"586 14 OFFCURVE",
"764 0 OFFCURVE",
"845 0 CURVE SMOOTH",
"865 0 OFFCURVE",
"909 29 OFFCURVE",
"926 46 CURVE",
"932 85 OFFCURVE",
"939 158 OFFCURVE",
"939 216 CURVE",
"932 223 OFFCURVE",
"914 232 OFFCURVE",
"891 232 CURVE",
"841 69 LINE",
"564 69 LINE",
"572 79 OFFCURVE",
"582 104 OFFCURVE",
"582 138 CURVE SMOOTH",
"582 334 LINE",
"795 334 LINE",
"799 343 OFFCURVE",
"805 367 OFFCURVE",
"806 396 CURVE",
"797 404 LINE",
"739 397 OFFCURVE",
"659 391 OFFCURVE",
"582 391 CURVE",
"582 572 LINE SMOOTH",
"582 620 OFFCURVE",
"592 654 OFFCURVE",
"640 654 CURVE SMOOTH",
"712 654 OFFCURVE",
"793 644 OFFCURVE",
"834 637 CURVE",
"858 500 LINE",
"864 496 OFFCURVE",
"882 490 OFFCURVE",
"908 490 CURVE",
"917 515 OFFCURVE",
"932 575 OFFCURVE",
"936 649 CURVE",
"916 671 OFFCURVE",
"875 694 OFFCURVE",
"841 704 CURVE",
"484 704 LINE",
"447 712 OFFCURVE",
"405 720 OFFCURVE",
"382 720 CURVE SMOOTH",
"257 720 OFFCURVE",
"147 651 OFFCURVE",
"100 608 CURVE",
"79 560 OFFCURVE",
"57 434 OFFCURVE",
"57 316 CURVE SMOOTH",
"57 218 OFFCURVE",
"73 136 OFFCURVE",
"106 98 CURVE SMOOTH",
"144 55 OFFCURVE",
"273 0 OFFCURVE",
"340 0 CURVE SMOOTH"
);
},
{
closed = 1;
nodes = (
"310 69 OFFCURVE",
"214 113 OFFCURVE",
"188 143 CURVE",
"163 196 OFFCURVE",
"154 274 OFFCURVE",
"154 355 CURVE SMOOTH",
"154 451 OFFCURVE",
"168 552 OFFCURVE",
"191 611 CURVE",
"229 629 OFFCURVE",
"299 651 OFFCURVE",
"356 651 CURVE SMOOTH",
"388 651 OFFCURVE",
"460 636 OFFCURVE",
"490 621 CURVE",
"490 99 LINE",
"450 83 OFFCURVE",
"400 69 OFFCURVE",
"361 69 CURVE SMOOTH"
);
}
);
width = 999;
},
{
anchors = (
{
name = bottom;
position = "{469, 0}";
},
{
name = top;
position = "{469, 709}";
}
);
background = {
components = (
{
name = O;
}
);
};
layerId = "65D1C757-52A4-41AF-B6F1-0B1906938095";
paths = (
{
closed = 1;
nodes = (
"372 0 OFFCURVE",
"431 11 OFFCURVE",
"478 27 CURVE",
"591 15 OFFCURVE",
"750 0 OFFCURVE",
"817 0 CURVE",
"843 6 OFFCURVE",
"870 23 OFFCURVE",
"885 34 CURVE",
"889 103 OFFCURVE",
"890 164 OFFCURVE",
"890 188 CURVE",
"885 192 OFFCURVE",
"875 197 OFFCURVE",
"863 197 CURVE",
"820 49 LINE",
"536 49 LINE",
"542 56 OFFCURVE",
"548 79 OFFCURVE",
"548 104 CURVE SMOOTH",
"548 352 LINE",
"767 352 LINE",
"772 359 OFFCURVE",
"776 372 OFFCURVE",
"779 392 CURVE",
"773 399 LINE",
"716 394 OFFCURVE",
"649 390 OFFCURVE",
"548 387 CURVE",
"548 604 LINE SMOOTH",
"548 653 OFFCURVE",
"558 674 OFFCURVE",
"608 674 CURVE SMOOTH",
"668 674 OFFCURVE",
"762 669 OFFCURVE",
"813 663 CURVE",
"832 520 LINE",
"835 518 OFFCURVE",
"845 514 OFFCURVE",
"860 514 CURVE",
"868 545 OFFCURVE",
"879 607 OFFCURVE",
"884 675 CURVE",
"867 690 OFFCURVE",
"840 701 OFFCURVE",
"820 709 CURVE",
"488 709 LINE",
"450 718 OFFCURVE",
"403 725 OFFCURVE",
"372 725 CURVE SMOOTH",
"288 725 OFFCURVE",
"160 667 OFFCURVE",
"102 626 CURVE",
"77 563 OFFCURVE",
"60 452 OFFCURVE",
"60 348 CURVE SMOOTH",
"60 251 OFFCURVE",
"74 156 OFFCURVE",
"111 95 CURVE",
"141 59 OFFCURVE",
"255 0 OFFCURVE",
"325 0 CURVE SMOOTH"
);
},
{
closed = 1;
nodes = (
"290 46 OFFCURVE",
"187 95 OFFCURVE",
"157 130 CURVE",
"134 172 OFFCURVE",
"119 268 OFFCURVE",
"119 372 CURVE SMOOTH",
"119 465 OFFCURVE",
"130 568 OFFCURVE",
"155 619 CURVE",
"205 646 OFFCURVE",
"301 677 OFFCURVE",
"348 677 CURVE SMOOTH",
"388 677 OFFCURVE",
"448 668 OFFCURVE",
"493 657 CURVE",
"493 75 LINE",
"444 58 OFFCURVE",
"393 46 OFFCURVE",
"347 46 CURVE SMOOTH"
);
}
);
width = 936;
},
{
anchors = (
{
name = bottom;
position = "{513, 0}";
},
{
name = top;
position = "{513, 704}";
}
);
background = {
components = (
{
name = O;
}
);
};
layerId = "C4D96FDC-31F2-4CF4-BEA5-4CCE99FECD99";
paths = (
{
closed = 1;
nodes = (
"392 0 OFFCURVE",
"439 13 OFFCURVE",
"476 25 CURVE",
"605 12 OFFCURVE",
"822 0 OFFCURVE",
"915 0 CURVE SMOOTH",
"928 0 OFFCURVE",
"966 29 OFFCURVE",
"977 46 CURVE",
"985 86 OFFCURVE",
"996 172 OFFCURVE",
"996 249 CURVE",
"982 257 OFFCURVE",
"947 268 OFFCURVE",
"909 268 CURVE",
"838 83 LINE",
"624 83 LINE",
"632 92 OFFCURVE",
"642 118 OFFCURVE",
"642 152 CURVE SMOOTH",
"642 327 LINE",
"829 327 LINE",
"833 338 OFFCURVE",
"839 362 OFFCURVE",
"840 393 CURVE",
"826 409 LINE",
"768 402 OFFCURVE",
"719 398 OFFCURVE",
"642 396 CURVE",
"642 556 LINE SMOOTH",
"642 599 OFFCURVE",
"651 632 OFFCURVE",
"698 632 CURVE SMOOTH",
"783 632 OFFCURVE",
"835 621 OFFCURVE",
"848 613 CURVE",
"875 467 LINE",
"892 460 OFFCURVE",
"929 452 OFFCURVE",
"958 452 CURVE",
"968 486 OFFCURVE",
"984 560 OFFCURVE",
"989 642 CURVE",
"979 666 OFFCURVE",
"959 692 OFFCURVE",
"943 704 CURVE",
"490 704 LINE",
"459 713 OFFCURVE",
"425 720 OFFCURVE",
"401 720 CURVE SMOOTH",
"304 720 OFFCURVE",
"159 659 OFFCURVE",
"86 596 CURVE",
"66 538 OFFCURVE",
"47 427 OFFCURVE",
"47 323 CURVE SMOOTH",
"47 239 OFFCURVE",
"61 158 OFFCURVE",
"90 113 CURVE",
"115 81 OFFCURVE",
"242 0 OFFCURVE",
"339 0 CURVE SMOOTH"
);
},
{
closed = 1;
nodes = (
"345 92 OFFCURVE",
"258 124 OFFCURVE",
"244 147 CURVE",
"223 203 OFFCURVE",
"213 287 OFFCURVE",
"213 375 CURVE SMOOTH",
"213 467 OFFCURVE",
"224 556 OFFCURVE",
"244 609 CURVE",
"275 616 OFFCURVE",
"338 621 OFFCURVE",
"368 621 CURVE SMOOTH",
"403 621 OFFCURVE",
"450 606 OFFCURVE",
"480 586 CURVE",
"480 113 LINE",
"446 100 OFFCURVE",
"395 92 OFFCURVE",
"361 92 CURVE SMOOTH"
);
}
);
width = 1040;
},
{
anchors = (
{
name = bottom;
position = "{465, 0}";
},
{
name = top;
position = "{465, 704}";
}
);
background = {
components = (
{
name = O;
}
);
};
layerId = "891D9FC5-7784-4CE6-B01A-BC8B0C8DC68C";
paths = (
{
closed = 1;
nodes = (
"369 0 OFFCURVE",
"423 11 OFFCURVE",
"467 27 CURVE",
"576 15 OFFCURVE",
"727 0 OFFCURVE",
"803 0 CURVE",
"820 3 OFFCURVE",
"855 22 OFFCURVE",
"872 38 CURVE",
"877 99 OFFCURVE",
"880 162 OFFCURVE",
"880 196 CURVE",
"875 200 OFFCURVE",
"862 207 OFFCURVE",
"847 207 CURVE",
"802 54 LINE",
"532 54 LINE",
"537 61 OFFCURVE",
"545 85 OFFCURVE",
"545 114 CURVE SMOOTH",
"545 344 LINE",
"755 344 LINE",
"759 354 OFFCURVE",
"764 372 OFFCURVE",
"766 391 CURVE",
"759 399 LINE",
"700 393 OFFCURVE",
"633 389 OFFCURVE",
"545 386 CURVE",
"545 592 LINE SMOOTH",
"545 638 OFFCURVE",
"554 665 OFFCURVE",
"602 665 CURVE SMOOTH",
"670 665 OFFCURVE",
"751 658 OFFCURVE",
"796 652 CURVE",
"816 512 LINE",
"821 508 OFFCURVE",
"835 504 OFFCURVE",
"851 504 CURVE",
"859 535 OFFCURVE",
"871 597 OFFCURVE",
"875 664 CURVE",
"860 679 OFFCURVE",
"830 694 OFFCURVE",
"804 704 CURVE",
"474 704 LINE",
"435 714 OFFCURVE",
"391 720 OFFCURVE",
"367 720 CURVE SMOOTH",
"271 720 OFFCURVE",
"154 662 OFFCURVE",
"101 622 CURVE",
"79 563 OFFCURVE",
"61 444 OFFCURVE",
"61 337 CURVE SMOOTH",
"61 245 OFFCURVE",
"74 151 OFFCURVE",
"109 95 CURVE",
"141 58 OFFCURVE",
"255 0 OFFCURVE",
"323 0 CURVE SMOOTH"
);
},
{
closed = 1;
nodes = (
"289 53 OFFCURVE",
"193 101 OFFCURVE",
"166 133 CURVE",
"143 179 OFFCURVE",
"131 272 OFFCURVE",
"131 365 CURVE SMOOTH",
"131 457 OFFCURVE",
"142 556 OFFCURVE",
"166 611 CURVE",
"207 632 OFFCURVE",
"292 665 OFFCURVE",
"343 665 CURVE SMOOTH",
"380 665 OFFCURVE",
"440 655 OFFCURVE",
"480 643 CURVE",
"480 81 LINE",
"434 65 OFFCURVE",
"387 53 OFFCURVE",
"344 53 CURVE SMOOTH"
);
}
);
width = 933;
},
{
anchors = (
{
name = bottom;
position = "{533, 0}";
},
{
name = top;
position = "{533, 704}";
}
);
background = {
components = (
{
name = O;
}
);
};
layerId = "FC63F3C5-4BD2-445A-988E-6411A2DDD46F";
paths = (
{
closed = 1;
nodes = (
"416 0 OFFCURVE",
"466 10 OFFCURVE",
"510 27 CURVE",
"628 14 OFFCURVE",
"815 0 OFFCURVE",
"906 0 CURVE SMOOTH",
"926 0 OFFCURVE",
"974 29 OFFCURVE",
"992 46 CURVE",
"998 86 OFFCURVE",
"1006 158 OFFCURVE",
"1006 224 CURVE",
"996 233 OFFCURVE",
"972 241 OFFCURVE",
"947 241 CURVE",
"889 72 LINE",
"616 72 LINE",
"624 82 OFFCURVE",
"634 106 OFFCURVE",
"634 140 CURVE SMOOTH",
"634 333 LINE",
"851 333 LINE",
"856 342 OFFCURVE",
"861 370 OFFCURVE",
"863 394 CURVE",
"852 405 LINE",
"792 398 OFFCURVE",
"708 393 OFFCURVE",
"634 392 CURVE",
"634 568 LINE SMOOTH",
"634 608 OFFCURVE",
"642 648 OFFCURVE",
"695 648 CURVE SMOOTH",
"773 648 OFFCURVE",
"851 638 OFFCURVE",
"887 631 CURVE",
"913 490 LINE",
"922 486 OFFCURVE",
"944 480 OFFCURVE",
"972 480 CURVE",
"981 509 OFFCURVE",
"996 568 OFFCURVE",
"1001 648 CURVE",
"979 671 OFFCURVE",
"938 693 OFFCURVE",
"903 704 CURVE",
"521 704 LINE",
"484 712 OFFCURVE",
"444 720 OFFCURVE",
"416 720 CURVE SMOOTH",
"299 720 OFFCURVE",
"173 658 OFFCURVE",
"112 609 CURVE",
"90 559 OFFCURVE",
"68 435 OFFCURVE",
"68 319 CURVE SMOOTH",
"68 224 OFFCURVE",
"85 142 OFFCURVE",
"117 104 CURVE SMOOTH",
"151 64 OFFCURVE",
"283 0 OFFCURVE",
"365 0 CURVE SMOOTH"
);
},
{
closed = 1;
nodes = (
"343 75 OFFCURVE",
"244 116 OFFCURVE",
"220 144 CURVE",
"195 197 OFFCURVE",
"185 280 OFFCURVE",
"185 361 CURVE SMOOTH",
"185 457 OFFCURVE",
"198 549 OFFCURVE",
"221 606 CURVE",
"261 623 OFFCURVE",
"339 643 OFFCURVE",
"387 643 CURVE SMOOTH",
"425 643 OFFCURVE",
"491 627 OFFCURVE",
"523 612 CURVE",
"523 99 LINE",
"482 86 OFFCURVE",
"428 75 OFFCURVE",
"388 75 CURVE SMOOTH"
);
}
);
width = 1072;
},
{
anchors = (
{
name = bottom;
position = "{544, 0}";
},
{
name = top;
position = "{544, 704}";
}
);
layerId = "B67CA61C-C7DB-4511-8D93-FE28BE810A6B";
paths = (
{
closed = 1;
nodes = (
"417 0 OFFCURVE",
"470 11 OFFCURVE",
"512 24 CURVE",
"635 12 OFFCURVE",
"899 0 OFFCURVE",
"970 0 CURVE SMOOTH",
"985 0 OFFCURVE",
"1024 27 OFFCURVE",
"1034 42 CURVE",
"1044 93 OFFCURVE",
"1054 181 OFFCURVE",
"1054 251 CURVE",
"1037 259 OFFCURVE",
"998 269 OFFCURVE",
"960 269 CURVE",
"882 81 LINE",
"672 81 LINE",
"679 89 OFFCURVE",
"688 112 OFFCURVE",
"688 144 CURVE SMOOTH",
"688 330 LINE",
"880 330 LINE",
"884 341 OFFCURVE",
"890 360 OFFCURVE",
"892 390 CURVE",
"877 409 LINE",
"810 401 OFFCURVE",
"766 399 OFFCURVE",
"688 396 CURVE",
"688 561 LINE SMOOTH",
"688 600 OFFCURVE",
"696 629 OFFCURVE",
"747 629 CURVE SMOOTH",
"837 629 OFFCURVE",
"886 620 OFFCURVE",
"897 611 CURVE",
"925 460 LINE",
"944 453 OFFCURVE",
"983 445 OFFCURVE",
"1012 445 CURVE",
"1023 484 OFFCURVE",
"1039 566 OFFCURVE",
"1045 648 CURVE",
"1029 669 OFFCURVE",
"999 692 OFFCURVE",
"971 704 CURVE",
"528 704 LINE",
"497 714 OFFCURVE",
"462 720 OFFCURVE",
"433 720 CURVE SMOOTH",
"350 720 OFFCURVE",
"183 668 OFFCURVE",
"98 600 CURVE",
"76 535 OFFCURVE",
"58 432 OFFCURVE",
"58 337 CURVE SMOOTH",
"58 258 OFFCURVE",
"73 170 OFFCURVE",
"102 117 CURVE",
"121 95 OFFCURVE",
"246 0 OFFCURVE",
"361 0 CURVE SMOOTH"
);
},
{
closed = 1;
nodes = (
"373 93 OFFCURVE",
"283 122 OFFCURVE",
"270 143 CURVE",
"250 197 OFFCURVE",
"237 294 OFFCURVE",
"237 388 CURVE SMOOTH",
"237 483 OFFCURVE",
"248 559 OFFCURVE",
"268 606 CURVE",
"303 613 OFFCURVE",
"376 617 OFFCURVE",
"397 617 CURVE SMOOTH",
"437 617 OFFCURVE",
"475 605 OFFCURVE",
"513 585 CURVE",
"513 105 LINE",
"477 96 OFFCURVE",
"423 93 OFFCURVE",
"385 93 CURVE SMOOTH"
);
}
);
width = 1101;
}
);
leftKerningGroup = O;
leftMetricsKey = O;
rightKerningGroup = E;
rightMetricsKey = E;
unicode = 0152;
},
{
color = 6;
glyphname = P;
layers = (
{
anchors = (
{
name = bottom;
position = "{303, 0}";
},
{
name = top;
position = "{303, 704}";
}
);
layerId = UUID0;
paths = (
{
closed = 1;
nodes = (
"267 0 OFFCURVE",
"302 16 OFFCURVE",
"321 34 CURVE",
"321 45 OFFCURVE",
"317 53 OFFCURVE",
"314 56 CURVE",
"208 67 LINE",
"216 76 OFFCURVE",
"226 101 OFFCURVE",
"226 135 CURVE SMOOTH",
"226 294 LINE",
"375 294 LINE",
"447 304 OFFCURVE",
"506 337 OFFCURVE",
"531 359 CURVE",
"558 382 OFFCURVE",
"575 467 OFFCURVE",
"575 541 CURVE SMOOTH",
"575 574 OFFCURVE",
"571 603 OFFCURVE",
"564 620 CURVE",
"532 658 OFFCURVE",
"480 689 OFFCURVE",
"427 704 CURVE",
"104 704 LINE SMOOTH",
"92 704 OFFCURVE",
"54 685 OFFCURVE",
"43 671 CURVE",
"44 662 OFFCURVE",
"51 656 OFFCURVE",
"55 653 CURVE",
"153 653 LINE",
"145 647 OFFCURVE",
"134 620 OFFCURVE",
"134 571 CURVE SMOOTH",
"134 164 LINE SMOOTH",
"134 91 OFFCURVE",
"132 69 OFFCURVE",
"83 62 CURVE SMOOTH",
"54 58 LINE",
"50 54 OFFCURVE",
"44 45 OFFCURVE",
"44 34 CURVE",
"72 24 OFFCURVE",
"217 0 OFFCURVE",
"242 0 CURVE SMOOTH"
);
},
{
closed = 1;
nodes = (
"226 572 LINE SMOOTH",
"226 620 OFFCURVE",
"246 654 OFFCURVE",
"294 654 CURVE SMOOTH",
"347 654 OFFCURVE",
"418 647 OFFCURVE",
"449 633 CURVE",
"471 611 OFFCURVE",
"478 562 OFFCURVE",
"478 509 CURVE SMOOTH",
"478 449 OFFCURVE",
"468 395 OFFCURVE",
"445 364 CURVE",
"398 358 OFFCURVE",
"323 351 OFFCURVE",
"226 351 CURVE"
);
}
);
width = 605;
},
{
anchors = (
{
name = bottom;
position = "{309, 0}";
},
{
name = top;
position = "{309, 704}";
}
);
layerId = "C4D96FDC-31F2-4CF4-BEA5-4CCE99FECD99";
paths = (
{
closed = 1;
nodes = (
"309 0 OFFCURVE",
"355 17 OFFCURVE",
"374 35 CURVE",
"374 50 OFFCURVE",
"369 64 OFFCURVE",
"366 69 CURVE",
"261 83 LINE",
"268 91 OFFCURVE",
"279 115 OFFCURVE",
"279 152 CURVE SMOOTH",
"279 287 LINE",
"419 287 LINE",
"476 294 OFFCURVE",
"546 345 OFFCURVE",
"579 377 CURVE",
"596 400 OFFCURVE",
"611 468 OFFCURVE",
"611 529 CURVE SMOOTH",
"611 565 OFFCURVE",
"606 603 OFFCURVE",
"592 627 CURVE",
"566 656 OFFCURVE",
"496 693 OFFCURVE",
"450 704 CURVE",
"92 704 LINE SMOOTH",
"81 704 OFFCURVE",
"42 685 OFFCURVE",
"31 671 CURVE",
"32 655 OFFCURVE",
"39 641 OFFCURVE",
"43 637 CURVE",
"135 637 LINE",
"134 635 OFFCURVE",
"117 621 OFFCURVE",
"117 557 CURVE SMOOTH",
"117 180 LINE SMOOTH",
"117 107 OFFCURVE",
"106 80 OFFCURVE",
"70 75 CURVE SMOOTH",
"41 71 LINE",
"37 65 OFFCURVE",
"32 50 OFFCURVE",
"32 35 CURVE",
"60 25 OFFCURVE",
"263 0 OFFCURVE",
"285 0 CURVE SMOOTH"
);
},
{
closed = 1;
nodes = (
"279 558 LINE SMOOTH",
"279 600 OFFCURVE",
"289 632 OFFCURVE",
"336 632 CURVE SMOOTH",
"348 632 OFFCURVE",
"409 626 OFFCURVE",
"433 615 CURVE",
"453 592 OFFCURVE",
"460 552 OFFCURVE",
"460 512 CURVE SMOOTH",
"460 464 OFFCURVE",
"449 397 OFFCURVE",
"436 367 CURVE",
"399 358 OFFCURVE",
"333 356 OFFCURVE",
"279 356 CURVE"
);
}
);
width = 617;
},
{
anchors = (
{
name = bottom;
position = "{278, 0}";
},
{
name = top;
position = "{278, 709}";
}
);
layerId = "65D1C757-52A4-41AF-B6F1-0B1906938095";
paths = (
{
closed = 1;
nodes = (
"197 0 OFFCURVE",
"224 9 OFFCURVE",
"246 23 CURVE",
"245 30 OFFCURVE",
"242 36 OFFCURVE",
"240 40 CURVE",
"160 48 LINE",
"165 54 OFFCURVE",
"173 75 OFFCURVE",
"173 104 CURVE SMOOTH",
"173 311 LINE",
"367 311 LINE SMOOTH",
"397 311 OFFCURVE",
"446 341 OFFCURVE",
"467 362 CURVE",
"494 392 OFFCURVE",
"511 467 OFFCURVE",
"511 537 CURVE SMOOTH",
"511 583 OFFCURVE",
"503 633 OFFCURVE",
"485 665 CURVE",
"466 679 OFFCURVE",
"414 703 OFFCURVE",
"387 709 CURVE",
"102 709 LINE SMOOTH",
"92 709 OFFCURVE",
"60 694 OFFCURVE",
"52 687 CURVE",
"53 677 OFFCURVE",
"56 674 OFFCURVE",
"59 670 CURVE",
"131 670 LINE",
"125 662 OFFCURVE",
"118 636 OFFCURVE",
"118 599 CURVE SMOOTH",
"118 116 LINE SMOOTH",
"118 60 OFFCURVE",
"104 46 OFFCURVE",
"80 43 CURVE SMOOTH",
"57 40 LINE",
"54 37 OFFCURVE",
"50 30 OFFCURVE",
"50 23 CURVE",
"78 14 OFFCURVE",
"156 0 OFFCURVE",
"177 0 CURVE SMOOTH"
);
},
{
closed = 1;
nodes = (
"173 604 LINE SMOOTH",
"173 652 OFFCURVE",
"183 674 OFFCURVE",
"233 674 CURVE SMOOTH",
"287 674 OFFCURVE",
"361 670 OFFCURVE",
"418 663 CURVE",
"440 635 OFFCURVE",
"451 580 OFFCURVE",
"451 526 CURVE SMOOTH",
"451 460 OFFCURVE",
"436 393 OFFCURVE",
"410 361 CURVE",
"346 348 OFFCURVE",
"255 348 OFFCURVE",
"173 346 CURVE"
);
}
);
width = 556;
},
{
anchors = (
{
name = bottom;
position = "{280, 0}";
},
{
name = top;
position = "{280, 704}";
}
);
layerId = "891D9FC5-7784-4CE6-B01A-BC8B0C8DC68C";
paths = (
{
closed = 1;
nodes = (
"217 0 OFFCURVE",
"246 11 OFFCURVE",
"265 26 CURVE",
"265 34 OFFCURVE",
"262 42 OFFCURVE",
"259 45 CURVE",
"175 53 LINE",
"181 61 OFFCURVE",
"189 84 OFFCURVE",
"189 113 CURVE SMOOTH",
"189 306 LINE",
"363 306 LINE SMOOTH",
"403 306 OFFCURVE",
"453 337 OFFCURVE",
"476 359 CURVE",
"503 390 OFFCURVE",
"518 468 OFFCURVE",
"518 535 CURVE SMOOTH",
"518 575 OFFCURVE",
"512 621 OFFCURVE",
"498 649 CURVE",
"475 670 OFFCURVE",
"425 695 OFFCURVE",
"391 704 CURVE",
"104 704 LINE SMOOTH",
"94 704 OFFCURVE",
"60 688 OFFCURVE",
"52 678 CURVE",
"52 676 OFFCURVE",
"56 664 OFFCURVE",
"60 661 CURVE",
"137 661 LINE",
"132 654 OFFCURVE",
"123 631 OFFCURVE",
"123 587 CURVE SMOOTH",
"123 130 LINE SMOOTH",
"123 64 OFFCURVE",
"111 53 OFFCURVE",
"83 49 CURVE SMOOTH",
"59 46 LINE",
"56 42 OFFCURVE",
"51 35 OFFCURVE",
"51 26 CURVE",
"81 16 OFFCURVE",
"177 0 OFFCURVE",
"196 0 CURVE SMOOTH"
);
},
{
closed = 1;
nodes = (
"189 592 LINE SMOOTH",
"189 638 OFFCURVE",
"201 665 OFFCURVE",
"249 665 CURVE SMOOTH",
"306 665 OFFCURVE",
"376 659 OFFCURVE",
"417 650 CURVE",
"438 625 OFFCURVE",
"448 576 OFFCURVE",
"448 518 CURVE SMOOTH",
"448 457 OFFCURVE",
"436 394 OFFCURVE",
"411 360 CURVE",
"355 353 OFFCURVE",
"290 351 OFFCURVE",
"189 351 CURVE"
);
}
);
width = 561;
},
{
anchors = (
{
name = bottom;
position = "{326, 0}";
},
{
name = top;
position = "{326, 704}";
}
);
layerId = "FC63F3C5-4BD2-445A-988E-6411A2DDD46F";
paths = (
{
closed = 1;
nodes = (
"294 0 OFFCURVE",
"333 18 OFFCURVE",
"351 34 CURVE",
"351 45 OFFCURVE",
"347 55 OFFCURVE",
"343 59 CURVE",
"237 71 LINE",
"245 80 OFFCURVE",
"255 106 OFFCURVE",
"255 139 CURVE SMOOTH",
"255 292 LINE",
"417 292 LINE",
"482 301 OFFCURVE",
"542 339 OFFCURVE",
"572 364 CURVE",
"597 387 OFFCURVE",
"614 467 OFFCURVE",
"614 537 CURVE SMOOTH",
"614 573 OFFCURVE",
"609 604 OFFCURVE",
"598 624 CURVE",
"570 657 OFFCURVE",
"509 690 OFFCURVE",
"460 704 CURVE",
"116 704 LINE SMOOTH",
"103 704 OFFCURVE",
"64 685 OFFCURVE",
"53 671 CURVE",
"54 662 OFFCURVE",
"60 653 OFFCURVE",
"65 648 CURVE",
"162 648 LINE",
"157 645 OFFCURVE",
"143 623 OFFCURVE",
"143 568 CURVE SMOOTH",
"143 167 LINE SMOOTH",
"143 80 OFFCURVE",
"129 70 OFFCURVE",
"93 65 CURVE SMOOTH",
"64 61 LINE",
"59 56 OFFCURVE",
"54 45 OFFCURVE",
"54 34 CURVE",
"83 24 OFFCURVE",
"242 0 OFFCURVE",
"267 0 CURVE SMOOTH"
);
},
{
closed = 1;
nodes = (
"255 569 LINE SMOOTH",
"255 616 OFFCURVE",
"274 648 OFFCURVE",
"322 648 CURVE SMOOTH",
"362 648 OFFCURVE",
"437 642 OFFCURVE",
"471 629 CURVE",
"494 606 OFFCURVE",
"502 561 OFFCURVE",
"502 511 CURVE SMOOTH",
"502 455 OFFCURVE",
"491 396 OFFCURVE",
"469 365 CURVE",
"420 361 OFFCURVE",
"347 357 OFFCURVE",
"255 357 CURVE"
);
}
);
width = 650;
},
{
anchors = (
{
name = bottom;
position = "{327, 0}";
},
{
name = top;
position = "{327, 704}";
}
);
layerId = "B67CA61C-C7DB-4511-8D93-FE28BE810A6B";
paths = (
{
closed = 1;
nodes = (
"323 0 OFFCURVE",
"370 15 OFFCURVE",
"391 32 CURVE",
"390 51 OFFCURVE",
"384 62 OFFCURVE",
"382 69 CURVE",
"282 83 LINE",
"290 91 OFFCURVE",
"299 115 OFFCURVE",
"299 147 CURVE SMOOTH",
"299 287 LINE",
"464 287 LINE",
"504 290 OFFCURVE",
"573 345 OFFCURVE",
"609 377 CURVE",
"624 405 OFFCURVE",
"639 464 OFFCURVE",
"639 522 CURVE SMOOTH",
"639 563 OFFCURVE",
"632 613 OFFCURVE",
"611 646 CURVE",
"593 661 OFFCURVE",
"515 698 OFFCURVE",
"481 704 CURVE",
"103 704 LINE SMOOTH",
"92 704 OFFCURVE",
"53 686 OFFCURVE",
"43 675 CURVE",
"44 661 OFFCURVE",
"50 642 OFFCURVE",
"54 635 CURVE",
"140 635 LINE",
"141 634 OFFCURVE",
"124 626 OFFCURVE",
"124 561 CURVE SMOOTH",
"124 169 LINE SMOOTH",
"124 111 OFFCURVE",
"109 78 OFFCURVE",
"80 74 CURVE SMOOTH",
"51 70 LINE",
"47 63 OFFCURVE",
"43 45 OFFCURVE",
"43 32 CURVE",
"73 22 OFFCURVE",
"274 0 OFFCURVE",
"298 0 CURVE SMOOTH"
);
},
{
closed = 1;
nodes = (
"299 564 LINE SMOOTH",
"299 596 OFFCURVE",
"299 629 OFFCURVE",
"353 629 CURVE SMOOTH",
"359 629 OFFCURVE",
"420 624 OFFCURVE",
"449 618 CURVE",
"470 593 OFFCURVE",
"478 554 OFFCURVE",
"478 517 CURVE SMOOTH",
"478 471 OFFCURVE",
"465 396 OFFCURVE",
"453 366 CURVE",
"412 360 OFFCURVE",
"345 360 OFFCURVE",
"299 360 CURVE"
);
}
);
width = 654;
}
);
leftKerningGroup = H;
leftMetricsKey = H;
rightKerningGroup = P;
unicode = 0050;
},
